<svg id="Layer_1" data-name="Layer 1" xmlns="http://www.w3.org/2000/svg" viewBox="0 0 203.37 64.98"><defs><style>.cls-1{fill:#fff;}.cls-2{fill:#151518;}</style></defs><title>Screenshot 2022-04-23 225255</title><path class="cls-1" d="M247.21,86.91l37.47-16.2s8.66-3,11.06,3.73,6.56,7.85,10.49,7.37S359.94,75,378,92.18L279.18,104l-.33-6.51,6-1.17-.48-4-35.69.6Z" transform="translate(-174.58 -70.05)"/><path class="cls-1" d="M252.12,128.08,292.35,135s9.13.87,9.88-6.22,4.52-9.18,8.46-9.63,53.81-6,67.26-27L279.18,104l1.21,6.4,6.1-.27.47,4L252.14,122Z" transform="translate(-174.58 -70.05)"/><circle class="cls-2" cx="141.51" cy="30.13" r="9.06"/><path class="cls-1" d="M260,104.67l-82.28,2-3.15-23.85s4.26,19.72,24.06,19.77S260,104.67,260,104.67Z" transform="translate(-174.58 -70.05)"/><path class="cls-1" d="M260.35,108l-82.28,2-2,24s3.3-19.91,23.07-20.92S260.35,108,260.35,108Z" transform="translate(-174.58 -70.05)"/></svg>