<?xml version="1.0" encoding="utf-8"?>
<!-- Generator: Adobe Illustrator 24.2.0, SVG Export Plug-In . SVG Version: 6.00 Build 0)  -->
<svg version="1.1" id="Capa_1" xmlns="http://www.w3.org/2000/svg" xmlns:xlink="http://www.w3.org/1999/xlink" x="0px" y="0px"
	 viewBox="0 0 406.05 242.89" style="enable-background:new 0 0 406.05 242.89;" xml:space="preserve">
<style type="text/css">
	.st0{fill:#151518;}
	.st1{fill:#FFFFFF;}
	.st2{fill:none;}
</style>
<g>
	<rect x="971.44" y="-1332.07" class="st0" width="1080" height="532.88"/>
	<g>
		<g>
			<polygon class="st1" points="1319.84,-926.07 1319.77,-939.95 1313.03,-928.65 1309.74,-928.65 1303.05,-939.58 1303.05,-926.07 
				1296.2,-926.07 1296.2,-952.26 1302.3,-952.26 1311.5,-937.14 1320.48,-952.26 1326.58,-952.26 1326.65,-926.07 			"/>
			<polygon class="st1" points="1390.32,-931.79 1390.32,-926.07 1369.3,-926.07 1369.3,-952.26 1389.84,-952.26 1389.84,-946.53 
				1376.63,-946.53 1376.63,-942.12 1388.27,-942.12 1388.27,-936.58 1376.63,-936.58 1376.63,-931.79 			"/>
			<polygon class="st1" points="1456.77,-952.26 1456.77,-926.07 1450.67,-926.07 1439.11,-940.02 1439.11,-926.07 1431.85,-926.07 
				1431.85,-952.26 1437.95,-952.26 1449.51,-938.3 1449.51,-952.26 			"/>
			<path class="st1" d="M1499.41-952.26h12.38c2.87,0,5.41,0.54,7.63,1.61c2.22,1.07,3.94,2.59,5.16,4.56
				c1.22,1.97,1.83,4.28,1.83,6.92c0,2.64-0.61,4.95-1.83,6.92c-1.22,1.97-2.94,3.49-5.16,4.56c-2.22,1.07-4.76,1.61-7.63,1.61
				h-12.38V-952.26z M1511.5-931.98c2.24,0,4.05-0.64,5.41-1.91c1.36-1.27,2.04-3.03,2.04-5.28s-0.68-4-2.04-5.27
				c-1.36-1.27-3.16-1.91-5.41-1.91h-4.68v14.36H1511.5z"/>
			<path class="st1" d="M1573.47-927.3c-2.21-1.17-3.94-2.79-5.2-4.86c-1.26-2.07-1.89-4.4-1.89-7c0-2.59,0.63-4.93,1.89-7
				c1.26-2.07,2.99-3.69,5.2-4.86c2.21-1.17,4.7-1.76,7.46-1.76c2.77,0,5.26,0.59,7.46,1.76c2.21,1.17,3.94,2.79,5.2,4.86
				c1.26,2.07,1.89,4.4,1.89,7c0,2.59-0.63,4.93-1.89,7c-1.26,2.07-2.99,3.69-5.2,4.86s-4.7,1.76-7.46,1.76
				C1578.16-925.55,1575.67-926.13,1573.47-927.3 M1584.52-932.62c1.07-0.62,1.92-1.5,2.54-2.64c0.62-1.13,0.93-2.44,0.93-3.91
				c0-1.47-0.31-2.77-0.93-3.91c-0.62-1.14-1.47-2.02-2.54-2.64c-1.07-0.62-2.27-0.93-3.59-0.93c-1.32,0-2.52,0.31-3.59,0.93
				c-1.07,0.62-1.92,1.5-2.54,2.64c-0.62,1.14-0.94,2.44-0.94,3.91c0,1.47,0.31,2.78,0.94,3.91c0.62,1.14,1.47,2.02,2.54,2.64
				c1.07,0.62,2.27,0.94,3.59,0.94C1582.25-931.68,1583.45-931.99,1584.52-932.62"/>
			<polygon class="st1" points="1658.71,-931.94 1658.71,-926.07 1635.25,-926.07 1635.25,-930.71 1648.46,-946.38 1635.59,-946.38 
				1635.59,-952.26 1658.15,-952.26 1658.15,-947.62 1644.94,-931.94 			"/>
			<path class="st1" d="M1716.92-931.16h-11.07l-2.06,5.09h-7.56l11.56-26.19h7.29l11.6,26.19h-7.71L1716.92-931.16z
				 M1714.75-936.62l-3.37-8.38l-3.37,8.38H1714.75z"/>
		</g>
		<g>
			<polygon class="st1" points="1485.39,-1212.07 1479.97,-1220.19 1474.62,-1212.07 1466.16,-1212.07 1475.7,-1225.31 
				1466.58,-1238.26 1474.92,-1238.26 1480.16,-1230.7 1485.32,-1238.26 1493.32,-1238.26 1484.2,-1225.61 1493.92,-1212.07 			"/>
			<polygon class="st1" points="1550.19,-1212.07 1544.76,-1220.19 1539.41,-1212.07 1530.96,-1212.07 1540.5,-1225.31 
				1531.37,-1238.26 1539.71,-1238.26 1544.95,-1230.7 1550.11,-1238.26 1558.12,-1238.26 1548.99,-1225.61 1558.72,-1212.07 			"/>
			<path class="st1" d="M1527.27-1138.94c-9.04,0.57-16.4,5.33-23.85,9.8c-2.08,1.25-3.68,2.4-6.19,0.52
				c-1.02-0.76-3.99-0.6-4.77,0.28c-3.83,4.36-7.23,9.11-10.78,13.73c0.46,0.56,0.93,1.11,1.39,1.67c4.33-2.35,8.67-4.71,13-7.07
				c0.29,0.47,0.58,0.93,0.87,1.4c-0.53,0.48-1.04,0.99-1.56,1.49c1.06,1.48,2.17,3.28,2.94,4.96c0.93-0.36,1.88-0.67,2.8-1.05
				c0.23,0.39,0.46,0.79,0.69,1.18c-3.86,2.98-7.72,5.96-12.18,9.4c1.69,0.69,2.53,1.39,3.13,1.22c5.01-1.44,10.06-2.83,14.91-4.73
				c1.14-0.45,2.41-2.94,2.14-4.16c-0.62-2.74,0.67-3.9,2.49-5.32c6.97-5.45,13.9-10.99,17.74-19.31c0.5-1.09,0.59-2.37,0.86-3.56
				C1529.69-1138.65,1528.47-1139.02,1527.27-1138.94 M1510.66-1119.69c-1.98,0.65-4.12-0.44-4.76-2.43
				c-0.65-1.99,0.44-4.12,2.43-4.76c1.98-0.65,4.12,0.44,4.76,2.43C1513.73-1122.47,1512.64-1120.34,1510.66-1119.69"/>
			<path class="st1" d="M1287.82-1064.13l21.88,10.63c-12.48,23.88-37.28,40.21-65.94,40.21c-14.79,0-28.65-4.47-40.36-12.02
				c-13.86-9.09-24.65-22.8-30.19-38.82c-2.31-7.39-3.7-15.25-3.7-23.57v-2.62v-2.62c0-8.32,1.39-16.17,3.7-23.57
				c5.55-16.02,16.33-29.73,30.19-38.82c11.71-7.55,25.57-12.02,40.36-12.02c28.66,0,53.46,16.33,65.94,40.05l-21.88,10.78
				l-8.63,4.31c-0.77-1.54-1.69-2.93-2.62-4.31c-7.4-10.17-19.26-16.79-32.81-16.79c-13.4,0-25.42,6.62-32.81,16.79
				c-4.62,6.62-7.55,14.79-7.55,23.57v2.62v2.62c0,8.78,2.93,16.95,7.55,23.57c7.39,10.17,19.41,16.79,32.81,16.79
				c13.56,0,25.42-6.62,32.81-16.79c0.92-1.39,1.85-2.77,2.62-4.31L1287.82-1064.13z"/>
			<polygon class="st1" points="1762.01,-1167.34 1762.01,-1107.26 1762.01,-1073.37 1762.01,-1013.29 1728.12,-1013.29 
				1728.12,-1073.37 1728.12,-1107.26 1728.12,-1167.34 			"/>
			<path class="st1" d="M1490.48-1110.58c-6.51,3.16-13.02,6.31-19.53,9.47c-2.27,1.1-4.56,2.21-7.03,2.7
				c-2.47,0.5-5.17,0.32-7.3-1.02c-1.87-1.18-3.11-3.1-4.3-4.97c-0.25-0.39-0.5-0.79-0.75-1.18l-13.03-24.95l-19.1-36.82
				l-19.1,36.82l-37.74,72.56l-4.43,8.5c7.26-3.24,51.7-21.05,53.15-21.55c0.69-0.24,1.39-0.48,2.08-0.72
				c1.59-0.55,3.19-1.1,4.65-1.95c-1.36,0.16-2.79-0.01-3.99-0.68c-1.2-0.67-2.12-1.89-2.23-3.26c-0.01-0.13-0.01-0.31,0.01-0.49
				c0.06-0.74,0.27-1.46,0.61-2.12l7-13.48l6.53,12.52c1,1.91,3.28,2.76,5.28,1.95l0.04-0.02
				C1435.53-1080.96,1480.59-1103.23,1490.48-1110.58"/>
			<path class="st1" d="M1498.79-1011.02l-22.36-42.95l-13.61-26.07c-0.3-0.56-0.99-0.79-1.56-0.52
				c-4.72,2.29-17.49,7.52-19.07,8.14c-0.05,0.02-0.11,0.05-0.16,0.08c-1.03,0.58-2.03,1.21-2.98,1.91
				c-0.6,0.48-2.62,3.09-2.88,3.68c-0.42,1.07-0.74,2.17-0.92,3.3c0,0.01,0,0.02,0,0.03c-0.17,1.62,0.1,3.26,0.76,4.75
				c0.83,1.88,2.02,4.58,2.07,4.68c0,0,0,0.01,0,0.01l22.93,44.04c0.2,0.39,0.6,0.63,1.05,0.63h35.7
				C1498.63-1009.29,1499.2-1010.23,1498.79-1011.02"/>
			<path class="st1" d="M1401.63-1055.58c-0.94,0.48-1.88,0.94-2.83,1.38c-4.17,1.96-8.44,3.66-12.68,5.44
				c-1.09,0.46-2.17,0.92-3.25,1.39c-2.23,0.96-4.46,1.92-6.7,2.86c-1.95,0.82-3.91,1.59-5.86,2.41c-1.47,0.63-2.93,1.28-4.39,1.94
				c-2.22,1.02-4.4,2.11-6.63,3.12c-0.91,0.41-1.83,0.82-2.77,1.17c-2.71,1.02-4.95,2.99-6.29,5.56l-2.44,4.67l-2.93,5.7l-5.12,9.82
				c-0.19,0.37,0.08,0.81,0.49,0.81h37.11c0.21,0,0.39-0.11,0.49-0.3l5.39-10.33l12.68-24.57c0.34-0.66,0.73-1.29,1.16-1.89
				c2.91-4,6.15-7.7,10.04-10.75c0.01-0.01,0.02-0.02,0.03-0.02c0.53-0.41,0-1.24-0.59-0.93
				C1404.84-1057.19,1403.1-1056.26,1401.63-1055.58L1401.63-1055.58z"/>
			<path class="st1" d="M1584.81-1167.34h-34.79v17.26C1560.9-1157.05,1572.59-1162.84,1584.81-1167.34"/>
			<path class="st1" d="M1674.65-1133.3v-34.04h-64.51c-20.72,3.39-40.98,10.01-60.12,19.39v14.65v26.04v16.95v16.95v26.03v34.05
				h124.63v-34.05h-90.74v-26.03h80.11v-33.89h-80.11v-26.04H1674.65z"/>
			<path class="st1" d="M1855.37-1030.1v-43.27v-33.89v-60.08h-33.89v60.08v33.89v52.69
				C1832.98-1022.86,1844.31-1026.03,1855.37-1030.1"/>
			<path class="st1" d="M1821.48-1013.59v0.3h33.89v-12.12C1844.53-1020.39,1833.15-1016.43,1821.48-1013.59"/>
		</g>
	</g>
</g>
<g>
	<rect x="2293.1" y="-1332.07" class="st0" width="1080" height="532.88"/>
	<g>
		<g>
			<polygon class="st1" points="2641.5,-926.07 2641.42,-939.95 2634.69,-928.65 2631.4,-928.65 2624.7,-939.58 2624.7,-926.07 
				2617.85,-926.07 2617.85,-952.26 2623.95,-952.26 2633.16,-937.14 2642.14,-952.26 2648.23,-952.26 2648.31,-926.07 			"/>
			<polygon class="st1" points="2711.98,-931.79 2711.98,-926.07 2690.96,-926.07 2690.96,-952.26 2711.49,-952.26 2711.49,-946.53 
				2698.29,-946.53 2698.29,-942.12 2709.92,-942.12 2709.92,-936.58 2698.29,-936.58 2698.29,-931.79 			"/>
			<polygon class="st1" points="2778.42,-952.26 2778.42,-926.07 2772.32,-926.07 2760.76,-940.02 2760.76,-926.07 2753.5,-926.07 
				2753.5,-952.26 2759.6,-952.26 2771.16,-938.3 2771.16,-952.26 			"/>
			<path class="st1" d="M2821.07-952.26h12.38c2.87,0,5.41,0.54,7.63,1.61c2.22,1.07,3.94,2.59,5.16,4.56
				c1.22,1.97,1.83,4.28,1.83,6.92c0,2.64-0.61,4.95-1.83,6.92c-1.22,1.97-2.94,3.49-5.16,4.56c-2.22,1.07-4.76,1.61-7.63,1.61
				h-12.38V-952.26z M2833.15-931.98c2.24,0,4.05-0.64,5.41-1.91c1.36-1.27,2.04-3.03,2.04-5.28s-0.68-4-2.04-5.27
				c-1.36-1.27-3.16-1.91-5.41-1.91h-4.68v14.36H2833.15z"/>
			<path class="st1" d="M2895.12-927.3c-2.21-1.17-3.94-2.79-5.2-4.86c-1.26-2.07-1.89-4.4-1.89-7c0-2.59,0.63-4.93,1.89-7
				c1.26-2.07,2.99-3.69,5.2-4.86c2.21-1.17,4.7-1.76,7.46-1.76c2.77,0,5.26,0.59,7.46,1.76c2.21,1.17,3.94,2.79,5.2,4.86
				c1.26,2.07,1.89,4.4,1.89,7c0,2.59-0.63,4.93-1.89,7c-1.26,2.07-2.99,3.69-5.2,4.86s-4.7,1.76-7.46,1.76
				C2899.82-925.55,2897.33-926.13,2895.12-927.3 M2906.18-932.62c1.07-0.62,1.92-1.5,2.54-2.64c0.62-1.13,0.94-2.44,0.94-3.91
				c0-1.47-0.31-2.77-0.94-3.91c-0.62-1.14-1.47-2.02-2.54-2.64c-1.07-0.62-2.27-0.93-3.59-0.93c-1.32,0-2.52,0.31-3.59,0.93
				c-1.07,0.62-1.92,1.5-2.54,2.64c-0.62,1.14-0.93,2.44-0.93,3.91c0,1.47,0.31,2.78,0.93,3.91c0.62,1.14,1.47,2.02,2.54,2.64
				c1.07,0.62,2.27,0.94,3.59,0.94C2903.91-931.68,2905.11-931.99,2906.18-932.62"/>
			<polygon class="st1" points="2980.36,-931.94 2980.36,-926.07 2956.91,-926.07 2956.91,-930.71 2970.11,-946.38 2957.24,-946.38 
				2957.24,-952.26 2979.8,-952.26 2979.8,-947.62 2966.6,-931.94 			"/>
			<path class="st1" d="M3038.57-931.16h-11.07l-2.06,5.09h-7.56l11.56-26.19h7.29l11.6,26.19h-7.71L3038.57-931.16z M3036.4-936.62
				l-3.37-8.38l-3.37,8.38H3036.4z"/>
		</g>
		<g>
			<polygon class="st1" points="2807.05,-1212.07 2801.62,-1220.19 2796.27,-1212.07 2787.82,-1212.07 2797.36,-1225.31 
				2788.23,-1238.26 2796.57,-1238.26 2801.81,-1230.7 2806.97,-1238.26 2814.98,-1238.26 2805.85,-1225.61 2815.58,-1212.07 			"/>
			<polygon class="st1" points="2871.84,-1212.07 2866.42,-1220.19 2861.07,-1212.07 2852.61,-1212.07 2862.15,-1225.31 
				2853.03,-1238.26 2861.37,-1238.26 2866.61,-1230.7 2871.77,-1238.26 2879.77,-1238.26 2870.65,-1225.61 2880.37,-1212.07 			"/>
			<path class="st1" d="M2848.93-1138.94c-9.04,0.57-16.4,5.33-23.85,9.8c-2.08,1.25-3.68,2.4-6.19,0.52
				c-1.02-0.76-3.99-0.6-4.77,0.28c-3.83,4.36-7.23,9.11-10.78,13.73c0.46,0.56,0.93,1.11,1.39,1.67c4.33-2.35,8.66-4.71,13-7.07
				c0.29,0.47,0.58,0.93,0.87,1.4c-0.53,0.48-1.04,0.99-1.56,1.49c1.06,1.48,2.17,3.28,2.94,4.96c0.93-0.36,1.88-0.67,2.8-1.05
				c0.23,0.39,0.46,0.79,0.69,1.18c-3.86,2.98-7.72,5.96-12.18,9.4c1.69,0.69,2.53,1.39,3.13,1.22c5.01-1.44,10.06-2.83,14.91-4.73
				c1.14-0.45,2.41-2.94,2.14-4.16c-0.62-2.74,0.67-3.9,2.49-5.32c6.97-5.45,13.9-10.99,17.74-19.31c0.5-1.09,0.58-2.37,0.86-3.56
				C2851.35-1138.65,2850.12-1139.02,2848.93-1138.94 M2832.31-1119.69c-1.99,0.65-4.12-0.44-4.76-2.43
				c-0.65-1.99,0.44-4.12,2.43-4.76c1.99-0.65,4.12,0.44,4.76,2.43C2835.38-1122.47,2834.3-1120.34,2832.31-1119.69"/>
			<path class="st1" d="M2609.48-1064.13l21.88,10.63c-12.48,23.88-37.28,40.21-65.94,40.21c-14.79,0-28.65-4.47-40.36-12.02
				c-13.86-9.09-24.65-22.8-30.2-38.82c-2.31-7.39-3.7-15.25-3.7-23.57v-2.62v-2.62c0-8.32,1.39-16.17,3.7-23.57
				c5.55-16.02,16.33-29.73,30.2-38.82c11.71-7.55,25.57-12.02,40.36-12.02c28.66,0,53.46,16.33,65.94,40.05l-21.88,10.78
				l-8.63,4.31c-0.77-1.54-1.69-2.93-2.62-4.31c-7.4-10.17-19.26-16.79-32.81-16.79c-13.4,0-25.42,6.62-32.81,16.79
				c-4.62,6.62-7.55,14.79-7.55,23.57v2.62v2.62c0,8.78,2.93,16.95,7.55,23.57c7.39,10.17,19.41,16.79,32.81,16.79
				c13.56,0,25.42-6.62,32.81-16.79c0.92-1.39,1.85-2.77,2.62-4.31L2609.48-1064.13z"/>
			<polygon class="st1" points="3083.67,-1167.34 3083.67,-1107.26 3083.67,-1073.37 3083.67,-1013.29 3049.78,-1013.29 
				3049.78,-1073.37 3049.78,-1107.26 3049.78,-1167.34 			"/>
			<path class="st1" d="M2812.13-1110.58c-6.51,3.16-13.02,6.31-19.53,9.47c-2.27,1.1-4.56,2.21-7.03,2.7
				c-2.47,0.5-5.17,0.32-7.3-1.02c-1.87-1.18-3.11-3.1-4.3-4.97c-0.25-0.39-0.5-0.79-0.75-1.18l-13.03-24.95l-19.1-36.82
				l-19.1,36.82l-37.74,72.56l-4.43,8.5c7.26-3.24,51.7-21.05,53.15-21.55c0.7-0.24,1.39-0.48,2.08-0.72
				c1.59-0.55,3.19-1.1,4.65-1.95c-1.36,0.16-2.79-0.01-3.99-0.68c-1.2-0.67-2.12-1.89-2.23-3.26c-0.01-0.13-0.01-0.31,0.01-0.49
				c0.05-0.74,0.27-1.46,0.61-2.12l7-13.48l6.53,12.52c1,1.91,3.28,2.76,5.28,1.95l0.03-0.02
				C2757.18-1080.96,2802.25-1103.23,2812.13-1110.58"/>
			<path class="st1" d="M2820.44-1011.02l-22.36-42.95l-13.61-26.07c-0.3-0.56-0.99-0.79-1.56-0.52
				c-4.72,2.29-17.49,7.52-19.06,8.14c-0.05,0.02-0.11,0.05-0.16,0.08c-1.03,0.58-2.03,1.21-2.98,1.91
				c-0.6,0.48-2.62,3.09-2.88,3.68c-0.43,1.07-0.74,2.17-0.93,3.3c0,0.01,0,0.02,0,0.03c-0.17,1.62,0.1,3.26,0.76,4.75
				c0.83,1.88,2.02,4.58,2.07,4.68c0,0,0,0.01,0,0.01l22.93,44.04c0.2,0.39,0.6,0.63,1.04,0.63h35.7
				C2820.28-1009.29,2820.85-1010.23,2820.44-1011.02"/>
			<path class="st1" d="M2723.28-1055.58c-0.94,0.48-1.88,0.94-2.83,1.38c-4.17,1.96-8.44,3.66-12.68,5.44
				c-1.09,0.46-2.17,0.92-3.25,1.39c-2.23,0.96-4.46,1.92-6.7,2.86c-1.95,0.82-3.91,1.59-5.86,2.41c-1.47,0.63-2.94,1.28-4.39,1.94
				c-2.22,1.02-4.4,2.11-6.63,3.12c-0.91,0.41-1.83,0.82-2.77,1.17c-2.71,1.02-4.95,2.99-6.29,5.56l-2.44,4.67l-2.93,5.7l-5.12,9.82
				c-0.19,0.37,0.07,0.81,0.49,0.81H2699c0.2,0,0.39-0.11,0.49-0.3l5.39-10.33l12.68-24.57c0.34-0.66,0.73-1.29,1.16-1.89
				c2.91-4,6.15-7.7,10.04-10.75c0.01-0.01,0.02-0.02,0.03-0.02c0.53-0.41,0-1.24-0.59-0.93
				C2726.5-1057.19,2724.76-1056.26,2723.28-1055.58L2723.28-1055.58z"/>
			<path class="st1" d="M2906.47-1167.34h-34.79v17.26C2882.56-1157.05,2894.25-1162.84,2906.47-1167.34"/>
			<path class="st1" d="M2996.31-1133.3v-34.04h-64.51c-20.72,3.39-40.98,10.01-60.11,19.39v14.65v26.04v16.95v16.95v26.03v34.05
				h124.63v-34.05h-90.74v-26.03h80.11v-33.89h-80.11v-26.04H2996.31z"/>
			<path class="st1" d="M3177.03-1030.1v-43.27v-33.89v-60.08h-33.89v60.08v33.89v52.69
				C3154.63-1022.86,3165.96-1026.03,3177.03-1030.1"/>
			<path class="st1" d="M3143.14-1013.59v0.3h33.89v-12.12C3166.19-1020.39,3154.81-1016.43,3143.14-1013.59"/>
		</g>
	</g>
</g>
<polygon class="st0" points="1319.84,-376.09 1319.77,-389.97 1313.03,-378.68 1309.74,-378.68 1303.05,-389.6 1303.05,-376.09 
	1296.2,-376.09 1296.2,-402.28 1302.3,-402.28 1311.5,-387.17 1320.48,-402.28 1326.58,-402.28 1326.65,-376.09 "/>
<polygon class="st0" points="1390.32,-381.82 1390.32,-376.09 1369.3,-376.09 1369.3,-402.28 1389.84,-402.28 1389.84,-396.56 
	1376.63,-396.56 1376.63,-392.14 1388.27,-392.14 1388.27,-386.61 1376.63,-386.61 1376.63,-381.82 "/>
<polygon class="st0" points="1456.77,-402.28 1456.77,-376.09 1450.67,-376.09 1439.11,-390.05 1439.11,-376.09 1431.85,-376.09 
	1431.85,-402.28 1437.95,-402.28 1449.51,-388.33 1449.51,-402.28 "/>
<path class="st0" d="M1499.41-402.28h12.38c2.87,0,5.41,0.54,7.63,1.61c2.22,1.07,3.94,2.59,5.16,4.56
	c1.22,1.97,1.83,4.28,1.83,6.92c0,2.64-0.61,4.95-1.83,6.92c-1.22,1.97-2.94,3.49-5.16,4.56c-2.22,1.07-4.76,1.61-7.63,1.61h-12.38
	V-402.28z M1511.5-382c2.24,0,4.05-0.64,5.41-1.91c1.36-1.27,2.04-3.03,2.04-5.28s-0.68-4-2.04-5.27c-1.36-1.27-3.16-1.91-5.41-1.91
	h-4.68V-382H1511.5z"/>
<path class="st0" d="M1573.47-377.33c-2.21-1.17-3.94-2.79-5.2-4.86c-1.26-2.07-1.89-4.4-1.89-7c0-2.59,0.63-4.93,1.89-7
	c1.26-2.07,2.99-3.69,5.2-4.86c2.21-1.17,4.7-1.76,7.46-1.76c2.77,0,5.26,0.59,7.46,1.76c2.21,1.17,3.94,2.79,5.2,4.86
	c1.26,2.07,1.89,4.4,1.89,7c0,2.59-0.63,4.93-1.89,7c-1.26,2.07-2.99,3.69-5.2,4.86s-4.7,1.76-7.46,1.76
	C1578.16-375.57,1575.67-376.16,1573.47-377.33 M1584.52-382.64c1.07-0.62,1.92-1.5,2.54-2.64c0.62-1.13,0.93-2.44,0.93-3.91
	c0-1.47-0.31-2.77-0.93-3.91c-0.62-1.13-1.47-2.01-2.54-2.64c-1.07-0.62-2.27-0.93-3.59-0.93c-1.32,0-2.52,0.31-3.59,0.93
	c-1.07,0.62-1.92,1.5-2.54,2.64c-0.62,1.14-0.94,2.44-0.94,3.91c0,1.47,0.31,2.78,0.94,3.91c0.62,1.13,1.47,2.01,2.54,2.64
	c1.07,0.62,2.27,0.94,3.59,0.94C1582.25-381.71,1583.45-382.02,1584.52-382.64"/>
<polygon class="st0" points="1658.71,-381.97 1658.71,-376.09 1635.25,-376.09 1635.25,-380.73 1648.46,-396.41 1635.59,-396.41 
	1635.59,-402.28 1658.15,-402.28 1658.15,-397.64 1644.94,-381.97 "/>
<path class="st0" d="M1716.92-381.18h-11.07l-2.06,5.09h-7.56l11.56-26.19h7.29l11.6,26.19h-7.71L1716.92-381.18z M1714.75-386.64
	l-3.37-8.38l-3.37,8.38H1714.75z"/>
<polygon class="st0" points="1484.39,-662.09 1478.97,-670.21 1473.62,-662.09 1465.16,-662.09 1474.7,-675.34 1465.58,-688.28 
	1473.92,-688.28 1479.16,-680.72 1484.32,-688.28 1492.32,-688.28 1483.2,-675.64 1492.92,-662.09 "/>
<polygon class="st0" points="1549.19,-662.09 1543.76,-670.21 1538.41,-662.09 1529.96,-662.09 1539.5,-675.34 1530.37,-688.28 
	1538.71,-688.28 1543.95,-680.72 1549.11,-688.28 1557.12,-688.28 1547.99,-675.64 1557.72,-662.09 "/>
<path class="st0" d="M1526.27-588.97c-9.04,0.57-16.4,5.33-23.85,9.8c-2.08,1.25-3.68,2.4-6.19,0.51c-1.02-0.76-3.99-0.6-4.77,0.28
	c-3.83,4.37-7.23,9.11-10.78,13.73l1.39,1.67c4.33-2.35,8.67-4.71,13-7.07c0.29,0.47,0.58,0.93,0.87,1.4
	c-0.53,0.48-1.04,0.99-1.56,1.49c1.06,1.48,2.17,3.28,2.94,4.96c0.93-0.36,1.88-0.67,2.8-1.05c0.23,0.4,0.46,0.79,0.69,1.18
	c-3.86,2.98-7.72,5.96-12.18,9.4c1.69,0.69,2.53,1.39,3.13,1.22c5.01-1.44,10.06-2.83,14.91-4.73c1.14-0.45,2.41-2.94,2.14-4.16
	c-0.62-2.74,0.67-3.9,2.49-5.33c6.97-5.45,13.9-10.99,17.74-19.3c0.5-1.09,0.59-2.37,0.86-3.56
	C1528.69-588.68,1527.47-589.04,1526.27-588.97 M1509.66-569.72c-1.98,0.65-4.12-0.44-4.76-2.43c-0.65-1.99,0.44-4.12,2.43-4.76
	c1.98-0.65,4.12,0.44,4.76,2.43C1512.73-572.5,1511.64-570.36,1509.66-569.72"/>
<path class="st0" d="M1286.82-514.15l21.88,10.63c-12.48,23.88-37.28,40.21-65.94,40.21c-14.79,0-28.65-4.47-40.36-12.02
	c-13.86-9.09-24.65-22.8-30.19-38.82c-2.31-7.39-3.7-15.25-3.7-23.57v-2.62v-2.62c0-8.32,1.39-16.17,3.7-23.57
	c5.55-16.02,16.33-29.73,30.19-38.82c11.71-7.55,25.57-12.02,40.36-12.02c28.66,0,53.46,16.33,65.94,40.05l-21.88,10.78l-8.63,4.31
	c-0.77-1.54-1.69-2.93-2.62-4.31c-7.4-10.17-19.26-16.79-32.81-16.79c-13.4,0-25.42,6.62-32.81,16.79
	c-4.62,6.62-7.55,14.79-7.55,23.57v2.62v2.62c0,8.78,2.93,16.95,7.55,23.57c7.39,10.17,19.41,16.79,32.81,16.79
	c13.56,0,25.42-6.62,32.81-16.79c0.92-1.39,1.85-2.77,2.62-4.31L1286.82-514.15z"/>
<polygon class="st0" points="1761.01,-617.37 1761.01,-557.29 1761.01,-523.4 1761.01,-463.32 1727.12,-463.32 1727.12,-523.4 
	1727.12,-557.29 1727.12,-617.37 "/>
<path class="st0" d="M1489.48-560.61c-6.51,3.16-13.02,6.31-19.53,9.47c-2.27,1.1-4.56,2.21-7.03,2.7c-2.47,0.5-5.17,0.32-7.3-1.02
	c-1.87-1.18-3.11-3.1-4.3-4.97c-0.25-0.39-0.5-0.79-0.75-1.18l-13.03-24.95l-19.1-36.82l-19.1,36.82l-37.74,72.56l-4.43,8.5
	c7.26-3.24,51.7-21.05,53.15-21.55c0.69-0.24,1.39-0.48,2.08-0.72c1.59-0.55,3.19-1.1,4.65-1.95c-1.36,0.16-2.79-0.01-3.99-0.68
	c-1.2-0.67-2.12-1.89-2.23-3.26c-0.01-0.13-0.01-0.3,0.01-0.49c0.06-0.74,0.27-1.46,0.61-2.12l7-13.48l6.53,12.52
	c1,1.91,3.28,2.76,5.28,1.95l0.04-0.01C1434.53-530.98,1479.59-553.26,1489.48-560.61"/>
<path class="st0" d="M1497.79-461.04l-22.36-42.95l-13.61-26.07c-0.3-0.56-0.99-0.79-1.56-0.51c-4.72,2.29-17.49,7.52-19.07,8.14
	c-0.05,0.02-0.11,0.05-0.16,0.08c-1.03,0.58-2.03,1.21-2.98,1.91c-0.6,0.48-2.62,3.09-2.88,3.68c-0.42,1.07-0.74,2.17-0.92,3.3
	l0,0.03c-0.17,1.62,0.1,3.26,0.76,4.75c0.83,1.88,2.02,4.58,2.07,4.68c0,0,0,0,0,0.01l22.93,44.04c0.2,0.39,0.6,0.63,1.05,0.63h35.7
	C1497.63-459.32,1498.2-460.26,1497.79-461.04"/>
<path class="st0" d="M1400.63-505.6c-0.94,0.48-1.88,0.94-2.83,1.38c-4.17,1.96-8.44,3.66-12.68,5.44
	c-1.09,0.46-2.17,0.92-3.25,1.39c-2.23,0.96-4.46,1.92-6.7,2.86c-1.95,0.82-3.91,1.59-5.86,2.41c-1.47,0.63-2.93,1.27-4.39,1.94
	c-2.22,1.02-4.4,2.11-6.63,3.12c-0.91,0.41-1.83,0.82-2.77,1.17c-2.71,1.02-4.95,2.99-6.29,5.56l-2.44,4.67l-2.93,5.7l-5.12,9.82
	c-0.19,0.37,0.08,0.81,0.49,0.81h37.11c0.21,0,0.39-0.11,0.49-0.3l5.39-10.33l12.68-24.57c0.34-0.66,0.73-1.29,1.16-1.89
	c2.91-4,6.15-7.7,10.04-10.75c0.01-0.01,0.02-0.02,0.03-0.03c0.53-0.41,0-1.24-0.59-0.92
	C1403.84-507.21,1402.1-506.29,1400.63-505.6L1400.63-505.6z"/>
<path class="st0" d="M1583.81-617.37h-34.79v17.26C1559.9-607.07,1571.59-612.86,1583.81-617.37"/>
<path class="st0" d="M1673.65-583.32v-34.05h-64.51c-20.72,3.39-40.98,10.01-60.12,19.39v14.65v26.03v16.95v16.95v26.03v34.05
	h124.63v-34.05h-90.74v-26.03h80.11v-33.89h-80.11v-26.03H1673.65z"/>
<path class="st0" d="M1854.37-480.12v-43.27v-33.89v-60.08h-33.89v60.08v33.89v52.69C1831.98-472.88,1843.31-476.05,1854.37-480.12"
	/>
<path class="st0" d="M1820.48-463.62v0.3h33.89v-12.12C1843.53-470.41,1832.15-466.46,1820.48-463.62"/>
<g>
	<polygon class="st0" points="11.14,-376.93 11.07,-390.81 4.33,-379.51 1.04,-379.51 -5.65,-390.43 -5.65,-376.93 -12.5,-376.93 
		-12.5,-403.11 -6.4,-403.11 2.8,-388 11.78,-403.11 17.88,-403.11 17.95,-376.93 	"/>
	<polygon class="st0" points="81.63,-382.65 81.63,-376.93 60.6,-376.93 60.6,-403.12 81.14,-403.12 81.14,-397.39 67.93,-397.39 
		67.93,-392.98 79.57,-392.98 79.57,-387.44 67.93,-387.44 67.93,-382.65 	"/>
	<polygon class="st0" points="148.07,-403.12 148.07,-376.93 141.97,-376.93 130.41,-390.88 130.41,-376.93 123.15,-376.93 
		123.15,-403.12 129.25,-403.12 140.81,-389.16 140.81,-403.12 	"/>
	<path class="st0" d="M190.71-403.12h12.38c2.87,0,5.41,0.54,7.63,1.61c2.22,1.07,3.94,2.59,5.16,4.56
		c1.22,1.97,1.83,4.28,1.83,6.92c0,2.64-0.61,4.95-1.83,6.92c-1.22,1.97-2.94,3.49-5.16,4.56c-2.22,1.07-4.76,1.61-7.63,1.61h-12.38
		V-403.12z M202.8-382.84c2.24,0,4.05-0.64,5.41-1.91c1.36-1.27,2.04-3.03,2.04-5.28s-0.68-4-2.04-5.27
		c-1.36-1.27-3.16-1.91-5.41-1.91h-4.68v14.36H202.8z"/>
	<path class="st0" d="M264.77-378.16c-2.21-1.17-3.94-2.79-5.2-4.86c-1.26-2.07-1.89-4.4-1.89-7c0-2.59,0.63-4.93,1.89-7
		c1.26-2.07,2.99-3.69,5.2-4.86c2.21-1.17,4.7-1.76,7.46-1.76c2.77,0,5.26,0.59,7.46,1.76c2.21,1.17,3.94,2.79,5.2,4.86
		c1.26,2.07,1.89,4.4,1.89,7c0,2.59-0.63,4.93-1.89,7c-1.26,2.07-2.99,3.69-5.2,4.86c-2.21,1.17-4.7,1.76-7.46,1.76
		C269.46-376.4,266.98-376.99,264.77-378.16 M275.82-383.47c1.07-0.62,1.92-1.5,2.54-2.64c0.62-1.13,0.93-2.44,0.93-3.91
		c0-1.47-0.31-2.77-0.93-3.91c-0.62-1.13-1.47-2.01-2.54-2.64c-1.07-0.62-2.27-0.93-3.59-0.93c-1.32,0-2.52,0.31-3.59,0.93
		c-1.07,0.62-1.92,1.5-2.54,2.64c-0.62,1.14-0.93,2.44-0.93,3.91c0,1.47,0.31,2.78,0.93,3.91c0.62,1.13,1.47,2.01,2.54,2.64
		c1.07,0.62,2.27,0.94,3.59,0.94C273.55-382.54,274.75-382.85,275.82-383.47"/>
	<polygon class="st0" points="350.01,-382.8 350.01,-376.93 326.55,-376.93 326.55,-381.57 339.76,-397.24 326.89,-397.24 
		326.89,-403.12 349.45,-403.12 349.45,-398.48 336.24,-382.8 	"/>
	<path class="st0" d="M408.22-382.02h-11.07l-2.06,5.09h-7.56l11.56-26.19h7.29l11.6,26.19h-7.71L408.22-382.02z M406.05-387.48
		l-3.37-8.38l-3.37,8.38H406.05z"/>
	<polygon class="st0" points="175.69,-662.93 170.27,-671.05 164.92,-662.93 156.46,-662.93 166,-676.17 156.88,-689.11 
		165.22,-689.11 170.46,-681.56 175.62,-689.11 183.63,-689.11 174.5,-676.47 184.22,-662.93 	"/>
	<polygon class="st0" points="240.49,-662.93 235.06,-671.05 229.72,-662.93 221.26,-662.93 230.8,-676.17 221.67,-689.11 
		230.01,-689.11 235.25,-681.56 240.41,-689.11 248.42,-689.11 239.29,-676.47 249.02,-662.93 	"/>
	<path class="st0" d="M217.57-589.8c-9.04,0.57-16.4,5.33-23.85,9.8c-2.09,1.25-3.68,2.4-6.19,0.51c-1.02-0.76-3.99-0.6-4.77,0.28
		c-3.83,4.37-7.23,9.11-10.78,13.73l1.39,1.67c4.33-2.35,8.66-4.71,13-7.07c0.29,0.47,0.58,0.93,0.87,1.4
		c-0.53,0.48-1.04,0.99-1.56,1.49c1.06,1.48,2.17,3.28,2.94,4.96c0.93-0.36,1.88-0.67,2.8-1.05c0.23,0.4,0.46,0.79,0.69,1.18
		c-3.86,2.98-7.72,5.96-12.18,9.4c1.69,0.69,2.53,1.39,3.13,1.22c5.01-1.44,10.06-2.83,14.91-4.73c1.14-0.45,2.41-2.94,2.14-4.16
		c-0.62-2.74,0.67-3.9,2.49-5.33c6.97-5.45,13.9-10.99,17.74-19.3c0.5-1.09,0.59-2.37,0.86-3.56
		C219.99-589.51,218.77-589.88,217.57-589.8 M200.96-570.55c-1.99,0.65-4.12-0.44-4.76-2.43c-0.65-1.99,0.44-4.12,2.43-4.76
		c1.98-0.65,4.12,0.44,4.76,2.43C204.03-573.33,202.94-571.2,200.96-570.55"/>
	<path class="st0" d="M-21.88-514.99L0-504.36c-12.48,23.88-37.28,40.21-65.93,40.21c-14.79,0-28.65-4.47-40.36-12.02
		c-13.87-9.09-24.65-22.8-30.2-38.82c-2.31-7.39-3.7-15.25-3.7-23.57v-2.62v-2.62c0-8.32,1.39-16.17,3.7-23.57
		c5.55-16.02,16.33-29.73,30.2-38.82c11.71-7.55,25.57-12.02,40.36-12.02c28.65,0,53.46,16.33,65.93,40.05l-21.88,10.78l-8.63,4.31
		c-0.77-1.54-1.69-2.93-2.62-4.31c-7.39-10.17-19.26-16.79-32.81-16.79c-13.4,0-25.42,6.62-32.81,16.79
		c-4.62,6.62-7.55,14.79-7.55,23.57v2.62v2.62c0,8.78,2.93,16.95,7.55,23.57c7.39,10.17,19.41,16.79,32.81,16.79
		c13.56,0,25.42-6.62,32.81-16.79c0.92-1.39,1.85-2.77,2.62-4.31L-21.88-514.99z"/>
	<polygon class="st0" points="452.31,-618.2 452.31,-558.12 452.31,-524.23 452.31,-464.15 418.42,-464.15 418.42,-524.23 
		418.42,-558.12 418.42,-618.2 	"/>
	<path class="st0" d="M180.78-561.44c-6.51,3.16-13.02,6.31-19.53,9.47c-2.27,1.1-4.56,2.21-7.03,2.7c-2.47,0.5-5.17,0.32-7.3-1.02
		c-1.87-1.18-3.11-3.1-4.3-4.97c-0.25-0.39-0.5-0.79-0.75-1.18l-13.03-24.95l-19.1-36.82l-19.1,36.82l-37.74,72.56l-4.43,8.5
		c7.26-3.24,51.7-21.05,53.15-21.55c0.7-0.24,1.39-0.48,2.09-0.72c1.59-0.55,3.19-1.1,4.64-1.95c-1.36,0.16-2.79-0.01-3.99-0.68
		c-1.2-0.67-2.12-1.89-2.23-3.26c-0.01-0.13-0.01-0.3,0.01-0.49c0.05-0.74,0.27-1.46,0.61-2.12l7-13.48l6.53,12.52
		c1,1.91,3.28,2.76,5.28,1.95l0.04-0.01C125.83-531.82,170.89-554.09,180.78-561.44"/>
	<path class="st0" d="M189.09-461.88l-22.36-42.95l-13.62-26.07c-0.29-0.56-0.99-0.79-1.56-0.51c-4.72,2.29-17.49,7.52-19.07,8.14
		c-0.05,0.02-0.11,0.05-0.16,0.08c-1.03,0.58-2.03,1.21-2.98,1.91c-0.6,0.48-2.62,3.09-2.88,3.68c-0.42,1.07-0.74,2.17-0.92,3.3
		l0,0.03c-0.17,1.62,0.1,3.26,0.76,4.75c0.83,1.88,2.02,4.58,2.07,4.68c0,0,0,0,0,0.01l22.93,44.04c0.2,0.39,0.6,0.63,1.04,0.63
		h35.7C188.93-460.15,189.5-461.09,189.09-461.88"/>
	<path class="st0" d="M91.93-506.43c-0.94,0.48-1.88,0.94-2.83,1.38c-4.16,1.96-8.44,3.66-12.68,5.44
		c-1.09,0.46-2.17,0.92-3.25,1.39c-2.23,0.96-4.46,1.92-6.7,2.86c-1.95,0.82-3.91,1.59-5.86,2.41c-1.47,0.63-2.93,1.27-4.39,1.94
		c-2.22,1.02-4.4,2.11-6.63,3.12c-0.91,0.41-1.83,0.82-2.77,1.17c-2.71,1.02-4.95,2.99-6.29,5.56l-2.44,4.67l-2.93,5.7l-5.12,9.82
		c-0.19,0.37,0.07,0.81,0.49,0.81h37.12c0.2,0,0.39-0.11,0.49-0.3l5.39-10.33l12.68-24.57c0.34-0.66,0.73-1.29,1.16-1.89
		c2.91-4,6.15-7.7,10.04-10.75c0.01-0.01,0.02-0.02,0.03-0.03c0.53-0.41,0-1.24-0.6-0.92C95.14-508.05,93.4-507.12,91.93-506.43
		L91.93-506.43z"/>
	<path class="st0" d="M275.11-618.2h-34.79v17.26C251.2-607.91,262.9-613.69,275.11-618.2"/>
	<path class="st0" d="M364.95-584.16v-34.05h-64.51c-20.72,3.39-40.98,10.01-60.12,19.39v14.65v26.03v16.95v16.95v26.03v34.05
		h124.63v-34.05h-90.74v-26.03h80.11v-33.89h-80.11v-26.03H364.95z"/>
	<path class="st0" d="M545.67-480.96v-43.27v-33.89v-60.08h-33.89v60.08v33.89v52.69C523.28-473.72,534.61-476.88,545.67-480.96"/>
	<path class="st0" d="M511.78-464.45v0.3h33.89v-12.12C534.83-471.25,523.46-467.29,511.78-464.45"/>
</g>
<g>
	<polygon class="st0" points="1394.25,-61.33 1394.21,-69.82 1390.09,-62.91 1388.08,-62.91 1383.98,-69.59 1383.98,-61.33 
		1379.79,-61.33 1379.79,-77.35 1383.52,-77.35 1389.15,-68.11 1394.64,-77.35 1398.37,-77.35 1398.42,-61.33 	"/>
	<polygon class="st0" points="1437.36,-64.83 1437.36,-61.33 1424.5,-61.33 1424.5,-77.35 1437.06,-77.35 1437.06,-73.85 
		1428.99,-73.85 1428.99,-71.15 1436.1,-71.15 1436.1,-67.76 1428.99,-67.76 1428.99,-64.83 	"/>
	<polygon class="st0" points="1478,-77.35 1478,-61.33 1474.27,-61.33 1467.2,-69.87 1467.2,-61.33 1462.76,-61.33 1462.76,-77.35 
		1466.49,-77.35 1473.56,-68.82 1473.56,-77.35 	"/>
	<path class="st0" d="M1504.08-77.35h7.58c1.75,0,3.31,0.33,4.67,0.98c1.36,0.66,2.41,1.59,3.16,2.79c0.75,1.2,1.12,2.62,1.12,4.23
		c0,1.62-0.37,3.03-1.12,4.23c-0.75,1.2-1.8,2.14-3.16,2.79c-1.36,0.66-2.92,0.98-4.67,0.98h-7.58V-77.35z M1511.48-64.95
		c1.37,0,2.48-0.39,3.31-1.17c0.83-0.78,1.25-1.85,1.25-3.23c0-1.37-0.42-2.45-1.25-3.23c-0.83-0.78-1.93-1.17-3.31-1.17h-2.86v8.79
		H1511.48z"/>
	<path class="st0" d="M1549.38-62.09c-1.35-0.72-2.41-1.71-3.18-2.98c-0.77-1.27-1.16-2.69-1.16-4.28c0-1.59,0.39-3.01,1.16-4.28
		c0.77-1.27,1.83-2.26,3.18-2.98c1.35-0.72,2.87-1.07,4.56-1.07c1.69,0,3.22,0.36,4.56,1.07c1.35,0.72,2.41,1.71,3.18,2.98
		c0.77,1.27,1.16,2.69,1.16,4.28c0,1.59-0.39,3.01-1.16,4.28c-0.77,1.27-1.83,2.26-3.18,2.98c-1.35,0.72-2.87,1.07-4.56,1.07
		C1552.25-61.01,1550.73-61.37,1549.38-62.09 M1556.14-65.34c0.66-0.38,1.18-0.92,1.56-1.61c0.38-0.7,0.57-1.49,0.57-2.39
		c0-0.9-0.19-1.7-0.57-2.39c-0.38-0.69-0.9-1.23-1.56-1.61c-0.66-0.38-1.39-0.57-2.2-0.57c-0.81,0-1.54,0.19-2.2,0.57
		c-0.66,0.38-1.17,0.92-1.56,1.61c-0.38,0.7-0.57,1.49-0.57,2.39c0,0.9,0.19,1.7,0.57,2.39c0.38,0.69,0.9,1.23,1.56,1.61
		c0.66,0.38,1.39,0.57,2.2,0.57C1554.75-64.77,1555.48-64.96,1556.14-65.34"/>
	<polygon class="st0" points="1601.51,-64.93 1601.51,-61.33 1587.17,-61.33 1587.17,-64.17 1595.24,-73.76 1587.37,-73.76 
		1587.37,-77.35 1601.17,-77.35 1601.17,-74.51 1593.09,-64.93 	"/>
	<path class="st0" d="M1637.12-64.45h-6.77l-1.26,3.11h-4.62l7.07-16.02h4.46l7.09,16.02h-4.71L1637.12-64.45z M1635.79-67.79
		l-2.06-5.13l-2.06,5.13H1635.79z"/>
	<path class="st0" d="M1520.51-191.53c-5.53,0.35-10.03,3.26-14.59,5.99c-1.28,0.76-2.25,1.47-3.79,0.32
		c-0.62-0.47-2.44-0.37-2.92,0.17c-2.34,2.67-4.42,5.57-6.59,8.4c0.28,0.34,0.57,0.68,0.85,1.02c2.65-1.44,5.3-2.88,7.95-4.32
		c0.18,0.29,0.36,0.57,0.53,0.86c-0.33,0.29-0.64,0.61-0.96,0.91c0.65,0.91,1.33,2,1.8,3.03c0.57-0.22,1.15-0.41,1.71-0.64
		c0.14,0.24,0.28,0.48,0.42,0.73c-2.36,1.82-4.72,3.64-7.45,5.75c1.03,0.42,1.55,0.85,1.91,0.74c3.07-0.88,6.15-1.73,9.12-2.9
		c0.7-0.27,1.47-1.8,1.31-2.54c-0.38-1.68,0.41-2.39,1.52-3.26c4.26-3.34,8.5-6.72,10.85-11.81c0.31-0.67,0.36-1.45,0.53-2.18
		C1521.99-191.36,1521.24-191.58,1520.51-191.53 M1510.35-179.76c-1.21,0.4-2.52-0.27-2.91-1.48c-0.4-1.21,0.27-2.52,1.48-2.91
		c1.21-0.4,2.52,0.27,2.91,1.48C1512.23-181.46,1511.56-180.15,1510.35-179.76"/>
	<path class="st0" d="M1374.06-145.78l13.38,6.5c-7.63,14.6-22.8,24.59-40.33,24.59c-9.05,0-17.53-2.73-24.69-7.35
		c-8.48-5.56-15.08-13.95-18.47-23.75c-1.41-4.52-2.26-9.33-2.26-14.42v-1.6v-1.6c0-5.09,0.85-9.89,2.26-14.42
		c3.39-9.8,9.99-18.19,18.47-23.74c7.16-4.62,15.64-7.35,24.69-7.35c17.53,0,32.69,9.99,40.33,24.5l-13.38,6.6l-5.28,2.64
		c-0.47-0.94-1.04-1.79-1.6-2.64c-4.52-6.22-11.78-10.27-20.07-10.27c-8.2,0-15.55,4.05-20.07,10.27
		c-2.83,4.05-4.62,9.04-4.62,14.42v1.6v1.6c0,5.37,1.79,10.36,4.62,14.42c4.52,6.22,11.87,10.27,20.07,10.27
		c8.29,0,15.55-4.05,20.07-10.27c0.56-0.85,1.13-1.69,1.6-2.64L1374.06-145.78z"/>
	<polygon class="st0" points="1664.09,-208.9 1664.09,-172.16 1664.09,-151.43 1664.09,-114.68 1643.36,-114.68 1643.36,-151.43 
		1643.36,-172.16 1643.36,-208.9 	"/>
	<path class="st0" d="M1498.01-174.19c-3.98,1.93-7.96,3.86-11.95,5.79c-1.39,0.67-2.79,1.35-4.3,1.65c-1.51,0.3-3.16,0.2-4.47-0.62
		c-1.14-0.72-1.9-1.9-2.63-3.04c-0.15-0.24-0.31-0.48-0.46-0.72l-7.97-15.26l-11.68-22.52l-11.68,22.52l-23.08,44.38l-2.71,5.2
		c4.44-1.98,31.62-12.87,32.51-13.18l1.28-0.44c0.97-0.33,1.95-0.67,2.84-1.19c-0.83,0.1-1.71,0-2.44-0.41
		c-0.73-0.41-1.3-1.16-1.36-1.99c-0.01-0.08,0-0.19,0.01-0.3c0.03-0.45,0.16-0.89,0.37-1.29l4.28-8.25l3.99,7.66
		c0.61,1.17,2.01,1.68,3.23,1.2c0.01,0,0.01-0.01,0.02-0.01C1464.4-156.07,1491.96-169.69,1498.01-174.19"/>
	<path class="st0" d="M1503.09-113.29l-13.68-26.27l-8.33-15.94c-0.18-0.35-0.6-0.49-0.95-0.32c-2.89,1.4-10.69,4.6-11.66,4.98
		c-0.03,0.01-0.07,0.03-0.1,0.05c-0.63,0.36-1.24,0.74-1.82,1.17c-0.36,0.29-1.6,1.89-1.76,2.25c-0.26,0.65-0.45,1.33-0.56,2.02
		c0,0.01,0,0.01,0,0.02c-0.11,0.99,0.06,1.99,0.46,2.91c0.51,1.15,1.24,2.8,1.27,2.87c0,0,0,0,0,0l14.02,26.94
		c0.13,0.24,0.37,0.39,0.64,0.39h21.83C1502.99-112.23,1503.34-112.81,1503.09-113.29"/>
	<path class="st0" d="M1443.66-140.54c-0.57,0.29-1.15,0.57-1.73,0.85c-2.55,1.2-5.16,2.24-7.75,3.33
		c-0.66,0.28-1.33,0.56-1.99,0.85c-1.36,0.59-2.73,1.18-4.1,1.75c-1.19,0.5-2.39,0.98-3.59,1.47c-0.9,0.38-1.79,0.78-2.68,1.19
		c-1.36,0.62-2.69,1.29-4.05,1.91c-0.55,0.25-1.12,0.5-1.69,0.72c-1.66,0.63-3.03,1.83-3.85,3.4l-1.49,2.86l-1.79,3.49l-3.13,6.01
		c-0.12,0.23,0.05,0.49,0.3,0.49h22.7c0.13,0,0.24-0.07,0.3-0.18l3.3-6.32l7.75-15.03c0.21-0.4,0.45-0.79,0.71-1.15
		c1.78-2.44,3.76-4.71,6.14-6.57c0.01-0.01,0.01-0.01,0.02-0.02c0.32-0.25,0-0.76-0.36-0.57
		C1445.63-141.53,1444.56-140.96,1443.66-140.54L1443.66-140.54z"/>
	<path class="st0" d="M1555.7-208.9h-21.28v10.56C1541.08-202.61,1548.23-206.15,1555.7-208.9"/>
	<path class="st0" d="M1610.65-188.08v-20.82h-39.46c-12.68,2.07-25.06,6.12-36.77,11.86v8.96v15.92v10.37v10.36v15.92v20.82h76.23
		v-20.82h-55.5v-15.92h49v-20.73h-49v-15.92H1610.65z"/>
	<path class="st0" d="M1721.19-124.96v-26.47v-20.73v-36.75h-20.73v36.75v20.73v32.23C1707.49-120.53,1714.42-122.47,1721.19-124.96
		"/>
	<path class="st0" d="M1700.46-114.87v0.19h20.73v-7.41C1714.56-119.02,1707.6-116.6,1700.46-114.87"/>
</g>
<g>
	<polygon class="st0" points="2699.96,-84.1 2699.92,-92.59 2695.8,-85.68 2693.79,-85.68 2689.69,-92.36 2689.69,-84.1 
		2685.5,-84.1 2685.5,-100.12 2689.23,-100.12 2694.86,-90.88 2700.35,-100.12 2704.08,-100.12 2704.13,-84.1 	"/>
	<polygon class="st0" points="2743.07,-87.6 2743.07,-84.1 2730.21,-84.1 2730.21,-100.12 2742.78,-100.12 2742.78,-96.62 
		2734.7,-96.62 2734.7,-93.92 2741.81,-93.92 2741.81,-90.53 2734.7,-90.53 2734.7,-87.6 	"/>
	<polygon class="st0" points="2783.71,-100.12 2783.71,-84.1 2779.98,-84.1 2772.91,-92.64 2772.91,-84.1 2768.47,-84.1 
		2768.47,-100.12 2772.2,-100.12 2779.27,-91.58 2779.27,-100.12 	"/>
	<path class="st0" d="M2809.79-100.12h7.57c1.75,0,3.31,0.33,4.67,0.98c1.36,0.66,2.41,1.59,3.16,2.79c0.75,1.2,1.12,2.62,1.12,4.23
		c0,1.62-0.37,3.03-1.12,4.23c-0.75,1.2-1.8,2.14-3.16,2.79c-1.36,0.66-2.92,0.98-4.67,0.98h-7.57V-100.12z M2817.19-87.72
		c1.37,0,2.48-0.39,3.31-1.17c0.83-0.78,1.25-1.85,1.25-3.23c0-1.37-0.42-2.45-1.25-3.23c-0.83-0.78-1.93-1.17-3.31-1.17h-2.86v8.79
		H2817.19z"/>
	<path class="st0" d="M2855.09-84.86c-1.35-0.72-2.41-1.71-3.18-2.98c-0.77-1.27-1.16-2.69-1.16-4.28c0-1.59,0.39-3.01,1.16-4.28
		c0.77-1.27,1.83-2.26,3.18-2.98c1.35-0.72,2.87-1.07,4.56-1.07c1.69,0,3.22,0.36,4.56,1.07c1.35,0.72,2.41,1.71,3.18,2.98
		c0.77,1.27,1.16,2.69,1.16,4.28c0,1.59-0.39,3.01-1.16,4.28c-0.77,1.27-1.83,2.26-3.18,2.98c-1.35,0.72-2.87,1.07-4.56,1.07
		C2857.96-83.78,2856.44-84.14,2855.09-84.86 M2861.85-88.11c0.66-0.38,1.18-0.92,1.56-1.61c0.38-0.7,0.57-1.49,0.57-2.39
		c0-0.9-0.19-1.7-0.57-2.39c-0.38-0.69-0.9-1.23-1.56-1.61c-0.66-0.38-1.39-0.57-2.2-0.57c-0.81,0-1.54,0.19-2.2,0.57
		c-0.66,0.38-1.17,0.92-1.56,1.61c-0.38,0.7-0.57,1.49-0.57,2.39c0,0.9,0.19,1.7,0.57,2.39c0.38,0.69,0.9,1.23,1.56,1.61
		c0.66,0.38,1.39,0.57,2.2,0.57C2860.46-87.54,2861.19-87.73,2861.85-88.11"/>
	<polygon class="st0" points="2907.22,-87.69 2907.22,-84.1 2892.88,-84.1 2892.88,-86.94 2900.95,-96.53 2893.08,-96.53 
		2893.08,-100.12 2906.88,-100.12 2906.88,-97.28 2898.8,-87.69 	"/>
	<path class="st0" d="M2942.83-87.21h-6.77l-1.26,3.11h-4.62l7.07-16.02h4.46l7.09,16.02h-4.71L2942.83-87.21z M2941.5-90.55
		l-2.06-5.13l-2.06,5.13H2941.5z"/>
	<path class="st0" d="M2826.22-214.3c-5.53,0.35-10.03,3.26-14.59,5.99c-1.28,0.76-2.25,1.47-3.79,0.32
		c-0.62-0.47-2.44-0.37-2.92,0.17c-2.34,2.67-4.42,5.57-6.59,8.4c0.28,0.34,0.57,0.68,0.85,1.02c2.65-1.44,5.3-2.88,7.95-4.32
		c0.18,0.29,0.36,0.57,0.53,0.86c-0.33,0.29-0.64,0.61-0.96,0.91c0.65,0.91,1.33,2,1.8,3.03c0.57-0.22,1.15-0.41,1.71-0.64
		c0.14,0.24,0.28,0.48,0.42,0.73c-2.36,1.82-4.72,3.64-7.45,5.75c1.03,0.42,1.55,0.85,1.91,0.74c3.07-0.88,6.15-1.73,9.12-2.9
		c0.7-0.27,1.47-1.8,1.31-2.54c-0.38-1.68,0.41-2.39,1.52-3.26c4.26-3.34,8.5-6.72,10.85-11.81c0.31-0.67,0.36-1.45,0.53-2.18
		C2827.7-214.12,2826.95-214.35,2826.22-214.3 M2816.06-202.53c-1.21,0.4-2.52-0.27-2.91-1.48c-0.4-1.21,0.27-2.52,1.48-2.91
		c1.21-0.4,2.52,0.27,2.91,1.48C2817.94-204.23,2817.27-202.92,2816.06-202.53"/>
	<path class="st0" d="M2679.77-168.54l13.38,6.5c-7.63,14.6-22.8,24.59-40.33,24.59c-9.05,0-17.53-2.73-24.69-7.35
		c-8.48-5.56-15.08-13.95-18.47-23.75c-1.41-4.52-2.26-9.33-2.26-14.42v-1.6v-1.6c0-5.09,0.85-9.89,2.26-14.42
		c3.39-9.8,9.99-18.19,18.47-23.74c7.16-4.62,15.64-7.35,24.69-7.35c17.53,0,32.69,9.99,40.33,24.5l-13.38,6.6l-5.28,2.64
		c-0.47-0.94-1.04-1.79-1.6-2.64c-4.52-6.22-11.78-10.27-20.07-10.27c-8.2,0-15.55,4.05-20.07,10.27
		c-2.83,4.05-4.62,9.04-4.62,14.42v1.6v1.6c0,5.37,1.79,10.36,4.62,14.42c4.52,6.22,11.87,10.27,20.07,10.27
		c8.29,0,15.55-4.05,20.07-10.27c0.56-0.85,1.13-1.69,1.6-2.64L2679.77-168.54z"/>
	<polygon class="st0" points="2969.8,-231.67 2969.8,-194.93 2969.8,-174.2 2969.8,-137.45 2949.07,-137.45 2949.07,-174.2 
		2949.07,-194.93 2949.07,-231.67 	"/>
	<path class="st0" d="M2803.72-196.95c-3.98,1.93-7.96,3.86-11.95,5.79c-1.39,0.67-2.79,1.35-4.3,1.65c-1.51,0.3-3.16,0.2-4.47-0.62
		c-1.14-0.72-1.9-1.9-2.63-3.04c-0.15-0.24-0.3-0.48-0.46-0.72l-7.97-15.26l-11.68-22.52l-11.68,22.52l-23.08,44.38l-2.71,5.2
		c4.44-1.98,31.62-12.87,32.51-13.18l1.28-0.44c0.97-0.33,1.95-0.67,2.84-1.19c-0.83,0.1-1.71,0-2.44-0.41
		c-0.73-0.41-1.3-1.16-1.36-1.99c-0.01-0.08,0-0.19,0.01-0.3c0.03-0.45,0.16-0.89,0.37-1.29l4.28-8.25l3.99,7.66
		c0.61,1.17,2,1.68,3.23,1.2c0.01,0,0.01-0.01,0.02-0.01C2770.11-178.84,2797.67-192.46,2803.72-196.95"/>
	<path class="st0" d="M2808.8-136.06l-13.68-26.27l-8.33-15.94c-0.18-0.35-0.6-0.49-0.95-0.32c-2.89,1.4-10.69,4.6-11.66,4.98
		c-0.03,0.01-0.07,0.03-0.1,0.05c-0.63,0.36-1.24,0.74-1.82,1.17c-0.36,0.29-1.6,1.89-1.76,2.25c-0.26,0.65-0.45,1.33-0.56,2.02
		c0,0.01,0,0.01,0,0.02c-0.11,0.99,0.06,1.99,0.46,2.91c0.51,1.15,1.24,2.8,1.27,2.87c0,0,0,0,0,0l14.02,26.93
		c0.13,0.24,0.37,0.39,0.64,0.39h21.83C2808.7-135,2809.05-135.58,2808.8-136.06"/>
	<path class="st0" d="M2749.37-163.31c-0.57,0.29-1.15,0.57-1.73,0.85c-2.55,1.2-5.16,2.24-7.75,3.33
		c-0.66,0.28-1.33,0.56-1.99,0.85c-1.36,0.59-2.73,1.18-4.1,1.75c-1.19,0.5-2.39,0.98-3.59,1.47c-0.9,0.38-1.79,0.78-2.68,1.19
		c-1.36,0.62-2.69,1.29-4.05,1.91c-0.55,0.25-1.12,0.5-1.69,0.72c-1.66,0.63-3.03,1.83-3.85,3.4l-1.49,2.86l-1.79,3.49l-3.13,6.01
		c-0.12,0.23,0.05,0.49,0.3,0.49h22.7c0.13,0,0.24-0.07,0.3-0.18l3.3-6.32l7.75-15.03c0.21-0.4,0.45-0.79,0.71-1.15
		c1.78-2.44,3.76-4.71,6.14-6.57c0.01-0.01,0.01-0.01,0.02-0.02c0.32-0.25,0-0.76-0.36-0.57
		C2751.34-164.3,2750.27-163.73,2749.37-163.31L2749.37-163.31z"/>
	<path class="st0" d="M2861.42-231.67h-21.28v10.56C2846.79-225.38,2853.94-228.91,2861.42-231.67"/>
	<path class="st0" d="M2916.36-210.85v-20.82h-39.46c-12.68,2.07-25.06,6.12-36.77,11.86v8.96v15.92v10.37v10.36v15.92v20.82h76.23
		v-20.82h-55.5v-15.92h49v-20.73h-49v-15.92H2916.36z"/>
	<path class="st0" d="M3026.9-147.73v-26.47v-20.73v-36.75h-20.73v36.75v20.73v32.23C3013.2-143.3,3020.13-145.24,3026.9-147.73"/>
	<path class="st0" d="M3006.17-137.63v0.19h20.73v-7.41C3020.27-141.79,3013.31-139.37,3006.17-137.63"/>
</g>
<path class="st0" d="M1516.83,89.65c-3.29,0.21-5.97,1.94-8.67,3.56c-0.76,0.46-1.34,0.87-2.25,0.19c-0.37-0.28-1.45-0.22-1.73,0.1
	c-1.39,1.59-2.63,3.32-3.92,4.99c0.17,0.2,0.34,0.4,0.51,0.61c1.58-0.86,3.15-1.71,4.73-2.57c0.11,0.17,0.21,0.34,0.32,0.51
	c-0.19,0.17-0.38,0.36-0.57,0.54c0.39,0.54,0.79,1.19,1.07,1.8c0.34-0.13,0.68-0.25,1.02-0.38l0.25,0.43
	c-1.4,1.08-2.81,2.17-4.43,3.42c0.61,0.25,0.92,0.51,1.14,0.44c1.82-0.52,3.66-1.03,5.42-1.72c0.42-0.16,0.88-1.07,0.78-1.51
	c-0.22-1,0.24-1.42,0.91-1.94c2.53-1.98,5.05-4,6.45-7.02c0.18-0.4,0.21-0.86,0.31-1.29C1517.71,89.76,1517.27,89.63,1516.83,89.65
	 M1510.79,96.65c-0.72,0.24-1.5-0.16-1.73-0.88c-0.23-0.72,0.16-1.5,0.88-1.73c0.72-0.24,1.5,0.16,1.73,0.88
	C1511.91,95.64,1511.51,96.42,1510.79,96.65"/>
<path class="st0" d="M1429.76,116.86l7.95,3.87c-4.54,8.68-13.56,14.62-23.98,14.62c-5.38,0-10.42-1.62-14.68-4.37
	c-5.04-3.3-8.96-8.29-10.98-14.12c-0.84-2.69-1.34-5.55-1.34-8.57v-0.95v-0.95c0-3.03,0.5-5.88,1.34-8.57
	c2.02-5.83,5.94-10.81,10.98-14.12c4.26-2.74,9.3-4.37,14.68-4.37c10.42,0,19.44,5.94,23.98,14.57l-7.95,3.92l-3.14,1.57
	c-0.28-0.56-0.62-1.06-0.95-1.57c-2.69-3.7-7-6.11-11.93-6.11c-4.88,0-9.24,2.41-11.93,6.11c-1.68,2.41-2.74,5.38-2.74,8.57v0.95
	v0.95c0,3.19,1.06,6.16,2.74,8.57c2.69,3.7,7.06,6.11,11.93,6.11c4.93,0,9.24-2.41,11.93-6.11c0.34-0.5,0.67-1.01,0.95-1.57
	L1429.76,116.86z"/>
<polygon class="st0" points="1602.2,79.33 1602.2,101.17 1602.2,113.5 1602.2,135.35 1589.87,135.35 1589.87,113.5 1589.87,101.17 
	1589.87,79.33 "/>
<path class="st0" d="M1503.45,99.97c-2.37,1.15-4.73,2.3-7.1,3.44c-0.82,0.4-1.66,0.8-2.56,0.98c-0.9,0.18-1.88,0.12-2.65-0.37
	c-0.68-0.43-1.13-1.13-1.56-1.81c-0.09-0.14-0.18-0.29-0.27-0.43l-4.74-9.07l-6.95-13.39l-6.95,13.39l-13.72,26.39l-1.61,3.09
	c2.64-1.18,18.8-7.66,19.33-7.84c0.25-0.09,0.51-0.17,0.76-0.26c0.58-0.2,1.16-0.4,1.69-0.71c-0.49,0.06-1.02,0-1.45-0.24
	c-0.43-0.24-0.77-0.69-0.81-1.18c0-0.05,0-0.11,0-0.18c0.02-0.27,0.1-0.53,0.22-0.77l2.55-4.9l2.37,4.55c0.36,0.7,1.19,1,1.92,0.71
	c0,0,0.01,0,0.01,0C1483.47,110.74,1499.86,102.64,1503.45,99.97"/>
<path class="st0" d="M1506.48,136.18l-8.13-15.62l-4.95-9.48c-0.11-0.21-0.36-0.29-0.57-0.19c-1.72,0.83-6.36,2.73-6.93,2.96
	c-0.02,0.01-0.04,0.02-0.06,0.03c-0.38,0.21-0.74,0.44-1.08,0.7c-0.22,0.17-0.95,1.12-1.05,1.34c-0.15,0.39-0.27,0.79-0.34,1.2
	c0,0,0,0.01,0,0.01c-0.06,0.59,0.03,1.19,0.27,1.73c0.3,0.68,0.74,1.67,0.75,1.7c0,0,0,0,0,0l8.34,16.01
	c0.07,0.14,0.22,0.23,0.38,0.23h12.98C1506.42,136.8,1506.62,136.46,1506.48,136.18"/>
<path class="st0" d="M1471.14,119.97c-0.34,0.17-0.68,0.34-1.03,0.5c-1.52,0.71-3.07,1.33-4.61,1.98c-0.39,0.17-0.79,0.34-1.18,0.5
	c-0.81,0.35-1.62,0.7-2.44,1.04c-0.71,0.3-1.42,0.58-2.13,0.88c-0.54,0.23-1.07,0.46-1.59,0.71c-0.81,0.37-1.6,0.77-2.41,1.14
	c-0.33,0.15-0.66,0.3-1.01,0.43c-0.99,0.37-1.8,1.09-2.29,2.02l-0.89,1.7l-1.07,2.07l-1.86,3.57c-0.07,0.13,0.03,0.29,0.18,0.29
	h13.5c0.07,0,0.14-0.04,0.18-0.11l1.96-3.76l4.61-8.94c0.12-0.24,0.27-0.47,0.42-0.69c1.06-1.45,2.24-2.8,3.65-3.91
	c0,0,0.01-0.01,0.01-0.01c0.19-0.15,0-0.45-0.22-0.34C1472.31,119.38,1471.68,119.72,1471.14,119.97L1471.14,119.97z"/>
<path class="st0" d="M1537.76,79.33h-12.65v6.28C1529.06,83.07,1533.32,80.97,1537.76,79.33"/>
<path class="st0" d="M1570.43,91.71V79.33h-23.46c-7.54,1.23-14.9,3.64-21.86,7.05v5.33v9.47v6.16v6.16v9.47v12.38h45.32v-12.38h-33
	v-9.47h29.13v-12.32h-29.13v-9.47H1570.43z"/>
<path class="st0" d="M1636.15,129.24V113.5v-12.32V79.33h-12.32v21.85v12.32v19.16C1628,131.87,1632.13,130.72,1636.15,129.24"/>
<path class="st0" d="M1623.82,135.24v0.11h12.32v-4.4C1632.21,132.77,1628.07,134.21,1623.82,135.24"/>
<g>
	<path class="st0" d="M208.42,103.03c-3.29,0.21-5.97,1.94-8.67,3.56c-0.76,0.46-1.34,0.87-2.25,0.19c-0.37-0.28-1.45-0.22-1.73,0.1
		c-1.39,1.59-2.63,3.32-3.92,4.99c0.17,0.2,0.34,0.4,0.51,0.61c1.58-0.86,3.15-1.71,4.73-2.57c0.11,0.17,0.21,0.34,0.32,0.51
		c-0.19,0.17-0.38,0.36-0.57,0.54c0.39,0.54,0.79,1.19,1.07,1.8c0.34-0.13,0.68-0.25,1.02-0.38l0.25,0.43
		c-1.4,1.08-2.81,2.17-4.43,3.42c0.61,0.25,0.92,0.51,1.14,0.44c1.82-0.52,3.66-1.03,5.42-1.72c0.42-0.16,0.88-1.07,0.78-1.51
		c-0.22-1,0.24-1.42,0.91-1.94c2.53-1.98,5.05-4,6.45-7.02c0.18-0.4,0.21-0.86,0.31-1.29C209.3,103.14,208.85,103.01,208.42,103.03
		 M202.38,110.03c-0.72,0.24-1.5-0.16-1.73-0.88c-0.23-0.72,0.16-1.5,0.88-1.73c0.72-0.24,1.5,0.16,1.73,0.88
		C203.49,109.02,203.1,109.8,202.38,110.03"/>
	<path class="st0" d="M121.34,130.24l7.95,3.87c-4.54,8.68-13.56,14.62-23.98,14.62c-5.38,0-10.42-1.62-14.68-4.37
		c-5.04-3.3-8.96-8.29-10.98-14.12c-0.84-2.69-1.34-5.55-1.34-8.57v-0.95v-0.95c0-3.03,0.5-5.88,1.34-8.57
		c2.02-5.83,5.94-10.81,10.98-14.12c4.26-2.74,9.3-4.37,14.68-4.37c10.42,0,19.44,5.94,23.98,14.57l-7.95,3.92l-3.14,1.57
		c-0.28-0.56-0.62-1.06-0.95-1.57c-2.69-3.7-7-6.11-11.93-6.11c-4.88,0-9.24,2.41-11.93,6.11c-1.68,2.41-2.74,5.38-2.74,8.57v0.95
		v0.95c0,3.19,1.06,6.16,2.74,8.57c2.69,3.7,7.06,6.11,11.93,6.11c4.93,0,9.24-2.41,11.93-6.11c0.34-0.5,0.67-1.01,0.95-1.57
		L121.34,130.24z"/>
	<polygon class="st0" points="293.78,92.71 293.78,114.55 293.78,126.88 293.78,148.73 281.46,148.73 281.46,126.88 281.46,114.55 
		281.46,92.71 	"/>
	<path class="st0" d="M195.04,113.35c-2.37,1.15-4.74,2.3-7.1,3.44c-0.82,0.4-1.66,0.8-2.56,0.98c-0.9,0.18-1.88,0.12-2.65-0.37
		c-0.68-0.43-1.13-1.13-1.56-1.81c-0.09-0.14-0.18-0.29-0.27-0.43l-4.74-9.07L169.2,92.7l-6.95,13.39l-13.72,26.39l-1.61,3.09
		c2.64-1.18,18.8-7.66,19.33-7.84c0.25-0.09,0.51-0.17,0.76-0.26c0.58-0.2,1.16-0.4,1.69-0.71c-0.5,0.06-1.02,0-1.45-0.24
		c-0.43-0.24-0.77-0.69-0.81-1.18c0-0.05,0-0.11,0-0.18c0.02-0.27,0.1-0.53,0.22-0.77l2.55-4.9l2.37,4.55c0.36,0.7,1.19,1,1.92,0.71
		c0,0,0.01,0,0.01,0C175.05,124.12,191.44,116.02,195.04,113.35"/>
	<path class="st0" d="M198.06,149.55l-8.13-15.62l-4.95-9.48c-0.11-0.21-0.36-0.29-0.57-0.19c-1.72,0.83-6.36,2.73-6.93,2.96
		c-0.02,0.01-0.04,0.02-0.06,0.03c-0.38,0.21-0.74,0.44-1.08,0.7c-0.22,0.17-0.95,1.12-1.05,1.34c-0.15,0.39-0.27,0.79-0.34,1.2
		c0,0,0,0.01,0,0.01c-0.06,0.59,0.04,1.19,0.27,1.73c0.3,0.68,0.74,1.67,0.75,1.7c0,0,0,0,0,0l8.34,16.01
		c0.07,0.14,0.22,0.23,0.38,0.23h12.98C198,150.18,198.21,149.84,198.06,149.55"/>
	<path class="st0" d="M162.73,133.35c-0.34,0.17-0.68,0.34-1.03,0.5c-1.51,0.71-3.07,1.33-4.61,1.98c-0.39,0.17-0.79,0.34-1.18,0.5
		c-0.81,0.35-1.62,0.7-2.44,1.04c-0.71,0.3-1.42,0.58-2.13,0.88c-0.54,0.23-1.07,0.46-1.6,0.71c-0.81,0.37-1.6,0.77-2.41,1.13
		c-0.33,0.15-0.66,0.3-1,0.43c-0.99,0.37-1.8,1.09-2.29,2.02l-0.89,1.7l-1.07,2.07l-1.86,3.57c-0.07,0.13,0.03,0.29,0.18,0.29h13.5
		c0.08,0,0.14-0.04,0.18-0.11l1.96-3.76l4.61-8.94c0.12-0.24,0.27-0.47,0.42-0.69c1.06-1.45,2.24-2.8,3.65-3.91
		c0,0,0.01-0.01,0.01-0.01c0.19-0.15,0-0.45-0.22-0.34C163.9,132.76,163.26,133.1,162.73,133.35L162.73,133.35z"/>
	<path class="st0" d="M229.34,92.71h-12.65v6.28C220.65,96.45,224.9,94.35,229.34,92.71"/>
	<path class="st0" d="M262.01,105.09V92.71h-23.46c-7.54,1.23-14.9,3.64-21.86,7.05v5.33v9.47v6.16v6.16v9.47v12.38h45.32v-12.38
		h-33v-9.47h29.13v-12.32h-29.13v-9.47H262.01z"/>
	<path class="st0" d="M327.73,142.62v-15.74v-12.32V92.71h-12.32v21.85v12.32v19.16C319.59,145.25,323.71,144.1,327.73,142.62"/>
	<path class="st0" d="M315.41,148.62v0.11h12.32v-4.4C323.79,146.15,319.65,147.59,315.41,148.62"/>
</g>
<rect x="971.44" y="-1756.28" class="st2" width="1080" height="2001.09"/>
</svg>
