<?xml version="1.0" encoding="utf-8"?>
<!-- Generator: Adobe Illustrator 24.2.0, SVG Export Plug-In . SVG Version: 6.00 Build 0)  -->
<svg version="1.1" id="Capa_1" xmlns="http://www.w3.org/2000/svg" xmlns:xlink="http://www.w3.org/1999/xlink" x="0px" y="0px"
	 viewBox="0 0 1080 532.88" style="enable-background:new 0 0 1080 532.88;" xml:space="preserve">
<style type="text/css">
	.st0{fill:#151518;}
	.st1{fill:#FFFFFF;}
	.st2{fill:none;}
</style>
<g>
	<rect x="1308.7" y="-532.88" class="st0" width="1080" height="532.88"/>
	<g>
		<g>
			<polygon class="st1" points="1657.1,-126.87 1657.03,-140.75 1650.29,-129.45 1647,-129.45 1640.3,-140.38 1640.3,-126.87 
				1633.46,-126.87 1633.46,-153.06 1639.56,-153.06 1648.76,-137.95 1657.74,-153.06 1663.83,-153.06 1663.91,-126.87 			"/>
			<polygon class="st1" points="1727.58,-132.6 1727.58,-126.87 1706.56,-126.87 1706.56,-153.06 1727.1,-153.06 1727.1,-147.34 
				1713.89,-147.34 1713.89,-142.92 1725.52,-142.92 1725.52,-137.38 1713.89,-137.38 1713.89,-132.6 			"/>
			<polygon class="st1" points="1794.02,-153.06 1794.02,-126.87 1787.92,-126.87 1776.36,-140.83 1776.36,-126.87 1769.11,-126.87 
				1769.11,-153.06 1775.21,-153.06 1786.76,-139.11 1786.76,-153.06 			"/>
			<path class="st1" d="M1836.67-153.06h12.38c2.87,0,5.41,0.54,7.63,1.61c2.22,1.07,3.94,2.59,5.16,4.56
				c1.22,1.97,1.83,4.28,1.83,6.92c0,2.64-0.61,4.95-1.83,6.92c-1.22,1.97-2.94,3.49-5.16,4.56c-2.22,1.07-4.76,1.61-7.63,1.61
				h-12.38V-153.06z M1848.75-132.78c2.24,0,4.05-0.64,5.41-1.91c1.36-1.27,2.04-3.03,2.04-5.28s-0.68-4-2.04-5.27
				c-1.36-1.27-3.16-1.91-5.41-1.91h-4.68v14.36H1848.75z"/>
			<path class="st1" d="M1910.72-128.11c-2.21-1.17-3.94-2.79-5.2-4.86c-1.26-2.07-1.89-4.4-1.89-7c0-2.59,0.63-4.93,1.89-7
				c1.26-2.07,2.99-3.69,5.2-4.86c2.21-1.17,4.7-1.76,7.46-1.76c2.77,0,5.26,0.59,7.46,1.76c2.21,1.17,3.94,2.79,5.2,4.86
				c1.26,2.07,1.89,4.4,1.89,7c0,2.59-0.63,4.93-1.89,7c-1.26,2.07-2.99,3.69-5.2,4.86s-4.7,1.76-7.46,1.76
				C1915.42-126.35,1912.93-126.93,1910.72-128.11 M1921.78-133.42c1.07-0.62,1.92-1.5,2.54-2.64c0.62-1.13,0.93-2.44,0.93-3.91
				c0-1.47-0.31-2.77-0.93-3.91c-0.62-1.14-1.47-2.02-2.54-2.64c-1.07-0.62-2.27-0.93-3.59-0.93c-1.32,0-2.52,0.31-3.59,0.93
				c-1.07,0.62-1.92,1.5-2.54,2.64c-0.62,1.14-0.94,2.44-0.94,3.91c0,1.47,0.31,2.78,0.94,3.91c0.62,1.14,1.47,2.02,2.54,2.64
				c1.07,0.62,2.27,0.94,3.59,0.94C1919.51-132.48,1920.71-132.8,1921.78-133.42"/>
			<polygon class="st1" points="1995.96,-132.75 1995.96,-126.87 1972.51,-126.87 1972.51,-131.51 1985.71,-147.19 1972.85,-147.19 
				1972.85,-153.06 1995.4,-153.06 1995.4,-148.42 1982.2,-132.75 			"/>
			<path class="st1" d="M2054.17-131.96h-11.07l-2.06,5.09h-7.56l11.56-26.19h7.3l11.6,26.19h-7.71L2054.17-131.96z M2052-137.42
				l-3.37-8.38l-3.37,8.38H2052z"/>
		</g>
		<g>
			<polygon class="st1" points="1822.65,-412.87 1817.22,-420.99 1811.88,-412.87 1803.42,-412.87 1812.96,-426.11 1803.83,-439.06 
				1812.17,-439.06 1817.41,-431.5 1822.58,-439.06 1830.58,-439.06 1821.45,-426.41 1831.18,-412.87 			"/>
			<polygon class="st1" points="1887.45,-412.87 1882.02,-420.99 1876.67,-412.87 1868.22,-412.87 1877.76,-426.11 1868.63,-439.06 
				1876.97,-439.06 1882.21,-431.5 1887.37,-439.06 1895.38,-439.06 1886.25,-426.41 1895.97,-412.87 			"/>
			<path class="st1" d="M1864.53-339.74c-9.04,0.57-16.4,5.33-23.85,9.8c-2.08,1.25-3.68,2.4-6.19,0.52
				c-1.02-0.76-3.99-0.6-4.77,0.28c-3.83,4.36-7.23,9.11-10.78,13.73c0.46,0.56,0.93,1.11,1.39,1.67c4.33-2.35,8.67-4.71,13-7.07
				c0.29,0.47,0.58,0.93,0.87,1.4c-0.53,0.48-1.04,0.99-1.56,1.49c1.06,1.48,2.17,3.28,2.94,4.96c0.93-0.36,1.88-0.67,2.8-1.05
				c0.23,0.39,0.46,0.79,0.69,1.18c-3.86,2.98-7.72,5.96-12.18,9.4c1.69,0.69,2.53,1.39,3.13,1.22c5.01-1.44,10.06-2.83,14.91-4.73
				c1.14-0.45,2.41-2.94,2.14-4.16c-0.62-2.74,0.67-3.9,2.49-5.32c6.97-5.45,13.9-10.99,17.74-19.31c0.5-1.09,0.59-2.37,0.86-3.56
				C1866.95-339.46,1865.73-339.82,1864.53-339.74 M1847.91-320.5c-1.98,0.65-4.12-0.44-4.76-2.43c-0.65-1.99,0.44-4.12,2.43-4.76
				c1.98-0.65,4.12,0.44,4.76,2.43C1850.99-323.27,1849.9-321.14,1847.91-320.5"/>
			<path class="st1" d="M1625.08-264.93l21.88,10.63c-12.48,23.88-37.28,40.21-65.94,40.21c-14.79,0-28.65-4.47-40.36-12.02
				c-13.86-9.09-24.65-22.8-30.19-38.82c-2.31-7.39-3.7-15.25-3.7-23.57v-2.62v-2.62c0-8.32,1.39-16.17,3.7-23.57
				c5.55-16.02,16.33-29.73,30.19-38.82c11.71-7.55,25.57-12.02,40.36-12.02c28.66,0,53.46,16.33,65.94,40.05l-21.88,10.78
				l-8.63,4.31c-0.77-1.54-1.69-2.93-2.62-4.31c-7.4-10.17-19.26-16.79-32.81-16.79c-13.4,0-25.42,6.62-32.81,16.79
				c-4.62,6.62-7.55,14.79-7.55,23.57v2.62v2.62c0,8.78,2.93,16.95,7.55,23.57c7.39,10.17,19.41,16.79,32.81,16.79
				c13.56,0,25.42-6.62,32.81-16.79c0.92-1.39,1.85-2.77,2.62-4.31L1625.08-264.93z"/>
			<polygon class="st1" points="2099.27,-368.15 2099.27,-308.07 2099.27,-274.17 2099.27,-214.09 2065.38,-214.09 2065.38,-274.17 
				2065.38,-308.07 2065.38,-368.15 			"/>
			<path class="st1" d="M1827.73-311.38c-6.51,3.16-13.02,6.31-19.53,9.47c-2.27,1.1-4.56,2.21-7.03,2.7
				c-2.47,0.5-5.17,0.32-7.3-1.02c-1.87-1.18-3.11-3.1-4.3-4.97c-0.25-0.39-0.5-0.79-0.75-1.18l-13.03-24.95l-19.1-36.82
				l-19.1,36.82l-37.74,72.56l-4.43,8.5c7.26-3.24,51.7-21.05,53.15-21.55c0.69-0.24,1.39-0.48,2.08-0.72
				c1.59-0.55,3.19-1.1,4.65-1.95c-1.36,0.16-2.79-0.01-3.99-0.68c-1.2-0.67-2.12-1.89-2.23-3.26c-0.01-0.13-0.01-0.31,0.01-0.49
				c0.06-0.74,0.27-1.46,0.61-2.12l7-13.48l6.53,12.52c1,1.91,3.28,2.76,5.28,1.95l0.04-0.02
				C1772.78-281.76,1817.85-304.03,1827.73-311.38"/>
			<path class="st1" d="M1836.05-211.82l-22.36-42.95l-13.61-26.07c-0.3-0.56-0.99-0.79-1.56-0.52c-4.72,2.29-17.49,7.52-19.07,8.14
				c-0.05,0.02-0.11,0.05-0.16,0.08c-1.03,0.58-2.03,1.21-2.98,1.91c-0.6,0.48-2.62,3.09-2.88,3.68c-0.42,1.07-0.74,2.17-0.92,3.3
				c0,0.01,0,0.02,0,0.03c-0.17,1.62,0.1,3.26,0.76,4.75c0.83,1.88,2.02,4.58,2.07,4.68c0,0,0,0.01,0,0.01l22.93,44.04
				c0.2,0.39,0.6,0.63,1.05,0.63h35.7C1835.89-210.09,1836.46-211.03,1836.05-211.82"/>
			<path class="st1" d="M1738.88-256.38c-0.94,0.48-1.88,0.94-2.83,1.38c-4.17,1.96-8.44,3.66-12.68,5.44
				c-1.09,0.46-2.17,0.92-3.25,1.39c-2.23,0.96-4.46,1.92-6.7,2.86c-1.95,0.82-3.91,1.59-5.86,2.41c-1.47,0.63-2.93,1.28-4.39,1.94
				c-2.22,1.02-4.4,2.11-6.63,3.12c-0.91,0.41-1.83,0.82-2.77,1.17c-2.71,1.02-4.95,2.99-6.29,5.56l-2.44,4.67l-2.93,5.7l-5.12,9.82
				c-0.19,0.37,0.08,0.81,0.49,0.81h37.11c0.21,0,0.39-0.11,0.49-0.3l5.39-10.33l12.68-24.57c0.34-0.66,0.73-1.29,1.16-1.89
				c2.91-4,6.15-7.7,10.04-10.75c0.01-0.01,0.02-0.02,0.03-0.02c0.53-0.41,0-1.24-0.59-0.93
				C1742.1-257.99,1740.36-257.07,1738.88-256.38L1738.88-256.38z"/>
			<path class="st1" d="M1922.07-368.15h-34.79v17.26C1898.16-357.85,1909.85-363.64,1922.07-368.15"/>
			<path class="st1" d="M2011.91-334.1v-34.04h-64.51c-20.72,3.39-40.98,10.01-60.12,19.39v14.65v26.04v16.95v16.95v26.03v34.05
				h124.63v-34.05h-90.74v-26.03h80.11v-33.89h-80.11v-26.04H2011.91z"/>
			<path class="st1" d="M2192.63-230.9v-43.27v-33.89v-60.08h-33.89v60.08v33.89v52.69C2170.23-223.66,2181.57-226.83,2192.63-230.9
				"/>
			<path class="st1" d="M2158.74-214.4v0.3h33.89v-12.12C2181.79-221.19,2170.41-217.24,2158.74-214.4"/>
		</g>
	</g>
</g>
<g>
	<rect x="2630.35" y="-532.88" class="st0" width="1080" height="532.88"/>
	<g>
		<g>
			<polygon class="st1" points="2978.76,-126.87 2978.68,-140.75 2971.95,-129.45 2968.65,-129.45 2961.96,-140.38 2961.96,-126.87 
				2955.11,-126.87 2955.11,-153.06 2961.21,-153.06 2970.41,-137.95 2979.39,-153.06 2985.49,-153.06 2985.56,-126.87 			"/>
			<polygon class="st1" points="3049.24,-132.6 3049.24,-126.87 3028.21,-126.87 3028.21,-153.06 3048.75,-153.06 3048.75,-147.34 
				3035.55,-147.34 3035.55,-142.92 3047.18,-142.92 3047.18,-137.38 3035.55,-137.38 3035.55,-132.6 			"/>
			<polygon class="st1" points="3115.68,-153.06 3115.68,-126.87 3109.58,-126.87 3098.02,-140.83 3098.02,-126.87 3090.76,-126.87 
				3090.76,-153.06 3096.86,-153.06 3108.42,-139.11 3108.42,-153.06 			"/>
			<path class="st1" d="M3158.33-153.06h12.38c2.87,0,5.41,0.54,7.63,1.61c2.22,1.07,3.94,2.59,5.16,4.56
				c1.22,1.97,1.83,4.28,1.83,6.92c0,2.64-0.61,4.95-1.83,6.92c-1.22,1.97-2.94,3.49-5.16,4.56c-2.22,1.07-4.76,1.61-7.63,1.61
				h-12.38V-153.06z M3170.41-132.78c2.24,0,4.05-0.64,5.41-1.91c1.36-1.27,2.04-3.03,2.04-5.28s-0.68-4-2.04-5.27
				c-1.36-1.27-3.16-1.91-5.41-1.91h-4.68v14.36H3170.41z"/>
			<path class="st1" d="M3232.38-128.11c-2.21-1.17-3.94-2.79-5.2-4.86c-1.26-2.07-1.89-4.4-1.89-7c0-2.59,0.63-4.93,1.89-7
				c1.26-2.07,2.99-3.69,5.2-4.86c2.21-1.17,4.7-1.76,7.46-1.76c2.77,0,5.26,0.59,7.46,1.76c2.21,1.17,3.94,2.79,5.2,4.86
				c1.26,2.07,1.89,4.4,1.89,7c0,2.59-0.63,4.93-1.89,7c-1.26,2.07-2.99,3.69-5.2,4.86s-4.7,1.76-7.46,1.76
				C3237.08-126.35,3234.59-126.93,3232.38-128.11 M3243.44-133.42c1.07-0.62,1.92-1.5,2.54-2.64c0.62-1.13,0.94-2.44,0.94-3.91
				c0-1.47-0.31-2.77-0.94-3.91c-0.62-1.14-1.47-2.02-2.54-2.64c-1.07-0.62-2.27-0.93-3.59-0.93c-1.32,0-2.52,0.31-3.59,0.93
				c-1.07,0.62-1.92,1.5-2.54,2.64c-0.62,1.14-0.93,2.44-0.93,3.91c0,1.47,0.31,2.78,0.93,3.91c0.62,1.14,1.47,2.02,2.54,2.64
				c1.07,0.62,2.27,0.94,3.59,0.94C3241.17-132.48,3242.36-132.8,3243.44-133.42"/>
			<polygon class="st1" points="3317.62,-132.75 3317.62,-126.87 3294.16,-126.87 3294.16,-131.51 3307.37,-147.19 3294.5,-147.19 
				3294.5,-153.06 3317.06,-153.06 3317.06,-148.42 3303.85,-132.75 			"/>
			<path class="st1" d="M3375.83-131.96h-11.07l-2.06,5.09h-7.56l11.56-26.19h7.29l11.6,26.19h-7.71L3375.83-131.96z
				 M3373.66-137.42l-3.37-8.38l-3.37,8.38H3373.66z"/>
		</g>
		<g>
			<polygon class="st1" points="3144.31,-412.87 3138.88,-420.99 3133.53,-412.87 3125.08,-412.87 3134.62,-426.11 3125.49,-439.06 
				3133.83,-439.06 3139.07,-431.5 3144.23,-439.06 3152.24,-439.06 3143.11,-426.41 3152.84,-412.87 			"/>
			<polygon class="st1" points="3209.1,-412.87 3203.68,-420.99 3198.33,-412.87 3189.87,-412.87 3199.41,-426.11 3190.28,-439.06 
				3198.63,-439.06 3203.86,-431.5 3209.03,-439.06 3217.03,-439.06 3207.9,-426.41 3217.63,-412.87 			"/>
			<path class="st1" d="M3186.19-339.74c-9.04,0.57-16.4,5.33-23.85,9.8c-2.08,1.25-3.68,2.4-6.19,0.52
				c-1.02-0.76-3.99-0.6-4.77,0.28c-3.83,4.36-7.23,9.11-10.78,13.73c0.46,0.56,0.93,1.11,1.39,1.67c4.33-2.35,8.66-4.71,13-7.07
				c0.29,0.47,0.58,0.93,0.87,1.4c-0.53,0.48-1.04,0.99-1.56,1.49c1.06,1.48,2.17,3.28,2.94,4.96c0.93-0.36,1.88-0.67,2.8-1.05
				c0.23,0.39,0.46,0.79,0.69,1.18c-3.86,2.98-7.72,5.96-12.18,9.4c1.69,0.69,2.53,1.39,3.13,1.22c5.01-1.44,10.06-2.83,14.91-4.73
				c1.14-0.45,2.41-2.94,2.14-4.16c-0.62-2.74,0.67-3.9,2.49-5.32c6.97-5.45,13.9-10.99,17.74-19.31c0.5-1.09,0.58-2.37,0.86-3.56
				C3188.6-339.46,3187.38-339.82,3186.19-339.74 M3169.57-320.5c-1.99,0.65-4.12-0.44-4.76-2.43c-0.65-1.99,0.44-4.12,2.43-4.76
				c1.99-0.65,4.12,0.44,4.76,2.43C3172.64-323.27,3171.56-321.14,3169.57-320.5"/>
			<path class="st1" d="M2946.74-264.93l21.88,10.63c-12.48,23.88-37.28,40.21-65.94,40.21c-14.79,0-28.65-4.47-40.36-12.02
				c-13.86-9.09-24.65-22.8-30.19-38.82c-2.31-7.39-3.7-15.25-3.7-23.57v-2.62v-2.62c0-8.32,1.39-16.17,3.7-23.57
				c5.55-16.02,16.33-29.73,30.19-38.82c11.71-7.55,25.57-12.02,40.36-12.02c28.66,0,53.46,16.33,65.94,40.05l-21.88,10.78
				l-8.63,4.31c-0.77-1.54-1.69-2.93-2.62-4.31c-7.4-10.17-19.26-16.79-32.81-16.79c-13.4,0-25.42,6.62-32.81,16.79
				c-4.62,6.62-7.55,14.79-7.55,23.57v2.62v2.62c0,8.78,2.93,16.95,7.55,23.57c7.39,10.17,19.41,16.79,32.81,16.79
				c13.56,0,25.42-6.62,32.81-16.79c0.92-1.39,1.85-2.77,2.62-4.31L2946.74-264.93z"/>
			<polygon class="st1" points="3420.93,-368.15 3420.93,-308.07 3420.93,-274.17 3420.93,-214.09 3387.03,-214.09 3387.03,-274.17 
				3387.03,-308.07 3387.03,-368.15 			"/>
			<path class="st1" d="M3149.39-311.38c-6.51,3.16-13.02,6.31-19.53,9.47c-2.27,1.1-4.56,2.21-7.03,2.7
				c-2.47,0.5-5.17,0.32-7.3-1.02c-1.87-1.18-3.11-3.1-4.3-4.97c-0.25-0.39-0.5-0.79-0.75-1.18l-13.03-24.95l-19.1-36.82
				l-19.1,36.82l-37.74,72.56l-4.43,8.5c7.26-3.24,51.7-21.05,53.15-21.55c0.7-0.24,1.39-0.48,2.08-0.72
				c1.59-0.55,3.19-1.1,4.65-1.95c-1.36,0.16-2.79-0.01-3.99-0.68c-1.2-0.67-2.12-1.89-2.23-3.26c-0.01-0.13-0.01-0.31,0.01-0.49
				c0.05-0.74,0.27-1.46,0.61-2.12l7-13.48l6.53,12.52c1,1.91,3.28,2.76,5.28,1.95l0.03-0.02
				C3094.44-281.76,3139.5-304.03,3149.39-311.38"/>
			<path class="st1" d="M3157.7-211.82l-22.36-42.95l-13.61-26.07c-0.3-0.56-0.99-0.79-1.56-0.52c-4.72,2.29-17.49,7.52-19.06,8.14
				c-0.05,0.02-0.11,0.05-0.16,0.08c-1.03,0.58-2.03,1.21-2.98,1.91c-0.6,0.48-2.62,3.09-2.88,3.68c-0.43,1.07-0.74,2.17-0.93,3.3
				c0,0.01,0,0.02,0,0.03c-0.17,1.62,0.1,3.26,0.76,4.75c0.83,1.88,2.02,4.58,2.07,4.68c0,0,0,0.01,0,0.01l22.93,44.04
				c0.2,0.39,0.6,0.63,1.04,0.63h35.7C3157.54-210.09,3158.11-211.03,3157.7-211.82"/>
			<path class="st1" d="M3060.54-256.38c-0.94,0.48-1.88,0.94-2.83,1.38c-4.17,1.96-8.44,3.66-12.68,5.44
				c-1.09,0.46-2.17,0.92-3.25,1.39c-2.23,0.96-4.46,1.92-6.7,2.86c-1.95,0.82-3.91,1.59-5.86,2.41c-1.47,0.63-2.94,1.28-4.39,1.94
				c-2.22,1.02-4.4,2.11-6.63,3.12c-0.91,0.41-1.83,0.82-2.77,1.17c-2.71,1.02-4.95,2.99-6.29,5.56l-2.44,4.67l-2.93,5.7l-5.12,9.82
				c-0.19,0.37,0.07,0.81,0.49,0.81h37.11c0.2,0,0.39-0.11,0.49-0.3l5.39-10.33l12.68-24.57c0.34-0.66,0.73-1.29,1.16-1.89
				c2.91-4,6.15-7.7,10.04-10.75c0.01-0.01,0.02-0.02,0.03-0.02c0.53-0.41,0-1.24-0.59-0.93
				C3063.76-257.99,3062.01-257.07,3060.54-256.38L3060.54-256.38z"/>
			<path class="st1" d="M3243.73-368.15h-34.79v17.26C3219.81-357.85,3231.51-363.64,3243.73-368.15"/>
			<path class="st1" d="M3333.57-334.1v-34.04h-64.51c-20.72,3.39-40.98,10.01-60.11,19.39v14.65v26.04v16.95v16.95v26.03v34.05
				h124.63v-34.05h-90.74v-26.03h80.11v-33.89h-80.11v-26.04H3333.57z"/>
			<path class="st1" d="M3514.28-230.9v-43.27v-33.89v-60.08h-33.89v60.08v33.89v52.69C3491.89-223.66,3503.22-226.83,3514.28-230.9
				"/>
			<path class="st1" d="M3480.39-214.4v0.3h33.89v-12.12C3503.45-221.19,3492.07-217.24,3480.39-214.4"/>
		</g>
	</g>
</g>
<polygon class="st0" points="1657.1,423.1 1657.03,409.22 1650.29,420.52 1647,420.52 1640.3,409.6 1640.3,423.1 1633.46,423.1 
	1633.46,396.92 1639.56,396.92 1648.76,412.03 1657.74,396.92 1663.83,396.92 1663.91,423.1 "/>
<polygon class="st0" points="1727.58,417.38 1727.58,423.1 1706.56,423.1 1706.56,396.92 1727.1,396.92 1727.1,402.64 
	1713.89,402.64 1713.89,407.05 1725.52,407.05 1725.52,412.59 1713.89,412.59 1713.89,417.38 "/>
<polygon class="st0" points="1794.02,396.92 1794.02,423.1 1787.92,423.1 1776.36,409.15 1776.36,423.1 1769.11,423.1 
	1769.11,396.92 1775.21,396.92 1786.76,410.87 1786.76,396.92 "/>
<path class="st0" d="M1836.67,396.92h12.38c2.87,0,5.41,0.54,7.63,1.61c2.22,1.07,3.94,2.59,5.16,4.56
	c1.22,1.97,1.83,4.28,1.83,6.92c0,2.64-0.61,4.95-1.83,6.92c-1.22,1.97-2.94,3.49-5.16,4.56c-2.22,1.07-4.76,1.61-7.63,1.61h-12.38
	V396.92z M1848.75,417.19c2.24,0,4.05-0.64,5.41-1.91c1.36-1.27,2.04-3.03,2.04-5.28s-0.68-4-2.04-5.27
	c-1.36-1.27-3.16-1.91-5.41-1.91h-4.68v14.36H1848.75z"/>
<path class="st0" d="M1910.72,421.87c-2.21-1.17-3.94-2.79-5.2-4.86c-1.26-2.07-1.89-4.4-1.89-7c0-2.59,0.63-4.93,1.89-7
	c1.26-2.07,2.99-3.69,5.2-4.86c2.21-1.17,4.7-1.76,7.46-1.76c2.77,0,5.26,0.59,7.46,1.76c2.21,1.17,3.94,2.79,5.2,4.86
	c1.26,2.07,1.89,4.4,1.89,7c0,2.59-0.63,4.93-1.89,7c-1.26,2.07-2.99,3.69-5.2,4.86s-4.7,1.76-7.46,1.76
	C1915.42,423.63,1912.93,423.04,1910.72,421.87 M1921.78,416.56c1.07-0.62,1.92-1.5,2.54-2.64c0.62-1.13,0.93-2.44,0.93-3.91
	c0-1.47-0.31-2.77-0.93-3.91c-0.62-1.13-1.47-2.01-2.54-2.64c-1.07-0.62-2.27-0.93-3.59-0.93c-1.32,0-2.52,0.31-3.59,0.93
	c-1.07,0.62-1.92,1.5-2.54,2.64c-0.62,1.14-0.94,2.44-0.94,3.91c0,1.47,0.31,2.78,0.94,3.91c0.62,1.13,1.47,2.01,2.54,2.64
	c1.07,0.62,2.27,0.94,3.59,0.94C1919.51,417.49,1920.71,417.18,1921.78,416.56"/>
<polygon class="st0" points="1995.96,417.23 1995.96,423.1 1972.51,423.1 1972.51,418.47 1985.71,402.79 1972.85,402.79 
	1972.85,396.92 1995.4,396.92 1995.4,401.56 1982.2,417.23 "/>
<path class="st0" d="M2054.17,418.02h-11.07l-2.06,5.09h-7.56l11.56-26.19h7.3l11.6,26.19h-7.71L2054.17,418.02z M2052,412.55
	l-3.37-8.38l-3.37,8.38H2052z"/>
<polygon class="st0" points="1821.65,137.1 1816.22,128.99 1810.88,137.1 1802.42,137.1 1811.96,123.86 1802.83,110.92 
	1811.17,110.92 1816.41,118.47 1821.58,110.92 1829.58,110.92 1820.45,123.56 1830.18,137.1 "/>
<polygon class="st0" points="1886.45,137.1 1881.02,128.99 1875.67,137.1 1867.22,137.1 1876.76,123.86 1867.63,110.92 
	1875.97,110.92 1881.21,118.47 1886.37,110.92 1894.38,110.92 1885.25,123.56 1894.97,137.1 "/>
<path class="st0" d="M1863.53,210.23c-9.04,0.57-16.4,5.33-23.85,9.8c-2.08,1.25-3.68,2.4-6.19,0.51c-1.02-0.76-3.99-0.6-4.77,0.28
	c-3.83,4.37-7.23,9.11-10.78,13.73l1.39,1.67c4.33-2.35,8.67-4.71,13-7.07c0.29,0.47,0.58,0.93,0.87,1.4
	c-0.53,0.48-1.04,0.99-1.56,1.49c1.06,1.48,2.17,3.28,2.94,4.96c0.93-0.36,1.88-0.67,2.8-1.05c0.23,0.4,0.46,0.79,0.69,1.18
	c-3.86,2.98-7.72,5.96-12.18,9.4c1.69,0.69,2.53,1.39,3.13,1.22c5.01-1.44,10.06-2.83,14.91-4.73c1.14-0.45,2.41-2.94,2.14-4.16
	c-0.62-2.74,0.67-3.9,2.49-5.33c6.97-5.45,13.9-10.99,17.74-19.3c0.5-1.09,0.59-2.37,0.86-3.56
	C1865.95,210.52,1864.73,210.16,1863.53,210.23 M1846.91,229.48c-1.98,0.65-4.12-0.44-4.76-2.43c-0.65-1.99,0.44-4.12,2.43-4.76
	c1.98-0.65,4.12,0.44,4.76,2.43C1849.99,226.7,1848.9,228.83,1846.91,229.48"/>
<path class="st0" d="M1624.08,285.04l21.88,10.63c-12.48,23.88-37.28,40.21-65.94,40.21c-14.79,0-28.65-4.47-40.36-12.02
	c-13.86-9.09-24.65-22.8-30.19-38.82c-2.31-7.39-3.7-15.25-3.7-23.57v-2.62v-2.62c0-8.32,1.39-16.17,3.7-23.57
	c5.55-16.02,16.33-29.73,30.19-38.82c11.71-7.55,25.57-12.02,40.36-12.02c28.66,0,53.46,16.33,65.94,40.05l-21.88,10.78l-8.63,4.31
	c-0.77-1.54-1.69-2.93-2.62-4.31c-7.4-10.17-19.26-16.79-32.81-16.79c-13.4,0-25.42,6.62-32.81,16.79
	c-4.62,6.62-7.55,14.79-7.55,23.57v2.62v2.62c0,8.78,2.93,16.95,7.55,23.57c7.39,10.17,19.41,16.79,32.81,16.79
	c13.56,0,25.42-6.62,32.81-16.79c0.92-1.39,1.85-2.77,2.62-4.31L1624.08,285.04z"/>
<polygon class="st0" points="2098.27,181.83 2098.27,241.91 2098.27,275.8 2098.27,335.88 2064.38,335.88 2064.38,275.8 
	2064.38,241.91 2064.38,181.83 "/>
<path class="st0" d="M1826.73,238.59c-6.51,3.16-13.02,6.31-19.53,9.47c-2.27,1.1-4.56,2.21-7.03,2.7c-2.47,0.5-5.17,0.32-7.3-1.02
	c-1.87-1.18-3.11-3.1-4.3-4.97c-0.25-0.39-0.5-0.79-0.75-1.18l-13.03-24.95l-19.1-36.82l-19.1,36.82l-37.74,72.56l-4.43,8.5
	c7.26-3.24,51.7-21.05,53.15-21.55c0.69-0.24,1.39-0.48,2.08-0.72c1.59-0.55,3.19-1.1,4.65-1.95c-1.36,0.16-2.79-0.01-3.99-0.68
	c-1.2-0.67-2.12-1.89-2.23-3.26c-0.01-0.13-0.01-0.3,0.01-0.49c0.06-0.74,0.27-1.46,0.61-2.12l7-13.48l6.53,12.52
	c1,1.91,3.28,2.76,5.28,1.95l0.04-0.01C1771.78,268.22,1816.85,245.94,1826.73,238.59"/>
<path class="st0" d="M1835.05,338.16l-22.36-42.95l-13.61-26.07c-0.3-0.56-0.99-0.79-1.56-0.51c-4.72,2.29-17.49,7.52-19.07,8.14
	c-0.05,0.02-0.11,0.05-0.16,0.08c-1.03,0.58-2.03,1.21-2.98,1.91c-0.6,0.48-2.62,3.09-2.88,3.68c-0.42,1.07-0.74,2.17-0.92,3.3
	l0,0.03c-0.17,1.62,0.1,3.26,0.76,4.75c0.83,1.88,2.02,4.58,2.07,4.68c0,0,0,0,0,0.01l22.93,44.04c0.2,0.39,0.6,0.63,1.05,0.63h35.7
	C1834.89,339.88,1835.46,338.94,1835.05,338.16"/>
<path class="st0" d="M1737.88,293.6c-0.94,0.48-1.88,0.94-2.83,1.38c-4.17,1.96-8.44,3.66-12.68,5.44
	c-1.09,0.46-2.17,0.92-3.25,1.39c-2.23,0.96-4.46,1.92-6.7,2.86c-1.95,0.82-3.91,1.59-5.86,2.41c-1.47,0.63-2.93,1.27-4.39,1.94
	c-2.22,1.02-4.4,2.11-6.63,3.12c-0.91,0.41-1.83,0.82-2.77,1.17c-2.71,1.02-4.95,2.99-6.29,5.56l-2.44,4.67l-2.93,5.7l-5.12,9.82
	c-0.19,0.37,0.08,0.81,0.49,0.81h37.11c0.21,0,0.39-0.11,0.49-0.3l5.39-10.33l12.68-24.57c0.34-0.66,0.73-1.29,1.16-1.89
	c2.91-4,6.15-7.7,10.04-10.75c0.01-0.01,0.02-0.02,0.03-0.03c0.53-0.41,0-1.24-0.59-0.92
	C1741.1,291.98,1739.36,292.91,1737.88,293.6L1737.88,293.6z"/>
<path class="st0" d="M1921.07,181.83h-34.79v17.26C1897.16,192.13,1908.85,186.34,1921.07,181.83"/>
<path class="st0" d="M2010.91,215.88v-34.05h-64.51c-20.72,3.39-40.98,10.01-60.12,19.39v14.65v26.03v16.95v16.95v26.03v34.05
	h124.63v-34.05h-90.74V275.8h80.11v-33.89h-80.11v-26.03H2010.91z"/>
<path class="st0" d="M2191.63,319.08V275.8v-33.89v-60.08h-33.89v60.08v33.89v52.69C2169.23,326.32,2180.57,323.15,2191.63,319.08"
	/>
<path class="st0" d="M2157.74,335.58v0.3h33.89v-12.12C2180.79,328.79,2169.41,332.74,2157.74,335.58"/>
<g>
	<polygon class="st0" points="348.4,422.27 348.33,408.39 341.59,419.69 338.3,419.69 331.6,408.76 331.6,422.27 324.76,422.27 
		324.76,396.08 330.86,396.08 340.06,411.2 349.04,396.08 355.14,396.08 355.21,422.27 	"/>
	<polygon class="st0" points="418.88,416.55 418.88,422.27 397.86,422.27 397.86,396.08 418.4,396.08 418.4,401.81 405.19,401.81 
		405.19,406.22 416.82,406.22 416.82,411.76 405.19,411.76 405.19,416.55 	"/>
	<polygon class="st0" points="485.32,396.08 485.32,422.27 479.23,422.27 467.67,408.32 467.67,422.27 460.41,422.27 460.41,396.08 
		466.51,396.08 478.07,410.04 478.07,396.08 	"/>
	<path class="st0" d="M527.97,396.08h12.38c2.87,0,5.41,0.54,7.63,1.61c2.22,1.07,3.94,2.59,5.16,4.56
		c1.22,1.97,1.83,4.28,1.83,6.92c0,2.64-0.61,4.95-1.83,6.92c-1.22,1.97-2.94,3.49-5.16,4.56c-2.22,1.07-4.76,1.61-7.63,1.61h-12.38
		V396.08z M540.06,416.36c2.24,0,4.05-0.64,5.41-1.91c1.36-1.27,2.04-3.03,2.04-5.28s-0.68-4-2.04-5.27
		c-1.36-1.27-3.16-1.91-5.41-1.91h-4.68v14.36H540.06z"/>
	<path class="st0" d="M602.03,421.04c-2.21-1.17-3.94-2.79-5.2-4.86c-1.26-2.07-1.89-4.4-1.89-7c0-2.59,0.63-4.93,1.89-7
		c1.26-2.07,2.99-3.69,5.2-4.86c2.21-1.17,4.7-1.76,7.46-1.76c2.77,0,5.26,0.59,7.46,1.76c2.21,1.17,3.94,2.79,5.2,4.86
		c1.26,2.07,1.89,4.4,1.89,7c0,2.59-0.63,4.93-1.89,7c-1.26,2.07-2.99,3.69-5.2,4.86c-2.21,1.17-4.7,1.76-7.46,1.76
		C606.72,422.79,604.23,422.21,602.03,421.04 M613.08,415.72c1.07-0.62,1.92-1.5,2.54-2.64c0.62-1.13,0.93-2.44,0.93-3.91
		c0-1.47-0.31-2.77-0.93-3.91c-0.62-1.13-1.47-2.01-2.54-2.64c-1.07-0.62-2.27-0.93-3.59-0.93c-1.32,0-2.52,0.31-3.59,0.93
		c-1.07,0.62-1.92,1.5-2.54,2.64c-0.62,1.14-0.93,2.44-0.93,3.91c0,1.47,0.31,2.78,0.93,3.91c0.62,1.13,1.47,2.01,2.54,2.64
		c1.07,0.62,2.27,0.94,3.59,0.94C610.81,416.66,612.01,416.35,613.08,415.72"/>
	<polygon class="st0" points="687.27,416.4 687.27,422.27 663.81,422.27 663.81,417.63 677.02,401.96 664.15,401.96 664.15,396.08 
		686.7,396.08 686.7,400.72 673.5,416.4 	"/>
	<path class="st0" d="M745.48,417.18H734.4l-2.06,5.09h-7.56l11.56-26.19h7.29l11.6,26.19h-7.71L745.48,417.18z M743.31,411.72
		l-3.37-8.38l-3.37,8.38H743.31z"/>
	<polygon class="st0" points="512.95,136.27 507.53,128.15 502.18,136.27 493.72,136.27 503.26,123.03 494.13,110.08 502.48,110.08 
		507.71,117.64 512.88,110.08 520.88,110.08 511.75,122.73 521.48,136.27 	"/>
	<polygon class="st0" points="577.75,136.27 572.32,128.15 566.97,136.27 558.52,136.27 568.06,123.03 558.93,110.08 567.27,110.08 
		572.51,117.64 577.67,110.08 585.68,110.08 576.55,122.73 586.28,136.27 	"/>
	<path class="st0" d="M554.83,209.4c-9.04,0.57-16.4,5.33-23.85,9.8c-2.09,1.25-3.68,2.4-6.19,0.51c-1.02-0.76-3.99-0.6-4.77,0.28
		c-3.83,4.37-7.23,9.11-10.78,13.73l1.39,1.67c4.33-2.35,8.66-4.71,13-7.07c0.29,0.47,0.58,0.93,0.87,1.4
		c-0.53,0.48-1.04,0.99-1.56,1.49c1.06,1.48,2.17,3.28,2.94,4.96c0.93-0.36,1.88-0.67,2.8-1.05c0.23,0.4,0.46,0.79,0.69,1.18
		c-3.86,2.98-7.72,5.96-12.18,9.4c1.69,0.69,2.53,1.39,3.13,1.22c5.01-1.44,10.06-2.83,14.91-4.73c1.14-0.45,2.41-2.94,2.14-4.16
		c-0.62-2.74,0.67-3.9,2.49-5.33c6.97-5.45,13.9-10.99,17.74-19.3c0.5-1.09,0.59-2.37,0.86-3.56
		C557.25,209.69,556.03,209.32,554.83,209.4 M538.22,228.64c-1.99,0.65-4.12-0.44-4.76-2.43c-0.65-1.99,0.44-4.12,2.43-4.76
		c1.98-0.65,4.12,0.44,4.76,2.43C541.29,225.87,540.2,228,538.22,228.64"/>
	<path class="st0" d="M315.38,284.21l21.88,10.63c-12.48,23.88-37.28,40.21-65.93,40.21c-14.79,0-28.65-4.47-40.36-12.02
		c-13.87-9.09-24.65-22.8-30.2-38.82c-2.31-7.39-3.7-15.25-3.7-23.57v-2.62v-2.62c0-8.32,1.39-16.17,3.7-23.57
		c5.55-16.02,16.33-29.73,30.2-38.82c11.71-7.55,25.57-12.02,40.36-12.02c28.65,0,53.46,16.33,65.93,40.05l-21.88,10.78l-8.63,4.31
		c-0.77-1.54-1.69-2.93-2.62-4.31c-7.39-10.17-19.26-16.79-32.81-16.79c-13.4,0-25.42,6.62-32.81,16.79
		c-4.62,6.62-7.55,14.79-7.55,23.57v2.62v2.62c0,8.78,2.93,16.95,7.55,23.57c7.39,10.17,19.41,16.79,32.81,16.79
		c13.56,0,25.42-6.62,32.81-16.79c0.92-1.39,1.85-2.77,2.62-4.31L315.38,284.21z"/>
	<polygon class="st0" points="789.57,180.99 789.57,241.07 789.57,274.97 789.57,335.05 755.68,335.05 755.68,274.97 755.68,241.07 
		755.68,180.99 	"/>
	<path class="st0" d="M518.03,237.76c-6.51,3.16-13.02,6.31-19.53,9.47c-2.27,1.1-4.56,2.21-7.03,2.7c-2.47,0.5-5.17,0.32-7.3-1.02
		c-1.87-1.18-3.11-3.1-4.3-4.97c-0.25-0.39-0.5-0.79-0.75-1.18l-13.03-24.95l-19.1-36.82l-19.1,36.82l-37.74,72.56l-4.43,8.5
		c7.26-3.24,51.7-21.05,53.15-21.55c0.7-0.24,1.39-0.48,2.09-0.72c1.59-0.55,3.19-1.1,4.64-1.95c-1.36,0.16-2.79-0.01-3.99-0.68
		c-1.2-0.67-2.12-1.89-2.23-3.26c-0.01-0.13-0.01-0.3,0.01-0.49c0.05-0.74,0.27-1.46,0.61-2.12l7-13.48l6.53,12.52
		c1,1.91,3.28,2.76,5.28,1.95l0.04-0.01C463.08,267.38,508.15,245.11,518.03,237.76"/>
	<path class="st0" d="M526.35,337.32l-22.36-42.95l-13.62-26.07c-0.29-0.56-0.99-0.79-1.56-0.51c-4.72,2.29-17.49,7.52-19.07,8.14
		c-0.05,0.02-0.11,0.05-0.16,0.08c-1.03,0.58-2.03,1.21-2.98,1.91c-0.6,0.48-2.62,3.09-2.88,3.68c-0.42,1.07-0.74,2.17-0.92,3.3
		l0,0.03c-0.17,1.62,0.1,3.26,0.76,4.75c0.83,1.88,2.02,4.58,2.07,4.68c0,0,0,0,0,0.01l22.93,44.04c0.2,0.39,0.6,0.63,1.04,0.63
		h35.7C526.19,339.05,526.76,338.11,526.35,337.32"/>
	<path class="st0" d="M429.18,292.76c-0.94,0.48-1.88,0.94-2.83,1.38c-4.16,1.96-8.44,3.66-12.68,5.44
		c-1.09,0.46-2.17,0.92-3.25,1.39c-2.23,0.96-4.46,1.92-6.7,2.86c-1.95,0.82-3.91,1.59-5.86,2.41c-1.47,0.63-2.93,1.27-4.39,1.94
		c-2.22,1.02-4.4,2.11-6.63,3.12c-0.91,0.41-1.83,0.82-2.77,1.17c-2.71,1.02-4.95,2.99-6.29,5.56l-2.44,4.67l-2.93,5.7l-5.12,9.82
		c-0.19,0.37,0.07,0.81,0.49,0.81h37.12c0.2,0,0.39-0.11,0.49-0.3l5.39-10.33l12.68-24.57c0.34-0.66,0.73-1.29,1.16-1.89
		c2.91-4,6.15-7.7,10.04-10.75c0.01-0.01,0.02-0.02,0.03-0.03c0.53-0.41,0-1.24-0.6-0.92C432.4,291.15,430.66,292.08,429.18,292.76
		L429.18,292.76z"/>
	<path class="st0" d="M612.37,180.99h-34.79v17.26C588.46,191.29,600.15,185.5,612.37,180.99"/>
	<path class="st0" d="M702.21,215.04v-34.05H637.7c-20.72,3.39-40.98,10.01-60.12,19.39v14.65v26.03v16.95v16.95V301v34.05h124.63
		V301h-90.74v-26.03h80.11v-33.89h-80.11v-26.03H702.21z"/>
	<path class="st0" d="M882.93,318.24v-43.27v-33.89v-60.08h-33.89v60.08v33.89v52.69C860.53,325.48,871.87,322.31,882.93,318.24"/>
	<path class="st0" d="M849.04,334.74v0.3h33.89v-12.12C872.09,327.95,860.71,331.91,849.04,334.74"/>
</g>
<g>
	<polygon class="st0" points="1731.51,737.86 1731.47,729.38 1727.35,736.29 1725.33,736.29 1721.24,729.6 1721.24,737.86 
		1717.05,737.86 1717.05,721.85 1720.78,721.85 1726.41,731.09 1731.9,721.85 1735.63,721.85 1735.68,737.86 	"/>
	<polygon class="st0" points="1774.62,734.36 1774.62,737.86 1761.76,737.86 1761.76,721.85 1774.32,721.85 1774.32,725.35 
		1766.25,725.35 1766.25,728.05 1773.36,728.05 1773.36,731.43 1766.25,731.43 1766.25,734.36 	"/>
	<polygon class="st0" points="1815.26,721.85 1815.26,737.86 1811.53,737.86 1804.46,729.33 1804.46,737.86 1800.02,737.86 
		1800.02,721.85 1803.75,721.85 1810.82,730.38 1810.82,721.85 	"/>
	<path class="st0" d="M1841.34,721.85h7.58c1.75,0,3.31,0.33,4.67,0.98c1.36,0.66,2.41,1.59,3.16,2.79c0.75,1.2,1.12,2.62,1.12,4.23
		c0,1.62-0.37,3.03-1.12,4.23c-0.75,1.2-1.8,2.14-3.16,2.79c-1.36,0.66-2.92,0.98-4.67,0.98h-7.58V721.85z M1848.73,734.25
		c1.37,0,2.48-0.39,3.31-1.17c0.83-0.78,1.25-1.85,1.25-3.23c0-1.37-0.42-2.45-1.25-3.23c-0.83-0.78-1.93-1.17-3.31-1.17h-2.86v8.79
		H1848.73z"/>
	<path class="st0" d="M1886.64,737.11c-1.35-0.72-2.41-1.71-3.18-2.97c-0.77-1.27-1.16-2.69-1.16-4.28c0-1.59,0.39-3.01,1.16-4.28
		c0.77-1.27,1.83-2.26,3.18-2.98c1.35-0.72,2.87-1.07,4.56-1.07c1.69,0,3.22,0.36,4.56,1.07c1.35,0.72,2.41,1.71,3.18,2.98
		c0.77,1.27,1.16,2.69,1.16,4.28c0,1.59-0.39,3.01-1.16,4.28c-0.77,1.27-1.83,2.26-3.18,2.97c-1.35,0.72-2.87,1.08-4.56,1.08
		C1889.51,738.18,1887.99,737.83,1886.64,737.11 M1893.4,733.86c0.66-0.38,1.18-0.92,1.56-1.61c0.38-0.7,0.57-1.49,0.57-2.39
		c0-0.9-0.19-1.7-0.57-2.39c-0.38-0.69-0.9-1.23-1.56-1.61c-0.66-0.38-1.39-0.57-2.2-0.57c-0.81,0-1.54,0.19-2.2,0.57
		c-0.66,0.38-1.17,0.92-1.56,1.61c-0.38,0.7-0.57,1.49-0.57,2.39c0,0.9,0.19,1.7,0.57,2.39c0.38,0.69,0.9,1.23,1.56,1.61
		c0.66,0.38,1.39,0.57,2.2,0.57C1892.01,734.43,1892.74,734.24,1893.4,733.86"/>
	<polygon class="st0" points="1938.77,734.27 1938.77,737.86 1924.42,737.86 1924.42,735.03 1932.5,725.44 1924.63,725.44 
		1924.63,721.85 1938.43,721.85 1938.43,724.68 1930.35,734.27 	"/>
	<path class="st0" d="M1974.37,734.75h-6.77l-1.26,3.11h-4.62l7.07-16.02h4.46l7.09,16.02h-4.71L1974.37,734.75z M1973.05,731.41
		l-2.06-5.13l-2.06,5.13H1973.05z"/>
	<path class="st0" d="M1857.77,607.67c-5.53,0.35-10.03,3.26-14.59,5.99c-1.28,0.76-2.25,1.47-3.79,0.32
		c-0.62-0.47-2.44-0.37-2.92,0.17c-2.34,2.67-4.42,5.57-6.59,8.4c0.28,0.34,0.57,0.68,0.85,1.02c2.65-1.44,5.3-2.88,7.95-4.32
		c0.18,0.28,0.36,0.57,0.53,0.86c-0.33,0.29-0.64,0.61-0.96,0.91c0.65,0.91,1.33,2,1.8,3.03c0.57-0.22,1.15-0.41,1.71-0.64
		c0.14,0.24,0.28,0.48,0.42,0.73c-2.36,1.82-4.72,3.64-7.45,5.75c1.03,0.42,1.55,0.85,1.91,0.74c3.07-0.88,6.15-1.73,9.12-2.9
		c0.7-0.27,1.47-1.8,1.31-2.54c-0.38-1.68,0.41-2.39,1.52-3.26c4.26-3.34,8.5-6.72,10.85-11.81c0.31-0.67,0.36-1.45,0.53-2.18
		C1859.25,607.84,1858.5,607.62,1857.77,607.67 M1847.61,619.44c-1.21,0.4-2.52-0.27-2.91-1.48c-0.4-1.22,0.27-2.52,1.48-2.91
		c1.21-0.4,2.52,0.27,2.91,1.48C1849.49,617.74,1848.82,619.04,1847.61,619.44"/>
	<path class="st0" d="M1711.32,653.42l13.38,6.5c-7.63,14.6-22.8,24.59-40.33,24.59c-9.05,0-17.53-2.73-24.69-7.35
		c-8.48-5.56-15.08-13.95-18.47-23.75c-1.41-4.52-2.26-9.33-2.26-14.42v-1.6v-1.6c0-5.09,0.85-9.89,2.26-14.42
		c3.39-9.8,9.99-18.19,18.47-23.74c7.16-4.62,15.64-7.35,24.69-7.35c17.53,0,32.69,9.99,40.33,24.5l-13.38,6.6l-5.28,2.64
		c-0.47-0.94-1.04-1.79-1.6-2.64c-4.52-6.22-11.78-10.27-20.07-10.27c-8.2,0-15.55,4.05-20.07,10.27
		c-2.83,4.05-4.62,9.04-4.62,14.42v1.6v1.6c0,5.37,1.79,10.36,4.62,14.42c4.52,6.22,11.87,10.27,20.07,10.27
		c8.29,0,15.55-4.05,20.07-10.27c0.56-0.85,1.13-1.69,1.6-2.64L1711.32,653.42z"/>
	<polygon class="st0" points="2001.34,590.29 2001.34,627.04 2001.34,647.77 2001.34,684.52 1980.62,684.52 1980.62,647.77 
		1980.62,627.04 1980.62,590.29 	"/>
	<path class="st0" d="M1835.26,625.01c-3.98,1.93-7.96,3.86-11.95,5.79c-1.39,0.67-2.79,1.35-4.3,1.65c-1.51,0.3-3.16,0.2-4.47-0.62
		c-1.14-0.72-1.9-1.9-2.63-3.04c-0.15-0.24-0.31-0.48-0.46-0.72l-7.97-15.26l-11.68-22.52l-11.68,22.52l-23.08,44.38l-2.71,5.2
		c4.44-1.98,31.62-12.87,32.51-13.18l1.28-0.44c0.97-0.34,1.95-0.67,2.84-1.19c-0.83,0.1-1.71,0-2.44-0.41
		c-0.73-0.41-1.3-1.16-1.36-1.99c-0.01-0.08,0-0.19,0.01-0.3c0.03-0.45,0.16-0.89,0.37-1.29l4.28-8.25l3.99,7.66
		c0.61,1.17,2.01,1.68,3.23,1.2c0.01,0,0.01-0.01,0.02-0.01C1801.66,643.13,1829.22,629.51,1835.26,625.01"/>
	<path class="st0" d="M1840.35,685.91l-13.68-26.27l-8.33-15.94c-0.18-0.35-0.6-0.48-0.95-0.32c-2.89,1.4-10.69,4.6-11.66,4.98
		c-0.03,0.01-0.07,0.03-0.1,0.05c-0.63,0.36-1.24,0.74-1.82,1.17c-0.36,0.29-1.6,1.89-1.76,2.25c-0.26,0.65-0.45,1.33-0.56,2.02
		c0,0.01,0,0.01,0,0.02c-0.11,0.99,0.06,1.99,0.46,2.91c0.51,1.15,1.24,2.8,1.27,2.87c0,0,0,0,0,0l14.02,26.93
		c0.13,0.24,0.37,0.39,0.64,0.39h21.83C1840.25,686.96,1840.6,686.39,1840.35,685.91"/>
	<path class="st0" d="M1780.92,658.65c-0.57,0.29-1.15,0.57-1.73,0.85c-2.55,1.2-5.16,2.24-7.75,3.33
		c-0.66,0.28-1.33,0.56-1.99,0.85c-1.36,0.59-2.73,1.17-4.1,1.75c-1.19,0.5-2.39,0.98-3.59,1.47c-0.9,0.38-1.79,0.78-2.68,1.19
		c-1.36,0.62-2.69,1.29-4.05,1.91c-0.55,0.25-1.12,0.5-1.69,0.72c-1.66,0.63-3.03,1.83-3.85,3.4l-1.49,2.86l-1.79,3.49l-3.13,6.01
		c-0.12,0.22,0.05,0.49,0.3,0.49h22.7c0.13,0,0.24-0.07,0.3-0.18l3.3-6.32l7.75-15.03c0.21-0.4,0.45-0.79,0.71-1.15
		c1.78-2.44,3.76-4.71,6.14-6.57c0.01-0.01,0.01-0.01,0.02-0.02c0.32-0.25,0-0.76-0.36-0.57
		C1782.89,657.67,1781.82,658.23,1780.92,658.65L1780.92,658.65z"/>
	<path class="st0" d="M1892.96,590.29h-21.28v10.56C1878.34,596.59,1885.49,593.05,1892.96,590.29"/>
	<path class="st0" d="M1947.91,611.12v-20.82h-39.46c-12.68,2.07-25.06,6.12-36.77,11.86v8.96v15.92v10.36v10.36v15.92v20.82h76.23
		v-20.82h-55.5v-15.92h49v-20.73h-49v-15.92H1947.91z"/>
	<path class="st0" d="M2058.44,674.24v-26.47v-20.73v-36.75h-20.73v36.75v20.73V680C2044.75,678.67,2051.68,676.73,2058.44,674.24"
		/>
	<path class="st0" d="M2037.72,684.33v0.19h20.73v-7.41C2051.82,680.18,2044.86,682.6,2037.72,684.33"/>
</g>
<g>
	<polygon class="st0" points="3037.22,715.1 3037.18,706.61 3033.06,713.52 3031.04,713.52 3026.95,706.83 3026.95,715.1 
		3022.76,715.1 3022.76,699.08 3026.49,699.08 3032.12,708.32 3037.61,699.08 3041.34,699.08 3041.39,715.1 	"/>
	<polygon class="st0" points="3080.33,711.59 3080.33,715.1 3067.47,715.1 3067.47,699.08 3080.03,699.08 3080.03,702.58 
		3071.96,702.58 3071.96,705.28 3079.07,705.28 3079.07,708.67 3071.96,708.67 3071.96,711.59 	"/>
	<polygon class="st0" points="3120.97,699.08 3120.97,715.1 3117.24,715.1 3110.17,706.56 3110.17,715.1 3105.73,715.1 
		3105.73,699.08 3109.46,699.08 3116.53,707.61 3116.53,699.08 	"/>
	<path class="st0" d="M3147.05,699.08h7.57c1.75,0,3.31,0.33,4.67,0.98c1.36,0.66,2.41,1.59,3.16,2.79
		c0.75,1.21,1.12,2.62,1.12,4.23c0,1.62-0.37,3.03-1.12,4.23c-0.75,1.21-1.8,2.14-3.16,2.79c-1.36,0.66-2.92,0.98-4.67,0.98h-7.57
		V699.08z M3154.44,711.48c1.37,0,2.48-0.39,3.31-1.17c0.83-0.78,1.25-1.85,1.25-3.23s-0.42-2.45-1.25-3.22
		c-0.83-0.78-1.93-1.17-3.31-1.17h-2.86v8.79H3154.44z"/>
	<path class="st0" d="M3192.35,714.34c-1.35-0.72-2.41-1.71-3.18-2.98c-0.77-1.27-1.16-2.69-1.16-4.28c0-1.59,0.39-3.01,1.16-4.28
		c0.77-1.27,1.83-2.26,3.18-2.97c1.35-0.72,2.87-1.08,4.56-1.08c1.69,0,3.22,0.36,4.56,1.08c1.35,0.72,2.41,1.71,3.18,2.97
		c0.77,1.27,1.16,2.69,1.16,4.28c0,1.59-0.39,3.01-1.16,4.28c-0.77,1.27-1.83,2.26-3.18,2.98c-1.35,0.72-2.87,1.07-4.56,1.07
		C3195.22,715.42,3193.7,715.06,3192.35,714.34 M3199.11,711.09c0.66-0.38,1.18-0.92,1.56-1.61c0.38-0.7,0.57-1.49,0.57-2.39
		c0-0.9-0.19-1.7-0.57-2.39c-0.38-0.69-0.9-1.23-1.56-1.61c-0.66-0.38-1.39-0.57-2.2-0.57c-0.81,0-1.54,0.19-2.2,0.57
		c-0.66,0.38-1.17,0.92-1.56,1.61c-0.38,0.7-0.57,1.49-0.57,2.39c0,0.9,0.19,1.7,0.57,2.39c0.38,0.69,0.9,1.23,1.56,1.61
		c0.66,0.38,1.39,0.57,2.2,0.57C3197.72,711.66,3198.45,711.47,3199.11,711.09"/>
	<polygon class="st0" points="3244.48,711.5 3244.48,715.1 3230.13,715.1 3230.13,712.26 3238.21,702.67 3230.34,702.67 
		3230.34,699.08 3244.14,699.08 3244.14,701.92 3236.06,711.5 	"/>
	<path class="st0" d="M3280.08,711.98h-6.77l-1.26,3.11h-4.62l7.07-16.02h4.46l7.09,16.02h-4.71L3280.08,711.98z M3278.76,708.64
		l-2.06-5.13l-2.06,5.13H3278.76z"/>
	<path class="st0" d="M3163.48,584.9c-5.53,0.35-10.03,3.26-14.59,5.99c-1.28,0.76-2.25,1.47-3.79,0.32
		c-0.62-0.47-2.44-0.37-2.92,0.17c-2.34,2.67-4.42,5.58-6.59,8.4c0.28,0.34,0.57,0.68,0.85,1.02c2.65-1.44,5.3-2.88,7.95-4.32
		c0.18,0.29,0.36,0.57,0.53,0.86c-0.33,0.29-0.64,0.61-0.96,0.91c0.65,0.91,1.33,2,1.8,3.03c0.57-0.22,1.15-0.41,1.71-0.64
		c0.14,0.24,0.28,0.48,0.42,0.72c-2.36,1.82-4.72,3.64-7.45,5.75c1.03,0.42,1.55,0.85,1.91,0.74c3.07-0.88,6.15-1.73,9.12-2.9
		c0.7-0.27,1.47-1.8,1.31-2.54c-0.38-1.68,0.41-2.39,1.52-3.26c4.26-3.34,8.5-6.72,10.85-11.81c0.31-0.66,0.36-1.45,0.53-2.18
		C3164.96,585.07,3164.21,584.85,3163.48,584.9 M3153.32,596.67c-1.21,0.4-2.52-0.27-2.91-1.48c-0.4-1.21,0.27-2.52,1.48-2.91
		c1.21-0.4,2.52,0.27,2.91,1.48C3155.2,594.97,3154.53,596.28,3153.32,596.67"/>
	<path class="st0" d="M3017.03,630.65l13.38,6.5c-7.63,14.6-22.8,24.59-40.33,24.59c-9.05,0-17.53-2.73-24.69-7.35
		c-8.48-5.56-15.08-13.95-18.47-23.74c-1.41-4.52-2.26-9.33-2.26-14.42v-1.6v-1.6c0-5.09,0.85-9.89,2.26-14.42
		c3.39-9.8,9.99-18.19,18.47-23.74c7.16-4.62,15.64-7.35,24.69-7.35c17.53,0,32.69,9.99,40.33,24.5l-13.38,6.6l-5.28,2.64
		c-0.47-0.94-1.04-1.79-1.6-2.64c-4.52-6.22-11.78-10.27-20.07-10.27c-8.2,0-15.55,4.05-20.07,10.27
		c-2.83,4.05-4.62,9.04-4.62,14.42v1.6v1.6c0,5.37,1.79,10.36,4.62,14.42c4.52,6.22,11.87,10.27,20.07,10.27
		c8.29,0,15.55-4.05,20.07-10.27c0.56-0.85,1.13-1.7,1.6-2.64L3017.03,630.65z"/>
	<polygon class="st0" points="3307.05,567.53 3307.05,604.27 3307.05,625 3307.05,661.75 3286.33,661.75 3286.33,625 
		3286.33,604.27 3286.33,567.53 	"/>
	<path class="st0" d="M3140.97,602.24c-3.98,1.93-7.96,3.86-11.95,5.79c-1.39,0.67-2.79,1.35-4.3,1.65c-1.51,0.3-3.16,0.2-4.47-0.62
		c-1.14-0.72-1.9-1.9-2.63-3.04c-0.15-0.24-0.3-0.48-0.46-0.72l-7.97-15.26l-11.68-22.52l-11.68,22.52l-23.08,44.38l-2.71,5.2
		c4.44-1.98,31.62-12.87,32.51-13.18l1.28-0.44c0.97-0.33,1.95-0.67,2.84-1.19c-0.83,0.1-1.71,0-2.44-0.41
		c-0.73-0.41-1.3-1.16-1.36-1.99c-0.01-0.08,0-0.19,0.01-0.3c0.03-0.45,0.16-0.89,0.37-1.29l4.28-8.25l3.99,7.66
		c0.61,1.17,2,1.68,3.23,1.2c0.01,0,0.01-0.01,0.02-0.01C3107.37,620.36,3134.93,606.74,3140.97,602.24"/>
	<path class="st0" d="M3146.06,663.14l-13.68-26.27l-8.33-15.94c-0.18-0.35-0.6-0.49-0.95-0.32c-2.89,1.4-10.69,4.6-11.66,4.98
		c-0.03,0.01-0.07,0.03-0.1,0.05c-0.63,0.35-1.24,0.74-1.82,1.17c-0.36,0.29-1.6,1.89-1.76,2.25c-0.26,0.65-0.45,1.33-0.56,2.02
		c0,0.01,0,0.01,0,0.02c-0.11,0.99,0.06,1.99,0.46,2.91c0.51,1.15,1.24,2.8,1.27,2.87c0,0,0,0,0,0l14.02,26.93
		c0.13,0.24,0.37,0.39,0.64,0.39h21.83C3145.96,664.19,3146.31,663.62,3146.06,663.14"/>
	<path class="st0" d="M3086.63,635.89c-0.57,0.29-1.15,0.57-1.73,0.85c-2.55,1.2-5.16,2.24-7.75,3.33
		c-0.66,0.28-1.33,0.56-1.99,0.85c-1.36,0.59-2.73,1.18-4.1,1.75c-1.19,0.5-2.39,0.98-3.59,1.47c-0.9,0.38-1.79,0.78-2.68,1.19
		c-1.36,0.62-2.69,1.29-4.05,1.91c-0.55,0.25-1.12,0.5-1.69,0.72c-1.66,0.63-3.03,1.83-3.85,3.4l-1.49,2.86l-1.79,3.49l-3.13,6.01
		c-0.12,0.23,0.05,0.49,0.3,0.49h22.7c0.13,0,0.24-0.07,0.3-0.18l3.3-6.32l7.75-15.03c0.21-0.4,0.45-0.79,0.71-1.15
		c1.78-2.44,3.76-4.71,6.14-6.57c0.01-0.01,0.01-0.01,0.02-0.02c0.32-0.25,0-0.76-0.36-0.57
		C3088.6,634.9,3087.53,635.47,3086.63,635.89L3086.63,635.89z"/>
	<path class="st0" d="M3198.67,567.53h-21.28v10.55C3184.05,573.82,3191.2,570.28,3198.67,567.53"/>
	<path class="st0" d="M3253.62,588.35v-20.82h-39.46c-12.68,2.07-25.06,6.12-36.77,11.86v8.96v15.92v10.37V625v15.92v20.82h76.23
		v-20.82h-55.5V625h49v-20.73h-49v-15.92H3253.62z"/>
	<path class="st0" d="M3364.15,651.47V625v-20.73v-36.75h-20.73v36.75V625v32.23C3350.46,655.9,3357.39,653.96,3364.15,651.47"/>
	<path class="st0" d="M3343.43,661.56v0.18h20.73v-7.41C3357.53,657.41,3350.57,659.83,3343.43,661.56"/>
</g>
<path class="st0" d="M1854.09,888.85c-3.29,0.21-5.97,1.94-8.67,3.56c-0.76,0.46-1.34,0.87-2.25,0.19c-0.37-0.28-1.45-0.22-1.73,0.1
	c-1.39,1.59-2.63,3.32-3.92,4.99c0.17,0.2,0.34,0.4,0.51,0.61c1.58-0.86,3.15-1.71,4.73-2.57c0.11,0.17,0.21,0.34,0.32,0.51
	c-0.19,0.17-0.38,0.36-0.57,0.54c0.39,0.54,0.79,1.19,1.07,1.8c0.34-0.13,0.68-0.25,1.02-0.38l0.25,0.43
	c-1.4,1.08-2.81,2.17-4.43,3.42c0.61,0.25,0.92,0.51,1.14,0.44c1.82-0.52,3.66-1.03,5.42-1.72c0.42-0.16,0.88-1.07,0.78-1.51
	c-0.22-1,0.24-1.42,0.91-1.94c2.53-1.98,5.05-4,6.45-7.02c0.18-0.39,0.21-0.86,0.31-1.29
	C1854.97,888.96,1854.53,888.83,1854.09,888.85 M1848.05,895.85c-0.72,0.24-1.5-0.16-1.73-0.88c-0.23-0.72,0.16-1.5,0.88-1.73
	c0.72-0.24,1.5,0.16,1.73,0.88C1849.17,894.84,1848.77,895.62,1848.05,895.85"/>
<path class="st0" d="M1767.02,916.06l7.95,3.87c-4.54,8.68-13.56,14.62-23.98,14.62c-5.38,0-10.42-1.62-14.68-4.37
	c-5.04-3.3-8.96-8.29-10.98-14.12c-0.84-2.69-1.34-5.55-1.34-8.57v-0.95v-0.95c0-3.03,0.5-5.88,1.34-8.57
	c2.02-5.83,5.94-10.81,10.98-14.12c4.26-2.74,9.3-4.37,14.68-4.37c10.42,0,19.44,5.94,23.98,14.57l-7.95,3.92l-3.14,1.57
	c-0.28-0.56-0.62-1.06-0.95-1.57c-2.69-3.7-7-6.11-11.93-6.11c-4.88,0-9.24,2.41-11.93,6.11c-1.68,2.41-2.74,5.38-2.74,8.57v0.95
	v0.95c0,3.19,1.06,6.16,2.74,8.57c2.69,3.7,7.06,6.11,11.93,6.11c4.93,0,9.24-2.41,11.93-6.11c0.34-0.5,0.67-1.01,0.95-1.57
	L1767.02,916.06z"/>
<polygon class="st0" points="1939.46,878.52 1939.46,900.37 1939.46,912.7 1939.46,934.54 1927.13,934.54 1927.13,912.7 
	1927.13,900.37 1927.13,878.52 "/>
<path class="st0" d="M1840.71,899.17c-2.37,1.15-4.73,2.3-7.1,3.44c-0.82,0.4-1.66,0.8-2.56,0.98c-0.9,0.18-1.88,0.12-2.65-0.37
	c-0.68-0.43-1.13-1.13-1.56-1.81c-0.09-0.14-0.18-0.29-0.27-0.43l-4.74-9.07l-6.95-13.39l-6.95,13.39l-13.72,26.39l-1.61,3.09
	c2.64-1.18,18.8-7.66,19.33-7.84c0.25-0.09,0.51-0.17,0.76-0.26c0.58-0.2,1.16-0.4,1.69-0.71c-0.49,0.06-1.02,0-1.45-0.24
	c-0.43-0.24-0.77-0.69-0.81-1.18c0-0.05,0-0.11,0-0.18c0.02-0.27,0.1-0.53,0.22-0.77l2.55-4.9l2.37,4.55c0.36,0.7,1.19,1,1.92,0.71
	c0,0,0.01,0,0.01,0C1820.73,909.94,1837.12,901.84,1840.71,899.17"/>
<path class="st0" d="M1843.73,935.37l-8.13-15.62l-4.95-9.48c-0.11-0.21-0.36-0.29-0.57-0.19c-1.72,0.83-6.36,2.73-6.93,2.96
	c-0.02,0.01-0.04,0.02-0.06,0.03c-0.38,0.21-0.74,0.44-1.08,0.7c-0.22,0.17-0.95,1.12-1.05,1.34c-0.15,0.39-0.27,0.79-0.34,1.2
	c0,0,0,0.01,0,0.01c-0.06,0.59,0.03,1.19,0.27,1.73c0.3,0.68,0.74,1.67,0.75,1.7c0,0,0,0,0,0l8.34,16.01
	c0.07,0.14,0.22,0.23,0.38,0.23h12.98C1843.67,936,1843.88,935.66,1843.73,935.37"/>
<path class="st0" d="M1808.4,919.17c-0.34,0.17-0.68,0.34-1.03,0.5c-1.52,0.71-3.07,1.33-4.61,1.98c-0.39,0.17-0.79,0.34-1.18,0.51
	c-0.81,0.35-1.62,0.7-2.44,1.04c-0.71,0.3-1.42,0.58-2.13,0.88c-0.54,0.23-1.07,0.46-1.59,0.71c-0.81,0.37-1.6,0.77-2.41,1.14
	c-0.33,0.15-0.66,0.3-1.01,0.43c-0.99,0.37-1.8,1.09-2.29,2.02l-0.89,1.7l-1.07,2.07l-1.86,3.57c-0.07,0.13,0.03,0.29,0.18,0.29
	h13.5c0.07,0,0.14-0.04,0.18-0.11l1.96-3.76l4.61-8.94c0.12-0.24,0.27-0.47,0.42-0.68c1.06-1.45,2.24-2.8,3.65-3.91
	c0,0,0.01-0.01,0.01-0.01c0.19-0.15,0-0.45-0.22-0.34C1809.57,918.58,1808.94,918.92,1808.4,919.17L1808.4,919.17z"/>
<path class="st0" d="M1875.02,878.52h-12.65v6.28C1866.32,882.27,1870.57,880.16,1875.02,878.52"/>
<path class="st0" d="M1907.69,890.9v-12.38h-23.46c-7.54,1.23-14.9,3.64-21.86,7.05v5.33v9.47v6.16v6.16v9.47v12.38h45.32v-12.38
	h-33v-9.47h29.13v-12.32h-29.13v-9.47H1907.69z"/>
<path class="st0" d="M1973.41,928.43V912.7v-12.32v-21.85h-12.32v21.85v12.32v19.16C1965.26,931.07,1969.38,929.91,1973.41,928.43"
	/>
<path class="st0" d="M1961.08,934.44v0.11h12.32v-4.41C1969.46,931.96,1965.33,933.4,1961.08,934.44"/>
<g>
	<path class="st0" d="M545.68,902.23c-3.29,0.21-5.97,1.94-8.67,3.56c-0.76,0.46-1.34,0.87-2.25,0.19c-0.37-0.28-1.45-0.22-1.73,0.1
		c-1.39,1.59-2.63,3.32-3.92,4.99c0.17,0.2,0.34,0.4,0.51,0.61c1.58-0.86,3.15-1.71,4.73-2.57c0.11,0.17,0.21,0.34,0.32,0.51
		c-0.19,0.17-0.38,0.36-0.57,0.54c0.39,0.54,0.79,1.19,1.07,1.8c0.34-0.13,0.68-0.25,1.02-0.38l0.25,0.43
		c-1.4,1.08-2.81,2.17-4.43,3.42c0.61,0.25,0.92,0.51,1.14,0.44c1.82-0.52,3.66-1.03,5.42-1.72c0.42-0.16,0.88-1.07,0.78-1.51
		c-0.22-1,0.24-1.42,0.91-1.94c2.53-1.98,5.05-4,6.45-7.02c0.18-0.4,0.21-0.86,0.31-1.29C546.55,902.34,546.11,902.21,545.68,902.23
		 M539.63,909.23c-0.72,0.23-1.5-0.16-1.73-0.88c-0.23-0.72,0.16-1.5,0.88-1.73c0.72-0.24,1.5,0.16,1.73,0.88
		C540.75,908.22,540.36,909,539.63,909.23"/>
	<path class="st0" d="M458.6,929.44l7.95,3.87c-4.54,8.68-13.56,14.62-23.98,14.62c-5.38,0-10.42-1.62-14.68-4.37
		c-5.04-3.3-8.96-8.29-10.98-14.12c-0.84-2.69-1.34-5.55-1.34-8.57v-0.95v-0.95c0-3.03,0.5-5.88,1.34-8.57
		c2.02-5.83,5.94-10.81,10.98-14.12c4.26-2.74,9.3-4.37,14.68-4.37c10.42,0,19.44,5.94,23.98,14.57l-7.95,3.92l-3.14,1.57
		c-0.28-0.56-0.62-1.06-0.95-1.57c-2.69-3.7-7-6.11-11.93-6.11c-4.88,0-9.24,2.41-11.93,6.11c-1.68,2.41-2.74,5.38-2.74,8.57v0.95
		v0.95c0,3.19,1.06,6.16,2.74,8.57c2.69,3.7,7.06,6.11,11.93,6.11c4.93,0,9.24-2.41,11.93-6.11c0.34-0.5,0.67-1.01,0.95-1.57
		L458.6,929.44z"/>
	<polygon class="st0" points="631.04,891.9 631.04,913.75 631.04,926.08 631.04,947.92 618.72,947.92 618.72,926.08 618.72,913.75 
		618.72,891.9 	"/>
	<path class="st0" d="M532.29,912.55c-2.37,1.15-4.74,2.3-7.1,3.44c-0.82,0.4-1.66,0.8-2.56,0.98c-0.9,0.18-1.88,0.12-2.65-0.37
		c-0.68-0.43-1.13-1.13-1.56-1.81c-0.09-0.14-0.18-0.29-0.27-0.43l-4.74-9.07l-6.95-13.39l-6.95,13.39l-13.72,26.39l-1.61,3.09
		c2.64-1.18,18.8-7.66,19.33-7.84c0.25-0.09,0.51-0.17,0.76-0.26c0.58-0.2,1.16-0.4,1.69-0.71c-0.5,0.06-1.02,0-1.45-0.24
		c-0.43-0.24-0.77-0.69-0.81-1.18c0-0.05,0-0.11,0-0.18c0.02-0.27,0.1-0.53,0.22-0.77l2.55-4.9l2.37,4.55c0.36,0.7,1.19,1,1.92,0.71
		c0,0,0.01,0,0.01,0C512.31,923.32,528.7,915.22,532.29,912.55"/>
	<path class="st0" d="M535.32,948.75l-8.13-15.62l-4.95-9.48c-0.11-0.21-0.36-0.29-0.57-0.19c-1.72,0.83-6.36,2.73-6.93,2.96
		c-0.02,0.01-0.04,0.02-0.06,0.03c-0.38,0.21-0.74,0.44-1.08,0.7c-0.22,0.17-0.95,1.12-1.05,1.34c-0.15,0.39-0.27,0.79-0.34,1.2
		c0,0,0,0.01,0,0.01c-0.06,0.59,0.04,1.19,0.27,1.73c0.3,0.68,0.74,1.67,0.75,1.7c0,0,0,0,0,0l8.34,16.01
		c0.07,0.14,0.22,0.23,0.38,0.23h12.98C535.26,949.38,535.47,949.04,535.32,948.75"/>
	<path class="st0" d="M499.98,932.55c-0.34,0.17-0.68,0.34-1.03,0.5c-1.51,0.71-3.07,1.33-4.61,1.98c-0.39,0.17-0.79,0.34-1.18,0.5
		c-0.81,0.35-1.62,0.7-2.44,1.04c-0.71,0.3-1.42,0.58-2.13,0.88c-0.54,0.23-1.07,0.46-1.6,0.71c-0.81,0.37-1.6,0.77-2.41,1.14
		c-0.33,0.15-0.66,0.3-1,0.43c-0.99,0.37-1.8,1.09-2.29,2.02l-0.89,1.7l-1.07,2.07l-1.86,3.57c-0.07,0.13,0.03,0.29,0.18,0.29h13.5
		c0.08,0,0.14-0.04,0.18-0.11l1.96-3.76l4.61-8.94c0.12-0.24,0.27-0.47,0.42-0.68c1.06-1.45,2.24-2.8,3.65-3.91
		c0,0,0.01-0.01,0.01-0.01c0.19-0.15,0-0.45-0.22-0.34C501.15,931.96,500.52,932.3,499.98,932.55L499.98,932.55z"/>
	<path class="st0" d="M566.6,891.9h-12.65v6.28C557.9,895.65,562.16,893.54,566.6,891.9"/>
	<path class="st0" d="M599.27,904.28V891.9h-23.46c-7.54,1.23-14.9,3.64-21.86,7.05v5.33v9.47v6.16v6.16v9.47v12.38h45.32v-12.38
		h-33v-9.47h29.13v-12.33h-29.13v-9.47H599.27z"/>
	<path class="st0" d="M664.99,941.81v-15.74v-12.33V891.9h-12.32v21.85v12.33v19.16C656.85,944.45,660.97,943.29,664.99,941.81"/>
	<path class="st0" d="M652.67,947.82v0.11h12.32v-4.41C661.05,945.34,656.91,946.78,652.67,947.82"/>
</g>
<rect x="1308.7" y="-957.08" class="st2" width="1080" height="2001.09"/>
</svg>
