<?xml version="1.0" encoding="utf-8"?>
<!-- Generator: Adobe Illustrator 24.2.0, SVG Export Plug-In . SVG Version: 6.00 Build 0)  -->
<svg version="1.1" id="Capa_1" xmlns="http://www.w3.org/2000/svg" xmlns:xlink="http://www.w3.org/1999/xlink" x="0px" y="0px"
	 viewBox="0 0 651.97 315.45" style="enable-background:new 0 0 651.97 315.45;" xml:space="preserve">
<style type="text/css">
	.st0{fill:#151518;}
	.st1{fill:#FFFFFF;}
	.st2{fill:none;}
</style>
<g>
	<rect x="-1519.73" y="-1016.62" class="st0" width="1080" height="532.88"/>
	<g>
		<g>
			<polygon class="st1" points="-1171.32,-610.62 -1171.4,-624.5 -1178.13,-613.2 -1181.43,-613.2 -1188.12,-624.12 
				-1188.12,-610.62 -1194.97,-610.62 -1194.97,-636.8 -1188.87,-636.8 -1179.67,-621.69 -1170.69,-636.8 -1164.59,-636.8 
				-1164.52,-610.62 			"/>
			<polygon class="st1" points="-1100.84,-616.34 -1100.84,-610.61 -1121.87,-610.61 -1121.87,-636.8 -1101.33,-636.8 
				-1101.33,-631.08 -1114.53,-631.08 -1114.53,-626.66 -1102.9,-626.66 -1102.9,-621.13 -1114.53,-621.13 -1114.53,-616.34 			"/>
			<polygon class="st1" points="-1034.4,-636.8 -1034.4,-610.62 -1040.5,-610.62 -1052.06,-624.57 -1052.06,-610.62 
				-1059.32,-610.62 -1059.32,-636.8 -1053.22,-636.8 -1041.66,-622.85 -1041.66,-636.8 			"/>
			<path class="st1" d="M-991.75-636.8h12.38c2.87,0,5.41,0.54,7.63,1.61c2.22,1.07,3.94,2.59,5.16,4.56
				c1.22,1.97,1.83,4.28,1.83,6.92c0,2.64-0.61,4.95-1.83,6.92c-1.22,1.97-2.94,3.49-5.16,4.56c-2.22,1.07-4.76,1.61-7.63,1.61
				h-12.38V-636.8z M-979.67-616.53c2.24,0,4.05-0.64,5.41-1.91c1.36-1.27,2.04-3.03,2.04-5.28s-0.68-4-2.04-5.27
				c-1.36-1.27-3.16-1.91-5.41-1.91h-4.68v14.36H-979.67z"/>
			<path class="st1" d="M-917.7-611.85c-2.21-1.17-3.94-2.79-5.2-4.86c-1.26-2.07-1.89-4.4-1.89-7c0-2.59,0.63-4.93,1.89-7
				c1.26-2.07,2.99-3.69,5.2-4.86c2.21-1.17,4.7-1.76,7.46-1.76c2.77,0,5.26,0.59,7.46,1.76c2.21,1.17,3.94,2.79,5.2,4.86
				c1.26,2.07,1.89,4.4,1.89,7c0,2.59-0.63,4.93-1.89,7c-1.26,2.07-2.99,3.69-5.2,4.86c-2.21,1.17-4.7,1.76-7.46,1.76
				C-913-610.09-915.49-610.68-917.7-611.85 M-906.64-617.16c1.07-0.62,1.92-1.5,2.54-2.64c0.62-1.13,0.93-2.44,0.93-3.91
				c0-1.47-0.31-2.77-0.93-3.91c-0.62-1.14-1.47-2.02-2.54-2.64c-1.07-0.62-2.27-0.93-3.59-0.93c-1.32,0-2.52,0.31-3.59,0.93
				c-1.07,0.62-1.92,1.5-2.54,2.64c-0.62,1.14-0.93,2.44-0.93,3.91c0,1.47,0.31,2.78,0.93,3.91c0.62,1.14,1.47,2.02,2.54,2.64
				c1.07,0.62,2.27,0.94,3.59,0.94C-908.91-616.23-907.72-616.54-906.64-617.16"/>
			<polygon class="st1" points="-832.46,-616.49 -832.46,-610.62 -855.92,-610.62 -855.92,-615.25 -842.71,-630.93 -855.58,-630.93 
				-855.58,-636.8 -833.02,-636.8 -833.02,-632.16 -846.23,-616.49 			"/>
			<path class="st1" d="M-774.25-615.7h-11.07l-2.06,5.09h-7.56l11.56-26.19h7.29l11.6,26.19h-7.71L-774.25-615.7z M-776.42-621.17
				l-3.37-8.38l-3.37,8.38H-776.42z"/>
		</g>
		<g>
			<polygon class="st1" points="-1005.77,-896.62 -1011.2,-904.73 -1016.55,-896.62 -1025,-896.62 -1015.46,-909.86 
				-1024.59,-922.8 -1016.25,-922.8 -1011.01,-915.25 -1005.85,-922.8 -997.84,-922.8 -1006.97,-910.16 -997.24,-896.62 			"/>
			<polygon class="st1" points="-940.98,-896.62 -946.4,-904.73 -951.75,-896.62 -960.21,-896.62 -950.67,-909.86 -959.8,-922.8 
				-951.45,-922.8 -946.22,-915.25 -941.05,-922.8 -933.05,-922.8 -942.18,-910.16 -932.45,-896.62 			"/>
			<path class="st1" d="M-963.89-823.49c-9.04,0.57-16.4,5.33-23.85,9.8c-2.09,1.25-3.68,2.4-6.19,0.52
				c-1.02-0.76-3.99-0.6-4.77,0.28c-3.83,4.36-7.23,9.11-10.78,13.73c0.46,0.56,0.93,1.11,1.39,1.67c4.33-2.35,8.66-4.71,13-7.07
				c0.29,0.47,0.58,0.93,0.87,1.4c-0.53,0.48-1.04,0.99-1.56,1.49c1.06,1.48,2.17,3.28,2.94,4.96c0.93-0.36,1.88-0.67,2.8-1.05
				c0.23,0.39,0.46,0.79,0.69,1.18c-3.86,2.98-7.72,5.96-12.18,9.4c1.69,0.69,2.53,1.39,3.13,1.22c5.01-1.44,10.06-2.83,14.91-4.73
				c1.14-0.45,2.41-2.94,2.14-4.16c-0.62-2.74,0.67-3.9,2.49-5.32c6.97-5.45,13.9-10.99,17.74-19.31c0.5-1.09,0.59-2.37,0.86-3.56
				C-961.48-823.2-962.7-823.56-963.89-823.49 M-980.51-804.24c-1.99,0.65-4.12-0.44-4.76-2.43c-0.65-1.99,0.44-4.12,2.43-4.76
				c1.98-0.65,4.12,0.44,4.76,2.43C-977.44-807.02-978.52-804.89-980.51-804.24"/>
			<path class="st1" d="M-1203.34-748.68l21.88,10.63c-12.48,23.88-37.28,40.21-65.94,40.21c-14.79,0-28.65-4.47-40.36-12.02
				c-13.86-9.09-24.65-22.8-30.19-38.82c-2.31-7.39-3.7-15.25-3.7-23.57v-2.62v-2.62c0-8.32,1.39-16.17,3.7-23.57
				c5.55-16.02,16.33-29.73,30.19-38.82c11.71-7.55,25.57-12.02,40.36-12.02c28.66,0,53.46,16.33,65.94,40.05l-21.88,10.78
				l-8.63,4.31c-0.77-1.54-1.69-2.93-2.62-4.31c-7.39-10.17-19.26-16.79-32.81-16.79c-13.4,0-25.42,6.62-32.81,16.79
				c-4.62,6.62-7.55,14.79-7.55,23.57v2.62v2.62c0,8.78,2.93,16.95,7.55,23.57c7.39,10.17,19.41,16.79,32.81,16.79
				c13.56,0,25.42-6.62,32.81-16.79c0.92-1.39,1.85-2.77,2.62-4.31L-1203.34-748.68z"/>
			<polygon class="st1" points="-729.15,-851.89 -729.15,-791.81 -729.15,-757.92 -729.15,-697.84 -763.05,-697.84 -763.05,-757.92 
				-763.05,-791.81 -763.05,-851.89 			"/>
			<path class="st1" d="M-1000.69-795.13c-6.51,3.16-13.02,6.31-19.53,9.47c-2.27,1.1-4.56,2.21-7.03,2.7
				c-2.47,0.5-5.17,0.32-7.3-1.02c-1.87-1.18-3.11-3.1-4.3-4.97c-0.25-0.39-0.5-0.79-0.75-1.18l-13.03-24.95l-19.1-36.82
				l-19.1,36.82l-37.74,72.56l-4.43,8.5c7.26-3.24,51.7-21.05,53.15-21.55c0.69-0.24,1.39-0.48,2.08-0.72
				c1.59-0.55,3.19-1.1,4.65-1.95c-1.36,0.16-2.79-0.01-3.99-0.68c-1.2-0.67-2.12-1.89-2.23-3.26c-0.01-0.13-0.01-0.31,0.01-0.49
				c0.05-0.74,0.27-1.46,0.61-2.12l7-13.48l6.53,12.52c1,1.91,3.28,2.76,5.28,1.95l0.04-0.02
				C-1055.64-765.5-1010.58-787.78-1000.69-795.13"/>
			<path class="st1" d="M-992.38-695.56l-22.36-42.95l-13.61-26.07c-0.3-0.56-0.99-0.79-1.56-0.52c-4.72,2.29-17.48,7.52-19.06,8.14
				c-0.05,0.02-0.11,0.05-0.16,0.08c-1.03,0.58-2.03,1.21-2.98,1.91c-0.6,0.48-2.62,3.09-2.88,3.68c-0.42,1.07-0.74,2.17-0.92,3.3
				c0,0.01,0,0.02,0,0.03c-0.17,1.62,0.1,3.26,0.76,4.75c0.83,1.88,2.02,4.58,2.07,4.68c0,0,0,0.01,0,0.01l22.93,44.04
				c0.2,0.39,0.6,0.63,1.04,0.63h35.7C-992.54-693.84-991.97-694.78-992.38-695.56"/>
			<path class="st1" d="M-1089.54-740.12c-0.94,0.48-1.88,0.94-2.83,1.38c-4.16,1.96-8.44,3.66-12.68,5.44
				c-1.09,0.46-2.17,0.92-3.25,1.39c-2.23,0.96-4.46,1.92-6.7,2.86c-1.95,0.82-3.91,1.59-5.86,2.41c-1.47,0.63-2.93,1.28-4.39,1.94
				c-2.22,1.02-4.4,2.11-6.63,3.12c-0.91,0.41-1.83,0.82-2.77,1.17c-2.71,1.02-4.95,2.99-6.29,5.56l-2.44,4.67l-2.93,5.7l-5.12,9.82
				c-0.19,0.37,0.07,0.81,0.49,0.81h37.11c0.2,0,0.39-0.11,0.49-0.3l5.39-10.33l12.68-24.57c0.34-0.66,0.73-1.29,1.16-1.89
				c2.91-4,6.15-7.7,10.04-10.75c0.01-0.01,0.02-0.02,0.03-0.02c0.53-0.41,0-1.24-0.59-0.93
				C-1086.32-741.74-1088.07-740.81-1089.54-740.12L-1089.54-740.12z"/>
			<path class="st1" d="M-906.35-851.89h-34.79v17.26C-930.27-841.59-918.57-847.38-906.35-851.89"/>
			<path class="st1" d="M-816.51-817.84v-34.04h-64.51c-20.72,3.39-40.98,10.01-60.12,19.39v14.65v26.04v16.95v16.95v26.03v34.05
				h124.63v-34.05h-90.74v-26.03h80.11v-33.89h-80.11v-26.04H-816.51z"/>
			<path class="st1" d="M-635.8-714.64v-43.27v-33.89v-60.08h-33.89v60.08v33.89v52.69C-658.19-707.4-646.86-710.57-635.8-714.64"/>
			<path class="st1" d="M-669.69-698.14v0.3h33.89v-12.12C-646.63-704.93-658.01-700.98-669.69-698.14"/>
		</g>
	</g>
</g>
<g>
	<rect x="-198.07" y="-1016.62" class="st0" width="1080" height="532.88"/>
	<g>
		<g>
			<polygon class="st1" points="150.33,-610.62 150.26,-624.5 143.52,-613.2 140.23,-613.2 133.53,-624.12 133.53,-610.62 
				126.69,-610.62 126.69,-636.8 132.79,-636.8 141.99,-621.69 150.97,-636.8 157.07,-636.8 157.14,-610.62 			"/>
			<polygon class="st1" points="220.81,-616.34 220.81,-610.61 199.79,-610.61 199.79,-636.8 220.33,-636.8 220.33,-631.08 
				207.12,-631.08 207.12,-626.66 218.75,-626.66 218.75,-621.13 207.12,-621.13 207.12,-616.34 			"/>
			<polygon class="st1" points="287.25,-636.8 287.25,-610.62 281.16,-610.62 269.6,-624.57 269.6,-610.62 262.34,-610.62 
				262.34,-636.8 268.44,-636.8 280,-622.85 280,-636.8 			"/>
			<path class="st1" d="M329.9-636.8h12.38c2.87,0,5.41,0.54,7.63,1.61c2.22,1.07,3.94,2.59,5.16,4.56
				c1.22,1.97,1.83,4.28,1.83,6.92c0,2.64-0.61,4.95-1.83,6.92c-1.22,1.97-2.94,3.49-5.16,4.56c-2.22,1.07-4.76,1.61-7.63,1.61
				H329.9V-636.8z M341.99-616.53c2.24,0,4.05-0.64,5.41-1.91c1.36-1.27,2.04-3.03,2.04-5.28s-0.68-4-2.04-5.27
				c-1.36-1.27-3.16-1.91-5.41-1.91h-4.68v14.36H341.99z"/>
			<path class="st1" d="M403.96-611.85c-2.21-1.17-3.94-2.79-5.2-4.86c-1.26-2.07-1.89-4.4-1.89-7c0-2.59,0.63-4.93,1.89-7
				c1.26-2.07,2.99-3.69,5.2-4.86c2.21-1.17,4.7-1.76,7.46-1.76c2.77,0,5.26,0.59,7.46,1.76c2.21,1.17,3.94,2.79,5.2,4.86
				c1.26,2.07,1.89,4.4,1.89,7c0,2.59-0.63,4.93-1.89,7c-1.26,2.07-2.99,3.69-5.2,4.86c-2.21,1.17-4.7,1.76-7.46,1.76
				C408.65-610.09,406.16-610.68,403.96-611.85 M415.01-617.16c1.07-0.62,1.92-1.5,2.54-2.64c0.62-1.13,0.93-2.44,0.93-3.91
				c0-1.47-0.31-2.77-0.93-3.91c-0.62-1.14-1.47-2.02-2.54-2.64c-1.07-0.62-2.27-0.93-3.59-0.93c-1.32,0-2.52,0.31-3.59,0.93
				c-1.07,0.62-1.92,1.5-2.54,2.64c-0.62,1.14-0.93,2.44-0.93,3.91c0,1.47,0.31,2.78,0.93,3.91c0.62,1.14,1.47,2.02,2.54,2.64
				c1.07,0.62,2.27,0.94,3.59,0.94C412.74-616.23,413.94-616.54,415.01-617.16"/>
			<polygon class="st1" points="489.2,-616.49 489.2,-610.62 465.74,-610.62 465.74,-615.25 478.95,-630.93 466.08,-630.93 
				466.08,-636.8 488.63,-636.8 488.63,-632.16 475.43,-616.49 			"/>
			<path class="st1" d="M547.41-615.7h-11.07l-2.06,5.09h-7.56l11.56-26.19h7.29l11.6,26.19h-7.71L547.41-615.7z M545.24-621.17
				l-3.37-8.38l-3.37,8.38H545.24z"/>
		</g>
		<g>
			<polygon class="st1" points="315.88,-896.62 310.46,-904.73 305.11,-896.62 296.65,-896.62 306.19,-909.86 297.06,-922.8 
				305.41,-922.8 310.64,-915.25 315.81,-922.8 323.81,-922.8 314.68,-910.16 324.41,-896.62 			"/>
			<polygon class="st1" points="380.68,-896.62 375.25,-904.73 369.9,-896.62 361.45,-896.62 370.99,-909.86 361.86,-922.8 
				370.2,-922.8 375.44,-915.25 380.6,-922.8 388.61,-922.8 379.48,-910.16 389.21,-896.62 			"/>
			<path class="st1" d="M357.76-823.49c-9.04,0.57-16.4,5.33-23.85,9.8c-2.09,1.25-3.68,2.4-6.19,0.52
				c-1.02-0.76-3.99-0.6-4.77,0.28c-3.83,4.36-7.23,9.11-10.78,13.73c0.46,0.56,0.93,1.11,1.39,1.67c4.33-2.35,8.66-4.71,13-7.07
				c0.29,0.47,0.58,0.93,0.87,1.4c-0.53,0.48-1.04,0.99-1.56,1.49c1.06,1.48,2.17,3.28,2.94,4.96c0.93-0.36,1.88-0.67,2.8-1.05
				c0.23,0.39,0.46,0.79,0.69,1.18c-3.86,2.98-7.72,5.96-12.18,9.4c1.69,0.69,2.53,1.39,3.13,1.22c5.01-1.44,10.06-2.83,14.91-4.73
				c1.14-0.45,2.41-2.94,2.14-4.16c-0.62-2.74,0.67-3.9,2.49-5.32c6.97-5.45,13.9-10.99,17.74-19.31c0.5-1.09,0.59-2.37,0.86-3.56
				C360.18-823.2,358.96-823.56,357.76-823.49 M341.15-804.24c-1.99,0.65-4.12-0.44-4.76-2.43c-0.65-1.99,0.44-4.12,2.43-4.76
				c1.98-0.65,4.12,0.44,4.76,2.43C344.22-807.02,343.13-804.89,341.15-804.24"/>
			<path class="st1" d="M118.31-748.68l21.88,10.63c-12.48,23.88-37.28,40.21-65.93,40.21c-14.79,0-28.65-4.47-40.36-12.02
				c-13.87-9.09-24.65-22.8-30.2-38.82C1.39-756.07,0-763.93,0-772.24v-2.62v-2.62c0-8.32,1.39-16.17,3.7-23.57
				c5.55-16.02,16.33-29.73,30.2-38.82c11.71-7.55,25.57-12.02,40.36-12.02c28.65,0,53.46,16.33,65.93,40.05l-21.88,10.78
				l-8.63,4.31c-0.77-1.54-1.69-2.93-2.62-4.31c-7.39-10.17-19.26-16.79-32.81-16.79c-13.4,0-25.42,6.62-32.81,16.79
				c-4.62,6.62-7.55,14.79-7.55,23.57v2.62v2.62c0,8.78,2.93,16.95,7.55,23.57c7.39,10.17,19.41,16.79,32.81,16.79
				c13.56,0,25.42-6.62,32.81-16.79c0.92-1.39,1.85-2.77,2.62-4.31L118.31-748.68z"/>
			<polygon class="st1" points="592.5,-851.89 592.5,-791.81 592.5,-757.92 592.5,-697.84 558.61,-697.84 558.61,-757.92 
				558.61,-791.81 558.61,-851.89 			"/>
			<path class="st1" d="M320.96-795.13c-6.51,3.16-13.02,6.31-19.53,9.47c-2.27,1.1-4.56,2.21-7.03,2.7
				c-2.47,0.5-5.17,0.32-7.3-1.02c-1.87-1.18-3.11-3.1-4.3-4.97c-0.25-0.39-0.5-0.79-0.75-1.18l-13.03-24.95l-19.1-36.82
				l-19.1,36.82l-37.74,72.56l-4.43,8.5c7.26-3.24,51.7-21.05,53.15-21.55c0.7-0.24,1.39-0.48,2.09-0.72
				c1.59-0.55,3.19-1.1,4.64-1.95c-1.36,0.16-2.79-0.01-3.99-0.68c-1.2-0.67-2.12-1.89-2.23-3.26c-0.01-0.13-0.01-0.31,0.01-0.49
				c0.05-0.74,0.27-1.46,0.61-2.12l7-13.48l6.53,12.52c1,1.91,3.28,2.76,5.28,1.95l0.04-0.02
				C266.01-765.5,311.08-787.78,320.96-795.13"/>
			<path class="st1" d="M329.28-695.56l-22.36-42.95l-13.61-26.07c-0.29-0.56-0.99-0.79-1.56-0.52c-4.72,2.29-17.48,7.52-19.07,8.14
				c-0.05,0.02-0.11,0.05-0.16,0.08c-1.03,0.58-2.03,1.21-2.98,1.91c-0.6,0.48-2.62,3.09-2.88,3.68c-0.42,1.07-0.74,2.17-0.92,3.3
				c0,0.01,0,0.02,0,0.03c-0.17,1.62,0.1,3.26,0.76,4.75c0.83,1.88,2.02,4.58,2.07,4.68c0,0,0,0.01,0,0.01l22.93,44.04
				c0.2,0.39,0.6,0.63,1.04,0.63h35.7C329.12-693.84,329.69-694.78,329.28-695.56"/>
			<path class="st1" d="M232.11-740.12c-0.94,0.48-1.88,0.94-2.83,1.38c-4.16,1.96-8.44,3.66-12.68,5.44
				c-1.09,0.46-2.17,0.92-3.25,1.39c-2.23,0.96-4.46,1.92-6.7,2.86c-1.95,0.82-3.91,1.59-5.86,2.41c-1.47,0.63-2.93,1.28-4.39,1.94
				c-2.22,1.02-4.4,2.11-6.63,3.12c-0.91,0.41-1.83,0.82-2.77,1.17c-2.71,1.02-4.95,2.99-6.29,5.56l-2.44,4.67l-2.93,5.7l-5.12,9.82
				c-0.19,0.37,0.07,0.81,0.49,0.81h37.12c0.2,0,0.39-0.11,0.49-0.3l5.39-10.33l12.68-24.57c0.34-0.66,0.73-1.29,1.16-1.89
				c2.91-4,6.15-7.7,10.04-10.75c0.01-0.01,0.02-0.02,0.03-0.02c0.53-0.41,0-1.24-0.6-0.93
				C235.33-741.74,233.59-740.81,232.11-740.12L232.11-740.12z"/>
			<path class="st1" d="M415.3-851.89h-34.79v17.26C391.39-841.59,403.08-847.38,415.3-851.89"/>
			<path class="st1" d="M505.14-817.84v-34.04h-64.51c-20.72,3.39-40.98,10.01-60.12,19.39v14.65v26.04v16.95v16.95v26.03v34.05
				h124.63v-34.05H414.4v-26.03h80.11v-33.89H414.4v-26.04H505.14z"/>
			<path class="st1" d="M685.86-714.64v-43.27v-33.89v-60.08h-33.89v60.08v33.89v52.69C663.46-707.4,674.8-710.57,685.86-714.64"/>
			<path class="st1" d="M651.97-698.14v0.3h33.89v-12.12C675.02-704.93,663.64-700.98,651.97-698.14"/>
		</g>
	</g>
</g>
<polygon class="st0" points="-1171.32,-60.64 -1171.4,-74.52 -1178.13,-63.22 -1181.43,-63.22 -1188.12,-74.14 -1188.12,-60.64 
	-1194.97,-60.64 -1194.97,-86.83 -1188.87,-86.83 -1179.67,-71.71 -1170.69,-86.83 -1164.59,-86.83 -1164.52,-60.64 "/>
<polygon class="st0" points="-1100.84,-66.36 -1100.84,-60.64 -1121.87,-60.64 -1121.87,-86.83 -1101.33,-86.83 -1101.33,-81.1 
	-1114.53,-81.1 -1114.53,-76.69 -1102.9,-76.69 -1102.9,-71.15 -1114.53,-71.15 -1114.53,-66.36 "/>
<polygon class="st0" points="-1034.4,-86.83 -1034.4,-60.64 -1040.5,-60.64 -1052.06,-74.59 -1052.06,-60.64 -1059.32,-60.64 
	-1059.32,-86.83 -1053.22,-86.83 -1041.66,-72.87 -1041.66,-86.83 "/>
<path class="st0" d="M-991.75-86.83h12.38c2.87,0,5.41,0.54,7.63,1.61c2.22,1.07,3.94,2.59,5.16,4.56c1.22,1.97,1.83,4.28,1.83,6.92
	c0,2.64-0.61,4.95-1.83,6.92c-1.22,1.97-2.94,3.49-5.16,4.56c-2.22,1.07-4.76,1.61-7.63,1.61h-12.38V-86.83z M-979.67-66.55
	c2.24,0,4.05-0.64,5.41-1.91c1.36-1.27,2.04-3.03,2.04-5.28s-0.68-4-2.04-5.27c-1.36-1.27-3.16-1.91-5.41-1.91h-4.68v14.36H-979.67z
	"/>
<path class="st0" d="M-917.7-61.87c-2.21-1.17-3.94-2.79-5.2-4.86c-1.26-2.07-1.89-4.4-1.89-7c0-2.59,0.63-4.93,1.89-7
	c1.26-2.07,2.99-3.69,5.2-4.86c2.21-1.17,4.7-1.76,7.46-1.76c2.77,0,5.26,0.59,7.46,1.76c2.21,1.17,3.94,2.79,5.2,4.86
	c1.26,2.07,1.89,4.4,1.89,7c0,2.59-0.63,4.93-1.89,7c-1.26,2.07-2.99,3.69-5.2,4.86c-2.21,1.17-4.7,1.76-7.46,1.76
	C-913-60.12-915.49-60.7-917.7-61.87 M-906.64-67.19c1.07-0.62,1.92-1.5,2.54-2.64c0.62-1.13,0.93-2.44,0.93-3.91
	c0-1.47-0.31-2.77-0.93-3.91c-0.62-1.13-1.47-2.01-2.54-2.64c-1.07-0.62-2.27-0.93-3.59-0.93c-1.32,0-2.52,0.31-3.59,0.93
	c-1.07,0.62-1.92,1.5-2.54,2.64c-0.62,1.14-0.93,2.44-0.93,3.91c0,1.47,0.31,2.78,0.93,3.91c0.62,1.13,1.47,2.01,2.54,2.64
	c1.07,0.62,2.27,0.94,3.59,0.94C-908.91-66.25-907.72-66.56-906.64-67.19"/>
<polygon class="st0" points="-832.46,-66.51 -832.46,-60.64 -855.92,-60.64 -855.92,-65.28 -842.71,-80.95 -855.58,-80.95 
	-855.58,-86.83 -833.02,-86.83 -833.02,-82.19 -846.23,-66.51 "/>
<path class="st0" d="M-774.25-65.73h-11.07l-2.06,5.09h-7.56l11.56-26.19h7.29l11.6,26.19h-7.71L-774.25-65.73z M-776.42-71.19
	l-3.37-8.38l-3.37,8.38H-776.42z"/>
<polygon class="st0" points="-1006.77,-346.64 -1012.2,-354.76 -1017.55,-346.64 -1026,-346.64 -1016.46,-359.88 -1025.59,-372.83 
	-1017.25,-372.83 -1012.01,-365.27 -1006.85,-372.83 -998.84,-372.83 -1007.97,-360.18 -998.24,-346.64 "/>
<polygon class="st0" points="-941.98,-346.64 -947.4,-354.76 -952.75,-346.64 -961.21,-346.64 -951.67,-359.88 -960.8,-372.83 
	-952.45,-372.83 -947.22,-365.27 -942.05,-372.83 -934.05,-372.83 -943.18,-360.18 -933.45,-346.64 "/>
<path class="st0" d="M-964.89-273.51c-9.04,0.57-16.4,5.33-23.85,9.8c-2.09,1.25-3.68,2.4-6.19,0.51c-1.02-0.76-3.99-0.6-4.77,0.28
	c-3.83,4.37-7.23,9.11-10.78,13.73l1.39,1.67c4.33-2.35,8.66-4.71,13-7.07c0.29,0.47,0.58,0.93,0.87,1.4
	c-0.53,0.48-1.04,0.99-1.56,1.49c1.06,1.48,2.17,3.28,2.94,4.96c0.93-0.36,1.88-0.67,2.8-1.05c0.23,0.4,0.46,0.79,0.69,1.18
	c-3.86,2.98-7.72,5.96-12.18,9.4c1.69,0.69,2.53,1.39,3.13,1.22c5.01-1.44,10.06-2.83,14.91-4.73c1.14-0.45,2.41-2.94,2.14-4.16
	c-0.62-2.74,0.67-3.9,2.49-5.33c6.97-5.45,13.9-10.99,17.74-19.3c0.5-1.09,0.59-2.37,0.86-3.56
	C-962.48-273.22-963.7-273.59-964.89-273.51 M-981.51-254.26c-1.99,0.65-4.12-0.44-4.76-2.43c-0.65-1.99,0.44-4.12,2.43-4.76
	c1.98-0.65,4.12,0.44,4.76,2.43C-978.44-257.04-979.52-254.91-981.51-254.26"/>
<path class="st0" d="M-1204.34-198.7l21.88,10.63c-12.48,23.88-37.28,40.21-65.94,40.21c-14.79,0-28.65-4.47-40.36-12.02
	c-13.86-9.09-24.65-22.8-30.19-38.82c-2.31-7.39-3.7-15.25-3.7-23.57v-2.62v-2.62c0-8.32,1.39-16.17,3.7-23.57
	c5.55-16.02,16.33-29.73,30.19-38.82c11.71-7.55,25.57-12.02,40.36-12.02c28.66,0,53.46,16.33,65.94,40.05l-21.88,10.78l-8.63,4.31
	c-0.77-1.54-1.69-2.93-2.62-4.31c-7.39-10.17-19.26-16.79-32.81-16.79c-13.4,0-25.42,6.62-32.81,16.79
	c-4.62,6.62-7.55,14.79-7.55,23.57v2.62v2.62c0,8.78,2.93,16.95,7.55,23.57c7.39,10.17,19.41,16.79,32.81,16.79
	c13.56,0,25.42-6.62,32.81-16.79c0.92-1.39,1.85-2.77,2.62-4.31L-1204.34-198.7z"/>
<polygon class="st0" points="-730.15,-301.91 -730.15,-241.83 -730.15,-207.94 -730.15,-147.86 -764.05,-147.86 -764.05,-207.94 
	-764.05,-241.83 -764.05,-301.91 "/>
<path class="st0" d="M-1001.69-245.15c-6.51,3.16-13.02,6.31-19.53,9.47c-2.27,1.1-4.56,2.21-7.03,2.7c-2.47,0.5-5.17,0.32-7.3-1.02
	c-1.87-1.18-3.11-3.1-4.3-4.97c-0.25-0.39-0.5-0.79-0.75-1.18l-13.03-24.95l-19.1-36.82l-19.1,36.82l-37.74,72.56l-4.43,8.5
	c7.26-3.24,51.7-21.05,53.15-21.55c0.69-0.24,1.39-0.48,2.08-0.72c1.59-0.55,3.19-1.1,4.65-1.95c-1.36,0.16-2.79-0.01-3.99-0.68
	c-1.2-0.67-2.12-1.89-2.23-3.26c-0.01-0.13-0.01-0.3,0.01-0.49c0.05-0.74,0.27-1.46,0.61-2.12l7-13.48l6.53,12.52
	c1,1.91,3.28,2.76,5.28,1.95l0.04-0.01C-1056.64-215.53-1011.58-237.8-1001.69-245.15"/>
<path class="st0" d="M-993.38-145.59l-22.36-42.95l-13.61-26.07c-0.3-0.56-0.99-0.79-1.56-0.51c-4.72,2.29-17.48,7.52-19.06,8.14
	c-0.05,0.02-0.11,0.05-0.16,0.08c-1.03,0.58-2.03,1.21-2.98,1.91c-0.6,0.48-2.62,3.09-2.88,3.68c-0.42,1.07-0.74,2.17-0.92,3.3
	l0,0.03c-0.17,1.62,0.1,3.26,0.76,4.75c0.83,1.88,2.02,4.58,2.07,4.68c0,0,0,0,0,0.01l22.93,44.04c0.2,0.39,0.6,0.63,1.04,0.63h35.7
	C-993.54-143.86-992.97-144.8-993.38-145.59"/>
<path class="st0" d="M-1090.54-190.15c-0.94,0.48-1.88,0.94-2.83,1.38c-4.16,1.96-8.44,3.66-12.68,5.44
	c-1.09,0.46-2.17,0.92-3.25,1.39c-2.23,0.96-4.46,1.92-6.7,2.86c-1.95,0.82-3.91,1.59-5.86,2.41c-1.47,0.63-2.93,1.27-4.39,1.94
	c-2.22,1.02-4.4,2.11-6.63,3.12c-0.91,0.41-1.83,0.82-2.77,1.17c-2.71,1.02-4.95,2.99-6.29,5.56l-2.44,4.67l-2.93,5.7l-5.12,9.82
	c-0.19,0.37,0.07,0.81,0.49,0.81h37.11c0.2,0,0.39-0.11,0.49-0.3l5.39-10.33l12.68-24.57c0.34-0.66,0.73-1.29,1.16-1.89
	c2.91-4,6.15-7.7,10.04-10.75c0.01-0.01,0.02-0.02,0.03-0.03c0.53-0.41,0-1.24-0.59-0.92
	C-1087.32-191.76-1089.07-190.83-1090.54-190.15L-1090.54-190.15z"/>
<path class="st0" d="M-907.35-301.91h-34.79v17.26C-931.27-291.62-919.57-297.4-907.35-301.91"/>
<path class="st0" d="M-817.51-267.87v-34.05h-64.51c-20.72,3.39-40.98,10.01-60.12,19.39v14.65v26.03v16.95v16.95v26.03v34.05
	h124.63v-34.05h-90.74v-26.03h80.11v-33.89h-80.11v-26.03H-817.51z"/>
<path class="st0" d="M-636.8-164.67v-43.27v-33.89v-60.08h-33.89v60.08v33.89v52.69C-659.19-157.43-647.86-160.6-636.8-164.67"/>
<path class="st0" d="M-670.69-148.16v0.3h33.89v-12.12C-647.63-154.96-659.01-151-670.69-148.16"/>
<g>
	<polygon class="st0" points="-2480.02,-61.47 -2480.1,-75.35 -2486.83,-64.06 -2490.12,-64.06 -2496.82,-74.98 -2496.82,-61.47 
		-2503.67,-61.47 -2503.67,-87.66 -2497.57,-87.66 -2488.36,-72.55 -2479.39,-87.66 -2473.29,-87.66 -2473.21,-61.47 	"/>
	<polygon class="st0" points="-2409.54,-67.2 -2409.54,-61.47 -2430.57,-61.47 -2430.57,-87.66 -2410.03,-87.66 -2410.03,-81.94 
		-2423.23,-81.94 -2423.23,-77.52 -2411.6,-77.52 -2411.6,-71.99 -2423.23,-71.99 -2423.23,-67.2 	"/>
	<polygon class="st0" points="-2343.1,-87.66 -2343.1,-61.47 -2349.2,-61.47 -2360.76,-75.43 -2360.76,-61.47 -2368.02,-61.47 
		-2368.02,-87.66 -2361.92,-87.66 -2350.36,-73.71 -2350.36,-87.66 	"/>
	<path class="st0" d="M-2300.45-87.66h12.38c2.87,0,5.41,0.54,7.63,1.61c2.22,1.07,3.94,2.59,5.16,4.56
		c1.22,1.97,1.83,4.28,1.83,6.92c0,2.64-0.61,4.95-1.83,6.92c-1.22,1.97-2.94,3.49-5.16,4.56c-2.22,1.07-4.76,1.61-7.63,1.61h-12.38
		V-87.66z M-2288.37-67.38c2.24,0,4.05-0.64,5.41-1.91c1.36-1.27,2.04-3.03,2.04-5.28s-0.68-4-2.04-5.27
		c-1.36-1.27-3.16-1.91-5.41-1.91h-4.68v14.36H-2288.37z"/>
	<path class="st0" d="M-2226.4-62.71c-2.21-1.17-3.94-2.79-5.2-4.86c-1.26-2.07-1.89-4.4-1.89-7c0-2.59,0.63-4.93,1.89-7
		c1.26-2.07,2.99-3.69,5.2-4.86c2.21-1.17,4.7-1.76,7.46-1.76c2.77,0,5.26,0.59,7.46,1.76c2.21,1.17,3.94,2.79,5.2,4.86
		c1.26,2.07,1.89,4.4,1.89,7c0,2.59-0.63,4.93-1.89,7c-1.26,2.07-2.99,3.69-5.2,4.86s-4.7,1.76-7.46,1.76
		C-2221.7-60.95-2224.19-61.54-2226.4-62.71 M-2215.34-68.02c1.07-0.62,1.92-1.5,2.54-2.64c0.62-1.13,0.94-2.44,0.94-3.91
		c0-1.47-0.31-2.77-0.94-3.91c-0.62-1.13-1.47-2.01-2.54-2.64c-1.07-0.62-2.27-0.93-3.59-0.93c-1.32,0-2.52,0.31-3.59,0.93
		c-1.07,0.62-1.92,1.5-2.54,2.64c-0.62,1.14-0.93,2.44-0.93,3.91c0,1.47,0.31,2.78,0.93,3.91c0.62,1.13,1.47,2.01,2.54,2.64
		c1.07,0.62,2.27,0.94,3.59,0.94C-2217.61-67.09-2216.42-67.4-2215.34-68.02"/>
	<polygon class="st0" points="-2141.16,-67.35 -2141.16,-61.47 -2164.61,-61.47 -2164.61,-66.11 -2151.41,-81.79 -2164.28,-81.79 
		-2164.28,-87.66 -2141.72,-87.66 -2141.72,-83.02 -2154.93,-67.35 	"/>
	<path class="st0" d="M-2082.95-66.56h-11.07l-2.06,5.09h-7.56l11.56-26.19h7.29l11.6,26.19h-7.71L-2082.95-66.56z M-2085.12-72.02
		l-3.37-8.38l-3.37,8.38H-2085.12z"/>
	<polygon class="st0" points="-2315.47,-347.47 -2320.9,-355.59 -2326.25,-347.47 -2334.7,-347.47 -2325.16,-360.72 
		-2334.29,-373.66 -2325.95,-373.66 -2320.71,-366.1 -2315.55,-373.66 -2307.54,-373.66 -2316.67,-361.02 -2306.94,-347.47 	"/>
	<polygon class="st0" points="-2250.68,-347.47 -2256.1,-355.59 -2261.45,-347.47 -2269.91,-347.47 -2260.37,-360.72 
		-2269.49,-373.66 -2261.15,-373.66 -2255.91,-366.1 -2250.75,-373.66 -2242.75,-373.66 -2251.87,-361.02 -2242.15,-347.47 	"/>
	<path class="st0" d="M-2273.59-274.35c-9.04,0.57-16.4,5.33-23.85,9.8c-2.08,1.25-3.68,2.4-6.19,0.51
		c-1.02-0.76-3.99-0.6-4.77,0.28c-3.83,4.37-7.23,9.11-10.78,13.73l1.39,1.67c4.33-2.35,8.66-4.71,13-7.07
		c0.29,0.47,0.58,0.93,0.87,1.4c-0.53,0.48-1.04,0.99-1.56,1.49c1.06,1.48,2.17,3.28,2.94,4.96c0.93-0.36,1.88-0.67,2.8-1.05
		c0.23,0.4,0.46,0.79,0.69,1.18c-3.86,2.98-7.72,5.96-12.18,9.4c1.69,0.69,2.53,1.39,3.13,1.22c5.01-1.44,10.06-2.83,14.91-4.73
		c1.14-0.45,2.41-2.94,2.14-4.16c-0.62-2.74,0.67-3.9,2.49-5.33c6.97-5.45,13.9-10.99,17.74-19.3c0.5-1.09,0.58-2.37,0.86-3.56
		C-2271.17-274.06-2272.4-274.42-2273.59-274.35 M-2290.21-255.1c-1.99,0.65-4.12-0.44-4.76-2.43c-0.65-1.99,0.44-4.12,2.43-4.76
		c1.99-0.65,4.12,0.44,4.76,2.43C-2287.14-257.88-2288.22-255.74-2290.21-255.1"/>
	<path class="st0" d="M-2513.04-199.53l21.88,10.63c-12.48,23.88-37.28,40.21-65.93,40.21c-14.79,0-28.65-4.47-40.36-12.02
		c-13.86-9.09-24.65-22.8-30.2-38.82c-2.31-7.39-3.7-15.25-3.7-23.57v-2.62v-2.62c0-8.32,1.39-16.17,3.7-23.57
		c5.55-16.02,16.33-29.73,30.2-38.82c11.71-7.55,25.57-12.02,40.36-12.02c28.66,0,53.46,16.33,65.93,40.05l-21.88,10.78l-8.63,4.31
		c-0.77-1.54-1.69-2.93-2.62-4.31c-7.4-10.17-19.26-16.79-32.81-16.79c-13.4,0-25.42,6.62-32.81,16.79
		c-4.62,6.62-7.55,14.79-7.55,23.57v2.62v2.62c0,8.78,2.93,16.95,7.55,23.57c7.39,10.17,19.41,16.79,32.81,16.79
		c13.56,0,25.42-6.62,32.81-16.79c0.92-1.39,1.85-2.77,2.62-4.31L-2513.04-199.53z"/>
	<polygon class="st0" points="-2038.85,-302.75 -2038.85,-242.67 -2038.85,-208.78 -2038.85,-148.7 -2072.74,-148.7 
		-2072.74,-208.78 -2072.74,-242.67 -2072.74,-302.75 	"/>
	<path class="st0" d="M-2310.39-245.99c-6.51,3.16-13.02,6.31-19.53,9.47c-2.27,1.1-4.56,2.21-7.03,2.7
		c-2.47,0.5-5.17,0.32-7.3-1.02c-1.87-1.18-3.11-3.1-4.3-4.97c-0.25-0.39-0.5-0.79-0.75-1.18l-13.03-24.95l-19.1-36.82l-19.1,36.82
		l-37.74,72.56l-4.43,8.5c7.26-3.24,51.7-21.05,53.15-21.55c0.7-0.24,1.39-0.48,2.08-0.72c1.59-0.55,3.19-1.1,4.65-1.95
		c-1.36,0.16-2.79-0.01-3.99-0.68c-1.2-0.67-2.12-1.89-2.23-3.26c-0.01-0.13-0.01-0.3,0.01-0.49c0.05-0.74,0.27-1.46,0.61-2.12
		l7-13.48l6.53,12.52c1,1.91,3.28,2.76,5.28,1.95l0.03-0.01C-2365.34-216.36-2320.27-238.64-2310.39-245.99"/>
	<path class="st0" d="M-2302.08-146.42l-22.36-42.95l-13.62-26.07c-0.29-0.56-0.99-0.79-1.56-0.51c-4.72,2.29-17.49,7.52-19.06,8.14
		c-0.05,0.02-0.11,0.05-0.16,0.08c-1.03,0.58-2.03,1.21-2.98,1.91c-0.6,0.48-2.62,3.09-2.88,3.68c-0.43,1.07-0.74,2.17-0.93,3.3
		l0,0.03c-0.17,1.62,0.1,3.26,0.76,4.75c0.83,1.88,2.02,4.58,2.07,4.68c0,0,0,0,0,0.01l22.93,44.04c0.2,0.39,0.6,0.63,1.04,0.63
		h35.7C-2302.24-144.7-2301.67-145.64-2302.08-146.42"/>
	<path class="st0" d="M-2399.24-190.98c-0.94,0.48-1.88,0.94-2.83,1.38c-4.17,1.96-8.44,3.66-12.68,5.44
		c-1.09,0.46-2.17,0.92-3.25,1.39c-2.23,0.96-4.46,1.92-6.7,2.86c-1.95,0.82-3.91,1.59-5.86,2.41c-1.47,0.63-2.94,1.27-4.39,1.94
		c-2.22,1.02-4.4,2.11-6.63,3.12c-0.91,0.41-1.83,0.82-2.77,1.17c-2.71,1.02-4.95,2.99-6.29,5.56l-2.44,4.67l-2.93,5.7l-5.12,9.82
		c-0.19,0.37,0.07,0.81,0.49,0.81h37.11c0.2,0,0.39-0.11,0.49-0.3l5.39-10.33l12.68-24.57c0.34-0.66,0.73-1.29,1.16-1.89
		c2.91-4,6.15-7.7,10.04-10.75c0.01-0.01,0.02-0.02,0.03-0.03c0.53-0.41,0-1.24-0.59-0.92
		C-2396.02-192.59-2397.77-191.67-2399.24-190.98L-2399.24-190.98z"/>
	<path class="st0" d="M-2216.05-302.75h-34.79v17.26C-2239.97-292.45-2228.27-298.24-2216.05-302.75"/>
	<path class="st0" d="M-2126.21-268.7v-34.05h-64.51c-20.72,3.39-40.98,10.01-60.11,19.39v14.65v26.03v16.95v16.95v26.03v34.05
		h124.63v-34.05h-90.74v-26.03h80.11v-33.89h-80.11v-26.03H-2126.21z"/>
	<path class="st0" d="M-1945.49-165.5v-43.27v-33.89v-60.08h-33.89v60.08v33.89v52.69C-1967.89-158.26-1956.56-161.43-1945.49-165.5
		"/>
	<path class="st0" d="M-1979.39-149v0.3h33.89v-12.12C-1956.33-155.79-1967.71-151.84-1979.39-149"/>
</g>
<g>
	<polygon class="st0" points="-1096.91,254.12 -1096.96,245.63 -1101.08,252.54 -1103.09,252.54 -1107.19,245.86 -1107.19,254.12 
		-1111.37,254.12 -1111.37,238.1 -1107.64,238.1 -1102.02,247.35 -1096.52,238.1 -1092.79,238.1 -1092.75,254.12 	"/>
	<polygon class="st0" points="-1053.8,250.62 -1053.8,254.12 -1066.66,254.12 -1066.66,238.1 -1054.1,238.1 -1054.1,241.61 
		-1062.18,241.61 -1062.18,244.31 -1055.06,244.31 -1055.06,247.69 -1062.18,247.69 -1062.18,250.62 	"/>
	<polygon class="st0" points="-1013.17,238.1 -1013.17,254.12 -1016.9,254.12 -1023.97,245.59 -1023.97,254.12 -1028.41,254.12 
		-1028.41,238.1 -1024.68,238.1 -1017.6,246.64 -1017.6,238.1 	"/>
	<path class="st0" d="M-987.08,238.1h7.58c1.75,0,3.31,0.33,4.67,0.98c1.36,0.66,2.41,1.59,3.16,2.79c0.75,1.2,1.12,2.62,1.12,4.23
		c0,1.62-0.37,3.03-1.12,4.23c-0.75,1.2-1.8,2.14-3.16,2.79c-1.36,0.66-2.92,0.98-4.67,0.98h-7.58V238.1z M-979.69,250.51
		c1.37,0,2.48-0.39,3.31-1.17c0.83-0.78,1.25-1.85,1.25-3.23c0-1.37-0.42-2.45-1.25-3.23c-0.83-0.78-1.93-1.17-3.31-1.17h-2.86v8.79
		H-979.69z"/>
	<path class="st0" d="M-941.79,253.37c-1.35-0.72-2.41-1.71-3.18-2.98c-0.77-1.27-1.16-2.69-1.16-4.28c0-1.59,0.39-3.01,1.16-4.28
		c0.77-1.27,1.83-2.26,3.18-2.98c1.35-0.72,2.87-1.07,4.57-1.07c1.69,0,3.22,0.36,4.56,1.07c1.35,0.72,2.41,1.71,3.18,2.98
		c0.77,1.27,1.16,2.69,1.16,4.28c0,1.59-0.39,3.01-1.16,4.28c-0.77,1.27-1.83,2.26-3.18,2.98c-1.35,0.72-2.87,1.07-4.56,1.07
		C-938.92,254.44-940.44,254.08-941.79,253.37 M-935.03,250.12c0.66-0.38,1.17-0.92,1.56-1.61c0.38-0.7,0.57-1.49,0.57-2.39
		c0-0.9-0.19-1.7-0.57-2.39c-0.38-0.69-0.9-1.23-1.56-1.61c-0.66-0.38-1.39-0.57-2.2-0.57c-0.81,0-1.54,0.19-2.2,0.57
		c-0.66,0.38-1.17,0.92-1.56,1.61c-0.38,0.7-0.57,1.49-0.57,2.39c0,0.9,0.19,1.7,0.57,2.39c0.38,0.69,0.9,1.23,1.56,1.61
		c0.66,0.38,1.39,0.57,2.2,0.57C-936.42,250.69-935.68,250.5-935.03,250.12"/>
	<polygon class="st0" points="-889.65,250.53 -889.65,254.12 -904,254.12 -904,251.28 -895.92,241.7 -903.79,241.7 -903.79,238.1 
		-890,238.1 -890,240.94 -898.07,250.53 	"/>
	<path class="st0" d="M-854.05,251.01h-6.77l-1.26,3.11h-4.62l7.07-16.02h4.46l7.09,16.02h-4.71L-854.05,251.01z M-855.38,247.67
		l-2.06-5.13l-2.06,5.13H-855.38z"/>
	<path class="st0" d="M-970.65,123.92c-5.53,0.35-10.03,3.26-14.59,5.99c-1.28,0.76-2.25,1.47-3.79,0.32
		c-0.62-0.47-2.44-0.37-2.92,0.17c-2.34,2.67-4.42,5.57-6.59,8.4c0.28,0.34,0.57,0.68,0.85,1.02c2.65-1.44,5.3-2.88,7.95-4.32
		c0.18,0.29,0.36,0.57,0.53,0.86c-0.33,0.29-0.64,0.61-0.96,0.91c0.65,0.91,1.33,2,1.8,3.03c0.57-0.22,1.15-0.41,1.71-0.64
		c0.14,0.24,0.28,0.48,0.42,0.73c-2.36,1.82-4.72,3.64-7.45,5.75c1.03,0.42,1.55,0.85,1.91,0.74c3.07-0.88,6.15-1.73,9.12-2.9
		c0.7-0.27,1.47-1.8,1.31-2.54c-0.38-1.68,0.41-2.39,1.52-3.26c4.26-3.34,8.5-6.72,10.85-11.81c0.31-0.67,0.36-1.45,0.53-2.18
		C-969.17,124.1-969.92,123.88-970.65,123.92 M-980.82,135.7c-1.21,0.4-2.52-0.27-2.91-1.48c-0.4-1.21,0.27-2.52,1.48-2.91
		c1.21-0.4,2.52,0.27,2.91,1.48C-978.94,134-979.6,135.3-980.82,135.7"/>
	<path class="st0" d="M-1117.11,169.68l13.38,6.5c-7.63,14.6-22.8,24.59-40.33,24.59c-9.05,0-17.53-2.73-24.69-7.35
		c-8.48-5.56-15.08-13.95-18.47-23.75c-1.41-4.52-2.26-9.33-2.26-14.42v-1.6v-1.6c0-5.09,0.85-9.89,2.26-14.42
		c3.39-9.8,9.99-18.19,18.47-23.74c7.16-4.62,15.64-7.35,24.69-7.35c17.53,0,32.69,9.99,40.33,24.5l-13.38,6.6l-5.28,2.64
		c-0.47-0.94-1.04-1.79-1.6-2.64c-4.52-6.22-11.78-10.27-20.07-10.27c-8.2,0-15.55,4.05-20.07,10.27
		c-2.83,4.05-4.62,9.04-4.62,14.42v1.6v1.6c0,5.37,1.79,10.36,4.62,14.42c4.52,6.22,11.87,10.27,20.07,10.27
		c8.29,0,15.55-4.05,20.07-10.27c0.57-0.85,1.13-1.69,1.6-2.64L-1117.11,169.68z"/>
	<polygon class="st0" points="-827.08,106.55 -827.08,143.3 -827.08,164.03 -827.08,200.77 -847.81,200.77 -847.81,164.03 
		-847.81,143.3 -847.81,106.55 	"/>
	<path class="st0" d="M-993.16,141.27c-3.98,1.93-7.96,3.86-11.95,5.79c-1.39,0.67-2.79,1.35-4.3,1.65c-1.51,0.3-3.16,0.2-4.47-0.62
		c-1.14-0.72-1.9-1.9-2.63-3.04c-0.15-0.24-0.3-0.48-0.46-0.72l-7.97-15.26l-11.68-22.52l-11.68,22.52l-23.08,44.38l-2.71,5.2
		c4.44-1.98,31.62-12.87,32.51-13.18l1.27-0.44c0.97-0.33,1.95-0.67,2.84-1.19c-0.83,0.1-1.71,0-2.44-0.41
		c-0.73-0.41-1.3-1.16-1.36-1.99c-0.01-0.08,0-0.19,0.01-0.3c0.03-0.45,0.16-0.89,0.37-1.29l4.28-8.25l3.99,7.66
		c0.61,1.17,2.01,1.68,3.23,1.2c0.01,0,0.01-0.01,0.02-0.01C-1026.77,159.39-999.21,145.76-993.16,141.27"/>
	<path class="st0" d="M-988.08,202.16l-13.68-26.27l-8.33-15.94c-0.18-0.35-0.6-0.49-0.95-0.32c-2.89,1.4-10.69,4.6-11.66,4.98
		c-0.03,0.01-0.07,0.03-0.1,0.05c-0.63,0.36-1.24,0.74-1.82,1.17c-0.36,0.29-1.6,1.89-1.76,2.25c-0.26,0.65-0.45,1.33-0.56,2.02
		c0,0.01,0,0.01,0,0.02c-0.11,0.99,0.06,1.99,0.46,2.91c0.51,1.15,1.24,2.8,1.27,2.87c0,0,0,0,0,0l14.03,26.93
		c0.13,0.24,0.37,0.39,0.64,0.39h21.83C-988.17,203.22-987.83,202.64-988.08,202.16"/>
	<path class="st0" d="M-1047.5,174.91c-0.57,0.29-1.15,0.57-1.73,0.85c-2.55,1.2-5.16,2.24-7.75,3.33
		c-0.66,0.28-1.33,0.56-1.99,0.85c-1.36,0.59-2.73,1.18-4.1,1.75c-1.19,0.5-2.39,0.98-3.59,1.47c-0.9,0.38-1.79,0.78-2.68,1.19
		c-1.36,0.62-2.69,1.29-4.05,1.91c-0.55,0.25-1.12,0.5-1.69,0.72c-1.66,0.63-3.03,1.83-3.85,3.4l-1.49,2.86l-1.79,3.49l-3.13,6.01
		c-0.12,0.23,0.05,0.49,0.3,0.49h22.7c0.13,0,0.24-0.07,0.3-0.18l3.3-6.32l7.75-15.03c0.21-0.4,0.45-0.79,0.71-1.15
		c1.78-2.44,3.76-4.71,6.14-6.57c0.01-0.01,0.01-0.01,0.02-0.02c0.32-0.25,0-0.76-0.36-0.57
		C-1045.53,173.92-1046.6,174.49-1047.5,174.91L-1047.5,174.91z"/>
	<path class="st0" d="M-935.46,106.55h-21.28v10.56C-950.09,112.85-942.93,109.31-935.46,106.55"/>
	<path class="st0" d="M-880.51,127.37v-20.82h-39.46c-12.68,2.07-25.06,6.12-36.77,11.86v8.96v15.92v10.37v10.36v15.92v20.82h76.23
		v-20.82h-55.5v-15.92h49V143.3h-49v-15.92H-880.51z"/>
	<path class="st0" d="M-769.98,190.5v-26.47V143.3v-36.75h-20.73v36.75v20.73v32.23C-783.68,194.92-776.75,192.99-769.98,190.5"/>
	<path class="st0" d="M-790.71,200.59v0.19h20.73v-7.41C-776.61,196.43-783.57,198.85-790.71,200.59"/>
</g>
<g>
	<polygon class="st0" points="208.8,231.35 208.75,222.86 204.63,229.77 202.62,229.77 198.52,223.09 198.52,231.35 194.34,231.35 
		194.34,215.34 198.07,215.34 203.7,224.58 209.19,215.34 212.92,215.34 212.96,231.35 	"/>
	<polygon class="st0" points="251.91,227.85 251.91,231.35 239.05,231.35 239.05,215.34 251.61,215.34 251.61,218.84 243.53,218.84 
		243.53,221.54 250.65,221.54 250.65,224.92 243.53,224.92 243.53,227.85 	"/>
	<polygon class="st0" points="292.54,215.34 292.54,231.35 288.81,231.35 281.74,222.82 281.74,231.35 277.3,231.35 277.3,215.34 
		281.03,215.34 288.11,223.87 288.11,215.34 	"/>
	<path class="st0" d="M318.63,215.34h7.58c1.75,0,3.31,0.33,4.67,0.98c1.36,0.66,2.41,1.59,3.16,2.79c0.75,1.2,1.12,2.62,1.12,4.23
		c0,1.62-0.37,3.03-1.12,4.23c-0.75,1.2-1.8,2.14-3.16,2.79c-1.36,0.66-2.92,0.98-4.67,0.98h-7.58V215.34z M326.02,227.74
		c1.37,0,2.48-0.39,3.31-1.17c0.83-0.78,1.25-1.85,1.25-3.23c0-1.37-0.42-2.45-1.25-3.23c-0.83-0.78-1.93-1.17-3.31-1.17h-2.86v8.79
		H326.02z"/>
	<path class="st0" d="M363.92,230.6c-1.35-0.72-2.41-1.71-3.18-2.98c-0.77-1.27-1.16-2.69-1.16-4.28c0-1.59,0.39-3.01,1.16-4.28
		c0.77-1.27,1.83-2.26,3.18-2.98c1.35-0.72,2.87-1.07,4.57-1.07c1.69,0,3.22,0.36,4.56,1.07c1.35,0.72,2.41,1.71,3.18,2.98
		c0.77,1.27,1.16,2.69,1.16,4.28c0,1.59-0.39,3.01-1.16,4.28c-0.77,1.27-1.83,2.26-3.18,2.98c-1.35,0.72-2.87,1.07-4.56,1.07
		C366.79,231.67,365.27,231.31,363.92,230.6 M370.68,227.35c0.66-0.38,1.17-0.92,1.56-1.61c0.38-0.7,0.57-1.49,0.57-2.39
		c0-0.9-0.19-1.7-0.57-2.39c-0.38-0.69-0.9-1.23-1.56-1.61c-0.66-0.38-1.39-0.57-2.2-0.57c-0.81,0-1.54,0.19-2.2,0.57
		c-0.66,0.38-1.17,0.92-1.56,1.61c-0.38,0.7-0.57,1.49-0.57,2.39c0,0.9,0.19,1.7,0.57,2.39c0.38,0.69,0.9,1.23,1.56,1.61
		c0.66,0.38,1.39,0.57,2.2,0.57C369.3,227.92,370.03,227.73,370.68,227.35"/>
	<polygon class="st0" points="416.06,227.76 416.06,231.35 401.71,231.35 401.71,228.52 409.79,218.93 401.92,218.93 401.92,215.34 
		415.71,215.34 415.71,218.17 407.64,227.76 	"/>
	<path class="st0" d="M451.66,228.24h-6.77l-1.26,3.11h-4.62l7.07-16.02h4.46l7.09,16.02h-4.71L451.66,228.24z M450.33,224.9
		l-2.06-5.13l-2.06,5.13H450.33z"/>
	<path class="st0" d="M335.06,101.15c-5.53,0.35-10.03,3.26-14.59,5.99c-1.28,0.76-2.25,1.47-3.79,0.32
		c-0.62-0.47-2.44-0.37-2.92,0.17c-2.34,2.67-4.42,5.57-6.59,8.4c0.28,0.34,0.57,0.68,0.85,1.02c2.65-1.44,5.3-2.88,7.95-4.32
		c0.18,0.29,0.36,0.57,0.53,0.86c-0.33,0.29-0.64,0.61-0.96,0.91c0.65,0.91,1.33,2,1.8,3.03c0.57-0.22,1.15-0.41,1.71-0.64
		c0.14,0.24,0.28,0.48,0.42,0.73c-2.36,1.82-4.72,3.64-7.45,5.75c1.03,0.42,1.55,0.85,1.91,0.74c3.07-0.88,6.15-1.73,9.12-2.9
		c0.7-0.27,1.47-1.8,1.31-2.54c-0.38-1.68,0.41-2.39,1.52-3.26c4.26-3.34,8.5-6.72,10.85-11.81c0.31-0.67,0.36-1.45,0.53-2.18
		C336.54,101.33,335.79,101.11,335.06,101.15 M324.89,112.93c-1.21,0.4-2.52-0.27-2.91-1.48c-0.4-1.21,0.27-2.52,1.48-2.91
		c1.21-0.4,2.52,0.27,2.91,1.48C326.77,111.23,326.11,112.53,324.89,112.93"/>
	<path class="st0" d="M188.6,146.91l13.38,6.5c-7.63,14.6-22.8,24.59-40.33,24.59c-9.05,0-17.53-2.73-24.69-7.35
		c-8.48-5.56-15.08-13.95-18.47-23.75c-1.41-4.52-2.26-9.33-2.26-14.42v-1.6v-1.6c0-5.09,0.85-9.89,2.26-14.42
		c3.39-9.8,9.99-18.19,18.47-23.74c7.16-4.62,15.64-7.35,24.69-7.35c17.52,0,32.69,9.99,40.33,24.5l-13.38,6.6l-5.28,2.64
		c-0.47-0.94-1.04-1.79-1.6-2.64c-4.52-6.22-11.78-10.27-20.07-10.27c-8.2,0-15.55,4.05-20.07,10.27
		c-2.83,4.05-4.62,9.04-4.62,14.42v1.6v1.6c0,5.37,1.79,10.36,4.62,14.42c4.52,6.22,11.87,10.27,20.07,10.27
		c8.29,0,15.55-4.05,20.07-10.27c0.57-0.85,1.13-1.69,1.6-2.64L188.6,146.91z"/>
	<polygon class="st0" points="478.63,83.78 478.63,120.53 478.63,141.26 478.63,178.01 457.9,178.01 457.9,141.26 457.9,120.53 
		457.9,83.78 	"/>
	<path class="st0" d="M312.55,118.5c-3.98,1.93-7.96,3.86-11.95,5.79c-1.39,0.67-2.79,1.35-4.3,1.65c-1.51,0.3-3.16,0.2-4.47-0.62
		c-1.14-0.72-1.9-1.9-2.63-3.04c-0.15-0.24-0.3-0.48-0.46-0.72l-7.97-15.26L269.1,83.78l-11.68,22.52l-23.08,44.38l-2.71,5.2
		c4.44-1.98,31.62-12.87,32.51-13.18l1.27-0.44c0.97-0.33,1.95-0.67,2.84-1.19c-0.83,0.1-1.71,0-2.44-0.41
		c-0.73-0.41-1.3-1.16-1.36-1.99c-0.01-0.08,0-0.19,0.01-0.3c0.03-0.45,0.16-0.89,0.37-1.29l4.28-8.25l3.99,7.66
		c0.61,1.17,2,1.68,3.23,1.2c0.01,0,0.01-0.01,0.02-0.01C278.94,136.62,306.5,123,312.55,118.5"/>
	<path class="st0" d="M317.63,179.4l-13.68-26.27l-8.33-15.94c-0.18-0.35-0.6-0.49-0.95-0.32c-2.89,1.4-10.69,4.6-11.66,4.98
		c-0.03,0.01-0.07,0.03-0.1,0.05c-0.63,0.36-1.24,0.74-1.82,1.17c-0.36,0.29-1.6,1.89-1.76,2.25c-0.26,0.65-0.45,1.33-0.57,2.02
		c0,0.01,0,0.01,0,0.02c-0.11,0.99,0.06,1.99,0.46,2.91c0.51,1.15,1.24,2.8,1.26,2.87c0,0,0,0,0,0l14.02,26.93
		c0.13,0.24,0.37,0.39,0.64,0.39h21.83C317.54,180.45,317.89,179.88,317.63,179.4"/>
	<path class="st0" d="M258.21,152.14c-0.57,0.29-1.15,0.57-1.73,0.85c-2.55,1.2-5.16,2.24-7.75,3.33c-0.66,0.28-1.33,0.56-1.99,0.85
		c-1.36,0.59-2.73,1.18-4.1,1.75c-1.19,0.5-2.39,0.98-3.59,1.47c-0.9,0.38-1.79,0.78-2.68,1.19c-1.36,0.62-2.69,1.29-4.05,1.91
		c-0.55,0.25-1.12,0.5-1.69,0.72c-1.66,0.63-3.03,1.83-3.85,3.4l-1.49,2.86l-1.79,3.49l-3.13,6.01c-0.12,0.23,0.05,0.49,0.3,0.49
		h22.7c0.13,0,0.24-0.07,0.3-0.18l3.3-6.32l7.75-15.03c0.21-0.4,0.45-0.79,0.71-1.15c1.78-2.44,3.76-4.71,6.14-6.57
		c0.01-0.01,0.01-0.01,0.02-0.02c0.32-0.25,0-0.76-0.36-0.57C260.18,151.16,259.11,151.72,258.21,152.14L258.21,152.14z"/>
	<path class="st0" d="M370.25,83.78h-21.28v10.56C355.62,90.08,362.78,86.54,370.25,83.78"/>
	<path class="st0" d="M425.2,104.61V83.78h-39.46c-12.68,2.07-25.06,6.12-36.77,11.86v8.96v15.92v10.37v10.36v15.92V178h76.23
		v-20.82h-55.5v-15.92h49v-20.73h-49v-15.92H425.2z"/>
	<path class="st0" d="M535.73,167.73v-26.47v-20.73V83.78H515v36.75v20.73v32.23C522.03,172.16,528.96,170.22,535.73,167.73"/>
	<path class="st0" d="M515,177.82v0.19h20.73v-7.41C529.1,173.67,522.14,176.08,515,177.82"/>
</g>
<path class="st0" d="M-974.33,405.11c-3.29,0.21-5.97,1.94-8.67,3.56c-0.76,0.46-1.34,0.87-2.25,0.19c-0.37-0.28-1.45-0.22-1.73,0.1
	c-1.39,1.59-2.63,3.32-3.92,4.99c0.17,0.2,0.34,0.4,0.51,0.61c1.58-0.86,3.15-1.71,4.73-2.57c0.11,0.17,0.21,0.34,0.32,0.51
	c-0.19,0.17-0.38,0.36-0.57,0.54c0.39,0.54,0.79,1.19,1.07,1.8c0.34-0.13,0.68-0.25,1.02-0.38l0.25,0.43
	c-1.4,1.08-2.81,2.17-4.43,3.42c0.61,0.25,0.92,0.51,1.14,0.44c1.82-0.52,3.66-1.03,5.42-1.72c0.42-0.16,0.88-1.07,0.78-1.51
	c-0.22-1,0.24-1.42,0.91-1.94c2.53-1.98,5.05-4,6.45-7.02c0.18-0.4,0.21-0.86,0.31-1.29C-973.45,405.21-973.9,405.08-974.33,405.11
	 M-980.37,412.11c-0.72,0.23-1.5-0.16-1.73-0.88c-0.23-0.72,0.16-1.5,0.88-1.73c0.72-0.24,1.5,0.16,1.73,0.88
	C-979.26,411.1-979.65,411.87-980.37,412.11"/>
<path class="st0" d="M-1061.41,432.31l7.95,3.87c-4.54,8.68-13.56,14.62-23.98,14.62c-5.38,0-10.42-1.62-14.68-4.37
	c-5.04-3.31-8.96-8.29-10.98-14.12c-0.84-2.69-1.34-5.55-1.34-8.57v-0.95v-0.95c0-3.03,0.5-5.88,1.34-8.57
	c2.02-5.83,5.94-10.81,10.98-14.12c4.26-2.74,9.3-4.37,14.68-4.37c10.42,0,19.44,5.94,23.98,14.57l-7.95,3.92l-3.14,1.57
	c-0.28-0.56-0.62-1.06-0.95-1.57c-2.69-3.7-7-6.11-11.93-6.11c-4.88,0-9.24,2.41-11.93,6.11c-1.68,2.41-2.74,5.38-2.74,8.57v0.95
	v0.95c0,3.19,1.06,6.16,2.74,8.57c2.69,3.7,7.06,6.11,11.93,6.11c4.93,0,9.24-2.41,11.93-6.11c0.34-0.5,0.67-1.01,0.95-1.57
	L-1061.41,432.31z"/>
<polygon class="st0" points="-888.97,394.78 -888.97,416.63 -888.97,428.95 -888.97,450.8 -901.29,450.8 -901.29,428.95 
	-901.29,416.63 -901.29,394.78 "/>
<path class="st0" d="M-987.71,415.42c-2.37,1.15-4.74,2.3-7.1,3.44c-0.82,0.4-1.66,0.8-2.56,0.98c-0.9,0.18-1.88,0.12-2.65-0.37
	c-0.68-0.43-1.13-1.13-1.56-1.81c-0.09-0.14-0.18-0.29-0.27-0.43l-4.74-9.07l-6.95-13.39l-6.95,13.39l-13.72,26.39l-1.61,3.09
	c2.64-1.18,18.8-7.65,19.33-7.84c0.25-0.09,0.51-0.17,0.76-0.26c0.58-0.2,1.16-0.4,1.69-0.71c-0.49,0.06-1.02,0-1.45-0.24
	c-0.43-0.24-0.77-0.69-0.81-1.18c0-0.05,0-0.11,0-0.18c0.02-0.27,0.1-0.53,0.22-0.77l2.55-4.9l2.37,4.55c0.36,0.7,1.19,1,1.92,0.71
	c0,0,0.01,0,0.01,0C-1007.7,426.19-991.31,418.1-987.71,415.42"/>
<path class="st0" d="M-984.69,451.63l-8.13-15.62l-4.95-9.48c-0.11-0.21-0.36-0.29-0.57-0.19c-1.72,0.83-6.36,2.73-6.93,2.96
	c-0.02,0.01-0.04,0.02-0.06,0.03c-0.38,0.21-0.74,0.44-1.08,0.7c-0.22,0.17-0.95,1.12-1.05,1.34c-0.15,0.39-0.27,0.79-0.34,1.2
	c0,0,0,0.01,0,0.01c-0.06,0.59,0.03,1.19,0.27,1.73c0.3,0.68,0.74,1.67,0.75,1.7c0,0,0,0,0,0l8.34,16.01
	c0.07,0.14,0.22,0.23,0.38,0.23h12.98C-984.75,452.26-984.54,451.91-984.69,451.63"/>
<path class="st0" d="M-1020.02,435.43c-0.34,0.17-0.68,0.34-1.03,0.5c-1.52,0.71-3.07,1.33-4.61,1.98
	c-0.39,0.17-0.79,0.34-1.18,0.51c-0.81,0.35-1.62,0.7-2.44,1.04c-0.71,0.3-1.42,0.58-2.13,0.88c-0.54,0.23-1.07,0.46-1.59,0.71
	c-0.81,0.37-1.6,0.77-2.41,1.14c-0.33,0.15-0.67,0.3-1.01,0.43c-0.99,0.37-1.8,1.09-2.29,2.02l-0.89,1.7l-1.06,2.07l-1.86,3.57
	c-0.07,0.13,0.03,0.29,0.18,0.29h13.5c0.07,0,0.14-0.04,0.18-0.11l1.96-3.76l4.61-8.94c0.12-0.24,0.27-0.47,0.42-0.68
	c1.06-1.45,2.24-2.8,3.65-3.91c0,0,0.01-0.01,0.01-0.01c0.19-0.15,0-0.45-0.22-0.34C-1018.85,434.84-1019.49,435.18-1020.02,435.43
	L-1020.02,435.43z"/>
<path class="st0" d="M-953.41,394.78h-12.65v6.28C-962.1,398.52-957.85,396.42-953.41,394.78"/>
<path class="st0" d="M-920.74,407.16v-12.38h-23.46c-7.54,1.23-14.9,3.64-21.86,7.05v5.33v9.47v6.16v6.16v9.47v12.38h45.32v-12.38
	h-33v-9.47h29.13v-12.33h-29.13v-9.47H-920.74z"/>
<path class="st0" d="M-855.02,444.69v-15.74v-12.33v-21.85h-12.32v21.85v12.33v19.16C-863.16,447.32-859.04,446.17-855.02,444.69"/>
<path class="st0" d="M-867.34,450.69v0.11h12.32v-4.4C-858.96,448.22-863.1,449.66-867.34,450.69"/>
<g>
	<path class="st0" d="M-2282.75,418.49c-3.29,0.21-5.97,1.94-8.67,3.56c-0.76,0.46-1.34,0.87-2.25,0.19
		c-0.37-0.28-1.45-0.22-1.73,0.1c-1.39,1.59-2.63,3.32-3.92,4.99c0.17,0.2,0.34,0.4,0.51,0.61c1.58-0.86,3.15-1.71,4.73-2.57
		c0.11,0.17,0.21,0.34,0.32,0.51c-0.19,0.17-0.38,0.36-0.57,0.54c0.39,0.54,0.79,1.19,1.07,1.8c0.34-0.13,0.68-0.25,1.02-0.38
		l0.25,0.43c-1.4,1.08-2.81,2.17-4.43,3.42c0.61,0.25,0.92,0.51,1.14,0.44c1.82-0.52,3.66-1.03,5.42-1.72
		c0.42-0.16,0.88-1.07,0.78-1.51c-0.22-1,0.24-1.42,0.91-1.94c2.53-1.98,5.05-4,6.45-7.02c0.18-0.39,0.21-0.86,0.31-1.29
		C-2281.87,418.59-2282.31,418.46-2282.75,418.49 M-2288.79,425.49c-0.72,0.24-1.5-0.16-1.73-0.88c-0.23-0.72,0.16-1.5,0.88-1.73
		c0.72-0.24,1.5,0.16,1.73,0.88C-2287.67,424.48-2288.07,425.25-2288.79,425.49"/>
	<path class="st0" d="M-2369.83,445.69l7.95,3.87c-4.54,8.68-13.56,14.62-23.98,14.62c-5.38,0-10.42-1.62-14.68-4.37
		c-5.04-3.3-8.96-8.29-10.98-14.12c-0.84-2.69-1.34-5.55-1.34-8.57v-0.95v-0.95c0-3.02,0.5-5.88,1.34-8.57
		c2.02-5.83,5.94-10.81,10.98-14.12c4.26-2.74,9.3-4.37,14.68-4.37c10.42,0,19.44,5.94,23.98,14.57l-7.95,3.92l-3.14,1.57
		c-0.28-0.56-0.62-1.06-0.95-1.57c-2.69-3.7-7-6.11-11.93-6.11c-4.88,0-9.25,2.41-11.93,6.11c-1.68,2.41-2.74,5.38-2.74,8.57v0.95
		v0.95c0,3.19,1.06,6.16,2.74,8.57c2.69,3.7,7.06,6.11,11.93,6.11c4.93,0,9.24-2.41,11.93-6.11c0.34-0.5,0.67-1.01,0.95-1.57
		L-2369.83,445.69z"/>
	<polygon class="st0" points="-2197.38,408.16 -2197.38,430.01 -2197.38,442.33 -2197.38,464.18 -2209.71,464.18 -2209.71,442.33 
		-2209.71,430.01 -2209.71,408.16 	"/>
	<path class="st0" d="M-2296.13,428.8c-2.37,1.15-4.74,2.3-7.1,3.44c-0.82,0.4-1.66,0.8-2.56,0.98c-0.9,0.18-1.88,0.12-2.66-0.37
		c-0.68-0.43-1.13-1.13-1.56-1.81c-0.09-0.14-0.18-0.29-0.27-0.43l-4.74-9.07l-6.95-13.39l-6.95,13.39l-13.72,26.39l-1.61,3.09
		c2.64-1.18,18.8-7.65,19.33-7.84c0.25-0.09,0.5-0.17,0.76-0.26c0.58-0.2,1.16-0.4,1.69-0.71c-0.5,0.06-1.02,0-1.45-0.24
		c-0.43-0.24-0.77-0.69-0.81-1.18c0-0.05,0-0.11,0-0.18c0.02-0.27,0.1-0.53,0.22-0.77l2.55-4.9l2.37,4.55c0.36,0.7,1.19,1,1.92,0.71
		c0,0,0.01,0,0.01,0C-2316.11,439.57-2299.73,431.48-2296.13,428.8"/>
	<path class="st0" d="M-2293.11,465.01l-8.13-15.62l-4.95-9.48c-0.11-0.21-0.36-0.29-0.57-0.19c-1.72,0.83-6.36,2.73-6.93,2.96
		c-0.02,0.01-0.04,0.02-0.06,0.03c-0.38,0.21-0.74,0.44-1.08,0.7c-0.22,0.17-0.95,1.12-1.05,1.34c-0.16,0.39-0.27,0.79-0.34,1.2
		c0,0,0,0.01,0,0.01c-0.06,0.59,0.03,1.19,0.27,1.73c0.3,0.68,0.74,1.67,0.75,1.7c0,0,0,0,0,0l8.34,16.01
		c0.07,0.14,0.22,0.23,0.38,0.23h12.98C-2293.17,465.64-2292.96,465.29-2293.11,465.01"/>
	<path class="st0" d="M-2328.44,448.81c-0.34,0.17-0.68,0.34-1.03,0.5c-1.51,0.71-3.07,1.33-4.61,1.98
		c-0.39,0.17-0.79,0.34-1.18,0.51c-0.81,0.35-1.62,0.7-2.44,1.04c-0.71,0.3-1.42,0.58-2.13,0.88c-0.53,0.23-1.07,0.46-1.59,0.71
		c-0.81,0.37-1.6,0.77-2.41,1.14c-0.33,0.15-0.67,0.3-1.01,0.43c-0.99,0.37-1.8,1.09-2.29,2.02l-0.89,1.7l-1.06,2.07l-1.86,3.57
		c-0.07,0.13,0.03,0.29,0.18,0.29h13.5c0.07,0,0.14-0.04,0.18-0.11l1.96-3.76l4.61-8.94c0.12-0.24,0.27-0.47,0.42-0.68
		c1.06-1.45,2.24-2.8,3.65-3.91c0,0,0.01-0.01,0.01-0.01c0.19-0.15,0-0.45-0.22-0.34C-2327.27,448.22-2327.9,448.56-2328.44,448.81
		L-2328.44,448.81z"/>
	<path class="st0" d="M-2261.82,408.16h-12.65v6.27C-2270.52,411.9-2266.27,409.8-2261.82,408.16"/>
	<path class="st0" d="M-2229.15,420.54v-12.38h-23.46c-7.54,1.23-14.9,3.64-21.86,7.05v5.33v9.47v6.16v6.16v9.47v12.38h45.32V451.8
		h-33v-9.47h29.13v-12.32h-29.13v-9.47H-2229.15z"/>
	<path class="st0" d="M-2163.43,458.07v-15.74v-12.32v-21.85h-12.32v21.85v12.32v19.16
		C-2171.58,460.7-2167.46,459.55-2163.43,458.07"/>
	<path class="st0" d="M-2175.76,464.07v0.11h12.32v-4.4C-2167.38,461.6-2171.51,463.04-2175.76,464.07"/>
</g>
<rect x="-1519.73" y="-1440.82" class="st2" width="1080" height="2001.09"/>
</svg>
