<svg id="Capa_1" data-name="Capa 1" xmlns="http://www.w3.org/2000/svg" viewBox="0 0 1080 532.88"><defs><style>.cls-1{fill:#151517;}.cls-2{fill:#fff;}</style></defs><title>caeii-title</title><rect class="cls-1" width="1080" height="532.88"/><polygon class="cls-2" points="348.41 406.01 348.33 392.13 341.6 403.43 338.3 403.43 331.61 392.5 331.61 406.01 324.76 406.01 324.76 379.82 330.86 379.82 340.06 394.93 349.04 379.82 355.14 379.82 355.21 406.01 348.41 406.01"/><polygon class="cls-2" points="418.89 400.28 418.89 406.01 397.86 406.01 397.86 379.82 418.4 379.82 418.4 385.54 405.2 385.54 405.2 389.96 416.83 389.96 416.83 395.5 405.2 395.5 405.2 400.28 418.89 400.28"/><polygon class="cls-2" points="485.33 379.82 485.33 406.01 479.23 406.01 467.67 392.05 467.67 406.01 460.41 406.01 460.41 379.82 466.51 379.82 478.07 393.77 478.07 379.82 485.33 379.82"/><path class="cls-2" d="M528,379.82h12.38a17.36,17.36,0,0,1,7.63,1.61,12.07,12.07,0,0,1,5.16,4.56,14,14,0,0,1,0,13.84,12.07,12.07,0,0,1-5.16,4.56,17.36,17.36,0,0,1-7.63,1.61H528Zm12.08,20.28a7.62,7.62,0,0,0,5.41-1.91,7.84,7.84,0,0,0,0-10.55,7.6,7.6,0,0,0-5.41-1.91h-4.68v14.36h4.68Z"/><path class="cls-2" d="M602,404.77a13.39,13.39,0,0,1,0-23.72,16.69,16.69,0,0,1,14.92,0,13.39,13.39,0,0,1,0,23.72,16.69,16.69,0,0,1-14.92,0m11.06-5.31a6.66,6.66,0,0,0,2.54-2.64,8,8,0,0,0,.94-3.91,7.94,7.94,0,0,0-.94-3.91,6.66,6.66,0,0,0-2.54-2.64,7.39,7.39,0,0,0-7.18,0,6.66,6.66,0,0,0-2.54,2.64,8.68,8.68,0,0,0,0,7.82,6.66,6.66,0,0,0,2.54,2.64,7.33,7.33,0,0,0,7.18,0"/><polygon class="cls-2" points="687.27 400.13 687.27 406.01 663.81 406.01 663.81 401.37 677.02 385.69 664.15 385.69 664.15 379.82 686.71 379.82 686.71 384.46 673.5 400.13 687.27 400.13"/><path class="cls-2" d="M745.48,400.92H734.41L732.35,406h-7.56l11.56-26.19h7.29L755.24,406h-7.71Zm-2.17-5.46-3.37-8.38-3.37,8.38Z"/><polygon class="cls-2" points="513.96 120.01 508.53 111.89 503.18 120.01 494.73 120.01 504.27 106.77 495.14 93.82 503.48 93.82 508.72 101.38 513.88 93.82 521.89 93.82 512.76 106.47 522.49 120.01 513.96 120.01"/><polygon class="cls-2" points="578.75 120.01 573.33 111.89 567.98 120.01 559.52 120.01 569.06 106.77 559.93 93.82 568.28 93.82 573.51 101.38 578.68 93.82 586.68 93.82 577.55 106.47 587.28 120.01 578.75 120.01"/><path class="cls-2" d="M555.84,193.14c-9,.57-16.4,5.33-23.85,9.8-2.08,1.25-3.68,2.4-6.19.52-1-.76-4-.6-4.77.28-3.83,4.36-7.23,9.11-10.78,13.73l1.39,1.67,13-7.07.87,1.4c-.53.48-1,1-1.56,1.49a31.6,31.6,0,0,1,2.94,5c.93-.36,1.88-.67,2.8-1l.69,1.18-12.18,9.4c1.69.69,2.53,1.39,3.13,1.22,5-1.44,10.06-2.83,14.91-4.73,1.14-.45,2.41-2.94,2.14-4.16-.62-2.74.67-3.9,2.49-5.32,7-5.45,13.9-11,17.74-19.31a18.88,18.88,0,0,0,.86-3.56,18.29,18.29,0,0,0-3.63-.45m-16.62,19.24a3.78,3.78,0,1,1,2.43-4.76,3.77,3.77,0,0,1-2.43,4.76"/><path class="cls-2" d="M316.39,268l21.88,10.63A74,74,0,0,1,232,306.77,76.52,76.52,0,0,1,201.78,268a78.64,78.64,0,0,1-3.7-23.57v-5.24a78.69,78.69,0,0,1,3.7-23.57A76.57,76.57,0,0,1,232,176.75a74.13,74.13,0,0,1,106.3,28l-21.88,10.78-8.63,4.31a38.61,38.61,0,0,0-2.62-4.31,40.45,40.45,0,0,0-65.62,0A41.3,41.3,0,0,0,232,239.13v5.24a41.3,41.3,0,0,0,7.55,23.57,40.45,40.45,0,0,0,65.62,0,41.18,41.18,0,0,0,2.62-4.31Z"/><polygon class="cls-2" points="790.58 164.73 790.58 224.81 790.58 258.71 790.58 318.79 756.68 318.79 756.68 258.71 756.68 224.81 756.68 164.73 790.58 164.73"/><path class="cls-2" d="M519,221.5,499.51,231a29.6,29.6,0,0,1-7,2.7,10,10,0,0,1-7.3-1,15.09,15.09,0,0,1-4.3-5l-.75-1.18-13-24.95L448,164.73l-19.1,36.82-37.74,72.56-4.43,8.5c7.26-3.24,51.7-21.05,53.15-21.55l2.08-.72a26,26,0,0,0,4.65-1.95,6.62,6.62,0,0,1-4-.68,4.26,4.26,0,0,1-2.23-3.26,2.75,2.75,0,0,1,0-.49,5.45,5.45,0,0,1,.61-2.12l7-13.48,6.53,12.52a4.19,4.19,0,0,0,5.28,2l0,0c4.24-1.69,49.3-24,59.19-31.31"/><path class="cls-2" d="M527.35,321.06,505,278.11,491.38,252a1.2,1.2,0,0,0-1.56-.52c-4.72,2.29-17.49,7.52-19.06,8.14l-.16.08a29,29,0,0,0-3,1.91,21.75,21.75,0,0,0-2.88,3.68,15.89,15.89,0,0,0-.93,3.3v0a9.34,9.34,0,0,0,.76,4.75c.83,1.88,2,4.58,2.07,4.68h0l22.93,44a1.16,1.16,0,0,0,1,.63h35.7a1.16,1.16,0,0,0,1-1.71"/><path class="cls-2" d="M430.19,276.5c-.94.48-1.88.94-2.83,1.38-4.17,2-8.44,3.66-12.68,5.44l-3.25,1.39c-2.23,1-4.46,1.92-6.7,2.86-2,.82-3.91,1.59-5.86,2.41-1.47.63-2.94,1.28-4.39,1.94-2.22,1-4.4,2.11-6.63,3.12-.91.41-1.83.82-2.77,1.17a11.74,11.74,0,0,0-6.29,5.56l-2.44,4.67-2.93,5.7L368.3,322a.55.55,0,0,0,.49.81H405.9a.55.55,0,0,0,.49-.3l5.39-10.33,12.68-24.57a15.19,15.19,0,0,1,1.16-1.89,53.11,53.11,0,0,1,10-10.75l0,0a.55.55,0,0,0-.59-.93c-1.69.91-3.44,1.83-4.91,2.52Z"/><path class="cls-2" d="M613.38,164.73H578.59V182a180.42,180.42,0,0,1,34.79-17.26"/><path class="cls-2" d="M703.22,198.78v-34H638.71a216,216,0,0,0-60.11,19.39V318.8H703.23V284.75H612.49v-26H692.6V224.83H612.49v-26h90.73Z"/><path class="cls-2" d="M883.93,302V164.74H850V311.4A213.08,213.08,0,0,0,883.93,302"/><path class="cls-2" d="M850,318.48v.3h33.89V306.66A183.34,183.34,0,0,1,850,318.48"/></svg>