<svg xmlns="http://www.w3.org/2000/svg"
  xmlns:xlink="http://www.w3.org/1999/xlink" viewBox="0 0 270.95 190.12">
  <defs>
    <style>.cls-1{fill:url(#linear-gradient);}.cls-2{opacity:0.7;}.cls-3{fill:#f99cdb;}.cls-4{fill:url(#linear-gradient-2);}.cls-5{fill:#e6fcff;}.cls-6{fill:url(#linear-gradient-3);}.cls-7{fill:url(#linear-gradient-4);}.cls-8{fill:url(#linear-gradient-5);}.cls-9{fill:url(#linear-gradient-6);}.cls-10{fill:#5243aa;}.cls-11{fill:#172b4d;opacity:0.67;}.cls-12{fill:#403294;opacity:0.13;}.cls-13{fill:#b22865;}.cls-14{fill:url(#linear-gradient-7);}</style>
    <linearGradient id="linear-gradient" x1="24.61" y1="220.14" x2="256.68" y2="-8.16" gradientUnits="userSpaceOnUse">
      <stop offset="0" stop-color="#f99cdb"/>
      <stop offset="1" stop-color="#fffae5"/>
    </linearGradient>
    <linearGradient id="linear-gradient-2" x1="-26.61" y1="160.59" x2="110.92" y2="136.7" gradientUnits="userSpaceOnUse">
      <stop offset="0" stop-color="#6554c0"/>
      <stop offset="1" stop-color="#f99cdb"/>
    </linearGradient>
    <linearGradient id="linear-gradient-3" x1="36.68" y1="94.71" x2="36.68" y2="42.49" gradientUnits="userSpaceOnUse">
      <stop offset="0" stop-color="#d62587"/>
      <stop offset="1" stop-color="#ff8f73"/>
    </linearGradient>
    <linearGradient id="linear-gradient-4" x1="188.75" y1="155.48" x2="57.06" y2="31.99" xlink:href="#linear-gradient-2"/>
    <linearGradient id="linear-gradient-5" x1="127.07" y1="41.32" x2="153.06" y2="-56.33" gradientUnits="userSpaceOnUse">
      <stop offset="0" stop-color="#6554c0"/>
      <stop offset="1" stop-color="#f99cdb"/>
    </linearGradient>
    <linearGradient id="linear-gradient-6" x1="224.17" y1="115.94" x2="96.79" y2="10.16" gradientUnits="userSpaceOnUse">
      <stop offset="0" stop-color="#c0b6f2"/>
      <stop offset="0.32" stop-color="#c3b7f2"/>
      <stop offset="0.55" stop-color="#ccb9f1"/>
      <stop offset="0.75" stop-color="#dcbdef"/>
      <stop offset="0.93" stop-color="#f2c3ec"/>
      <stop offset="1" stop-color="#fcc6eb"/>
    </linearGradient>
    <linearGradient id="linear-gradient-7" x1="185.51" y1="85.33" x2="264.91" y2="56.15" xlink:href="#linear-gradient-3"/>
  </defs>
  <g id="Layer_2" data-name="Layer 2">
    <g id="Layer_1-2" data-name="Layer 1">
      <path class="cls-1" d="M47.93,48.67C-8.66,135.5,24.5,195.63,156.3,189.72,384,179.5,135.32-85.43,47.93,48.67Z"/>
      <g class="cls-2">
        <rect class="cls-3" x="31.65" y="114.23" width="32.97" height="3.86" rx="1.93"/>
        <rect class="cls-3" x="69.61" y="114.23" width="13.99" height="3.86" rx="1.93"/>
        <rect class="cls-3" x="88.59" y="114.23" width="13.99" height="3.86" rx="1.93"/>
        <rect class="cls-3" x="31.65" y="123.41" width="32.97" height="3.86" rx="1.93"/>
        <rect class="cls-3" x="69.61" y="123.41" width="13.99" height="3.86" rx="1.93"/>
        <rect class="cls-3" x="88.59" y="123.41" width="13.99" height="3.86" rx="1.93"/>
        <rect class="cls-3" x="31.65" y="132.58" width="32.97" height="3.86" rx="1.93"/>
        <rect class="cls-3" x="69.61" y="132.58" width="13.99" height="3.86" rx="1.93"/>
        <rect class="cls-3" x="88.59" y="132.58" width="13.99" height="3.86" rx="1.93"/>
        <rect class="cls-3" x="31.65" y="88.14" width="32.97" height="3.86" rx="1.93"/>
        <rect class="cls-3" x="69.61" y="88.14" width="13.99" height="3.86" rx="1.93"/>
        <rect class="cls-3" x="88.59" y="88.14" width="13.99" height="3.86" rx="1.93"/>
        <rect class="cls-3" x="31.65" y="97.32" width="32.97" height="3.86" rx="1.93"/>
        <rect class="cls-3" x="69.61" y="97.32" width="13.99" height="3.86" rx="1.93"/>
        <rect class="cls-3" x="88.59" y="97.32" width="13.99" height="3.86" rx="1.93"/>
        <rect class="cls-3" x="31.65" y="106.49" width="32.97" height="3.86" rx="1.93"/>
        <rect class="cls-3" x="69.61" y="106.49" width="13.99" height="3.86" rx="1.93"/>
        <rect class="cls-3" x="88.59" y="106.49" width="13.99" height="3.86" rx="1.93"/>
        <rect class="cls-3" x="31.65" y="62.05" width="32.97" height="3.86" rx="1.93"/>
        <rect class="cls-3" x="69.61" y="62.05" width="13.99" height="3.86" rx="1.93"/>
        <rect class="cls-3" x="88.59" y="62.05" width="13.99" height="3.86" rx="1.93"/>
        <rect class="cls-3" x="31.65" y="71.23" width="32.97" height="3.86" rx="1.93"/>
        <rect class="cls-3" x="69.61" y="71.23" width="13.99" height="3.86" rx="1.93"/>
        <rect class="cls-3" x="88.59" y="71.23" width="13.99" height="3.86" rx="1.93"/>
        <rect class="cls-3" x="31.65" y="80.41" width="32.97" height="3.86" rx="1.93"/>
        <rect class="cls-3" x="69.61" y="80.41" width="13.99" height="3.86" rx="1.93"/>
        <rect class="cls-3" x="88.59" y="80.41" width="13.99" height="3.86" rx="1.93"/>
        <rect class="cls-3" x="31.65" y="35.97" width="32.97" height="3.86" rx="1.93"/>
        <rect class="cls-3" x="69.61" y="35.97" width="13.99" height="3.86" rx="1.93"/>
        <rect class="cls-3" x="88.59" y="35.97" width="13.99" height="3.86" rx="1.93"/>
        <rect class="cls-3" x="31.65" y="45.14" width="32.97" height="3.86" rx="1.93"/>
        <rect class="cls-3" x="69.61" y="45.14" width="13.99" height="3.86" rx="1.93"/>
        <rect class="cls-3" x="88.59" y="45.14" width="13.99" height="3.86" rx="1.93"/>
        <rect class="cls-3" x="31.65" y="54.32" width="32.97" height="3.86" rx="1.93"/>
        <rect class="cls-3" x="69.61" y="54.32" width="13.99" height="3.86" rx="1.93"/>
        <rect class="cls-3" x="88.59" y="54.32" width="13.99" height="3.86" rx="1.93"/>
      </g>
      <path class="cls-4" d="M84.71,139.42A28.07,28.07,0,0,0,30.84,134a19,19,0,0,0-20,10.59,14,14,0,0,0,3.23,27.7l66.54-.05a16.65,16.65,0,0,0,4.11-32.78Z"/>
      <path class="cls-5" d="M74,155.9a.63.63,0,0,1-.63.63H70.7l1.91,1.92a.63.63,0,0,1,0,.9.65.65,0,0,1-.45.19.67.67,0,0,1-.45-.19l-1.91-1.92v2.71a.64.64,0,0,1-1.28,0v-2.71l-1.91,1.92a.64.64,0,0,1-.91,0,.65.65,0,0,1,0-.9l1.92-1.92H64.91a.64.64,0,1,1,0-1.27h2.71l-1.92-1.92a.65.65,0,0,1,0-.9.65.65,0,0,1,.91,0l1.91,1.92v-2.71a.64.64,0,1,1,1.28,0v2.71l1.91-1.92a.64.64,0,1,1,.9.9l-1.91,1.92h2.71A.63.63,0,0,1,74,155.9Zm-13.59-.85H57.74l1.92-1.92a.64.64,0,0,0-.9-.9l-1.92,1.92v-2.71a.64.64,0,1,0-1.27,0v2.71l-1.92-1.92a.64.64,0,0,0-.9.9l1.92,1.92H52a.64.64,0,1,0,0,1.27h2.71l-1.92,1.92a.63.63,0,0,0,0,.9.65.65,0,0,0,.9,0l1.92-1.92v2.71a.64.64,0,1,0,1.27,0v-2.71l1.92,1.92a.63.63,0,0,0,.45.18.66.66,0,0,0,.45-.18.63.63,0,0,0,0-.9l-1.92-1.92h2.71a.64.64,0,1,0,0-1.27Zm25.91,0H83.65l1.92-1.92a.64.64,0,0,0-.9-.9l-1.92,1.92v-2.71a.64.64,0,0,0-.64-.64.63.63,0,0,0-.63.64v2.71l-1.92-1.92a.64.64,0,0,0-.9.9l1.91,1.92h-2.7a.64.64,0,1,0,0,1.27h2.7l-1.91,1.92a.63.63,0,0,0,0,.9.65.65,0,0,0,.9,0l1.92-1.92v2.71a.64.64,0,0,0,.63.64.64.64,0,0,0,.64-.64v-2.71l1.92,1.92a.63.63,0,0,0,.45.18.66.66,0,0,0,.45-.18.63.63,0,0,0,0-.9l-1.92-1.92h2.71a.64.64,0,1,0,0-1.27Zm-51.82-.43H31.83l1.92-1.91a.64.64,0,1,0-.9-.9l-1.92,1.91V151a.64.64,0,0,0-1.27,0v2.71l-1.92-1.91a.64.64,0,1,0-.9.9l1.92,1.91H26.05a.64.64,0,1,0,0,1.28h2.71l-1.92,1.91a.64.64,0,0,0,.45,1.09.61.61,0,0,0,.45-.19l1.92-1.91v2.71a.64.64,0,0,0,1.27,0V156.8l1.92,1.91a.61.61,0,0,0,.45.19.64.64,0,0,0,.45-1.09l-1.92-1.91h2.71a.64.64,0,1,0,0-1.28Zm13,.21H44.79l1.91-1.91a.64.64,0,0,0-.9-.9l-1.91,1.91v-2.71a.64.64,0,0,0-1.28,0v2.71L40.7,152a.64.64,0,0,0-.9.9l1.91,1.91H39a.64.64,0,0,0,0,1.28h2.71L39.8,158a.65.65,0,0,0,0,.91.63.63,0,0,0,.45.18.66.66,0,0,0,.45-.18L42.61,157v2.71a.64.64,0,1,0,1.28,0V157l1.91,1.92a.66.66,0,0,0,.45.18.63.63,0,0,0,.45-.18.65.65,0,0,0,0-.91l-1.91-1.91H47.5a.64.64,0,0,0,0-1.28Zm-25.91-.42H18.88l1.91-1.92a.64.64,0,0,0-.9-.9L18,153.51V150.8a.64.64,0,0,0-1.28,0v2.71l-1.91-1.92a.64.64,0,0,0-.9.9l1.91,1.92H13.09a.64.64,0,0,0-.63.64.63.63,0,0,0,.63.63H15.8l-1.91,1.92a.63.63,0,0,0,0,.9.6.6,0,0,0,.45.19.63.63,0,0,0,.45-.19l1.91-1.91v2.7a.64.64,0,0,0,1.28,0v-2.7l1.91,1.91a.63.63,0,0,0,.45.19.6.6,0,0,0,.45-.19.63.63,0,0,0,0-.9l-1.91-1.92h2.71a.63.63,0,0,0,.63-.63A.64.64,0,0,0,21.59,154.41Z"/>
      <path class="cls-6" d="M51,69.23h-1.1V65.66a13.26,13.26,0,0,0-26.51,0v3.57h-1.1a1.59,1.59,0,0,0-1.59,1.59V78a16,16,0,0,0,16,15.94h0A15.94,15.94,0,0,0,52.62,78V70.82A1.59,1.59,0,0,0,51,69.23ZM26.44,65.66a10.24,10.24,0,0,1,20.47,0v3.57H26.44ZM39.28,84.35h-5.2l1.73-3.87a2.75,2.75,0,1,1,1.73,0Z"/>
      <path class="cls-7" d="M168.31,160.12l-2.1-1.33-46.78-29.47a38.49,38.49,0,0,1-18.08-32.76V24.36L94.86,27.6V99.8a38.52,38.52,0,0,0,18.08,32.76l50.13,30.95Z"/>
      <path class="cls-8" d="M101.35,24.36s20.73,6.08,37.87-3.16c11.1-6,22.72-18,22.72-18L168.31,0,146.83,44.45Z"/>
      <path class="cls-9" d="M230.37,25.6a53.09,53.09,0,0,1-13,1.61,53.37,53.37,0,0,1-37.67-15.7L171.1,2.82,168.31,0l-2.8,2.82-8.63,8.69a53.37,53.37,0,0,1-37.67,15.7,53,53,0,0,1-13-1.61l-4.9-1.24v72.2a38.49,38.49,0,0,0,18.08,32.76l46.78,29.47,2.1,1.33,2.1-1.33,46.77-29.47a38.5,38.5,0,0,0,18.09-32.76V24.36Z"/>
      <path class="cls-10" d="M161,111a7.23,7.23,0,0,1-6.95-9.26l3.36-11.6A4.15,4.15,0,0,0,156.18,86a21.07,21.07,0,0,1-6.69-15.47,21.35,21.35,0,0,1,21.32-21.32h.84A21.3,21.3,0,0,1,185.44,86a4.06,4.06,0,0,0-1.23,4.07l3.37,11.65a7.25,7.25,0,0,1-7,9.26Z"/>
      <path class="cls-5" d="M170.81,51.61h.74a19.07,19.07,0,0,1,18.14,18.26,18.77,18.77,0,0,1-5.92,14.33,6.49,6.49,0,0,0-1.9,6.52l3.37,11.65a4.81,4.81,0,0,1-4.62,6.15H161a4.81,4.81,0,0,1-4.62-6.15l3.36-11.61a6.52,6.52,0,0,0-1.89-6.56,18.87,18.87,0,0,1,13-32.6m0-4.86A23.78,23.78,0,0,0,147.06,70.5a23.49,23.49,0,0,0,7.45,17.24,1.72,1.72,0,0,1,.56,1.68L151.71,101A9.67,9.67,0,0,0,161,113.39h19.62A9.66,9.66,0,0,0,189.91,101l-3.37-11.66a1.69,1.69,0,0,1,.56-1.62,23.73,23.73,0,0,0-15.36-41Z"/>
      <path class="cls-11" d="M156.38,102.38l3.36-11.61a6.52,6.52,0,0,0-1.89-6.56,18.86,18.86,0,0,1,8.11-32,19.1,19.1,0,0,1,14.11,17.63,18.78,18.78,0,0,1-5.92,14.33,6.49,6.49,0,0,0-1.9,6.52l5.15,17.8H161A4.81,4.81,0,0,1,156.38,102.38Z"/>
      <path class="cls-12" d="M270.14,62.69a26.79,26.79,0,0,0-52.7,8.42l-14.34,3.6-17.33,4.37h0l-16.21,4.08a4.7,4.7,0,1,0,2.29,9.11l47.89-12a26.78,26.78,0,0,0,50.4-17.53ZM248.4,86.1A17.4,17.4,0,1,1,261,65,17.42,17.42,0,0,1,248.4,86.1Z"/>
      <path class="cls-13" d="M223,75.31,172.3,91a4.65,4.65,0,0,1-2.76-8.88l50.67-15.71A4.64,4.64,0,0,1,223,75.31Z"/>
      <path class="cls-14" d="M267.77,56.55a26.49,26.49,0,0,0-51.59,11.13l-30.84,9.57a4.65,4.65,0,1,0,2.75,8.88l30.85-9.57a26.49,26.49,0,0,0,48.83-20ZM247.55,80.83A17.2,17.2,0,1,1,258.89,59.3,17.22,17.22,0,0,1,247.55,80.83Z"/>
    </g>
  </g>
</svg>
